G75*
%MOIN*%
%OFA0B0*%
%FSLAX25Y25*%
%IPPOS*%
%LPD*%
%AMOC8*
5,1,8,0,0,1.08239X$1,22.5*
%
%ADD10R,0.08800X0.08800*%
%ADD11C,0.08800*%
%ADD12C,0.08200*%
%ADD13R,0.10300X0.10300*%
%ADD14C,0.10300*%
%ADD15C,0.08400*%
%ADD16R,0.08400X0.08400*%
%ADD17C,0.14300*%
%ADD18C,0.10250*%
%ADD19C,0.03578*%
D10*
X0041300Y0061300D03*
X0041300Y0170700D03*
D11*
X0041300Y0190385D03*
X0041300Y0080985D03*
D12*
X0177300Y0073300D03*
X0187300Y0073300D03*
X0197300Y0073300D03*
X0207300Y0073300D03*
X0207300Y0060300D03*
X0197300Y0060300D03*
X0187300Y0060300D03*
X0177300Y0060300D03*
X0187300Y0086300D03*
X0197300Y0086300D03*
X0207300Y0086300D03*
X0207300Y0099300D03*
X0197300Y0099300D03*
X0187300Y0099300D03*
X0187300Y0112300D03*
X0197300Y0112300D03*
X0207300Y0112300D03*
X0207300Y0125300D03*
X0197300Y0125300D03*
X0187300Y0125300D03*
X0187300Y0138300D03*
X0197300Y0138300D03*
X0207300Y0138300D03*
X0207300Y0151300D03*
X0197300Y0151300D03*
X0187300Y0151300D03*
X0187300Y0164300D03*
X0197300Y0164300D03*
X0207300Y0164300D03*
X0207300Y0177300D03*
X0197300Y0177300D03*
X0187300Y0177300D03*
D13*
X0041300Y0106200D03*
D14*
X0041300Y0125885D03*
X0041300Y0145570D03*
D15*
X0080300Y0213300D03*
X0090300Y0213300D03*
X0100300Y0213300D03*
X0120300Y0213300D03*
X0130300Y0213300D03*
X0140300Y0213300D03*
X0150300Y0213300D03*
X0160300Y0213300D03*
X0170300Y0213300D03*
X0186300Y0213300D03*
X0196300Y0213300D03*
X0206300Y0213300D03*
X0216300Y0213300D03*
X0226300Y0213300D03*
X0236300Y0213300D03*
X0246300Y0213300D03*
X0256300Y0213300D03*
X0256300Y0023300D03*
X0246300Y0023300D03*
X0236300Y0023300D03*
X0226300Y0023300D03*
X0216300Y0023300D03*
X0206300Y0023300D03*
X0186300Y0023300D03*
X0156300Y0023300D03*
X0146300Y0023300D03*
X0136300Y0023300D03*
X0126300Y0023300D03*
X0116300Y0023300D03*
D16*
X0166300Y0023300D03*
X0176300Y0023300D03*
X0110300Y0213300D03*
D17*
X0061300Y0023300D03*
X0266300Y0043300D03*
X0266300Y0153300D03*
X0066300Y0213300D03*
D18*
X0069900Y0183900D03*
X0069900Y0170500D03*
X0108900Y0170500D03*
X0108900Y0183900D03*
D19*
X0124800Y0093300D03*
X0124800Y0089300D03*
X0124800Y0085300D03*
X0124800Y0081300D03*
X0124800Y0077300D03*
X0145800Y0056800D03*
X0127800Y0049300D03*
X0093800Y0048300D03*
X0093800Y0044300D03*
X0089800Y0044300D03*
X0089800Y0048300D03*
X0085800Y0048300D03*
X0085800Y0044300D03*
X0081800Y0044300D03*
X0081800Y0048300D03*
X0077800Y0048300D03*
X0077800Y0044300D03*
X0073800Y0044300D03*
X0073800Y0048300D03*
X0069800Y0048300D03*
X0069800Y0044300D03*
M02*
