%
M48
M72
T01C0.01000
T02C0.01200
T03C0.01378
T04C0.03937
T05C0.04000
T06C0.05118
T07C0.06300
T08C0.13500
%
T01
X115000Y133100
X116500Y135600
X118500Y133100
X120000Y135600
X122000Y133100
X123500Y135600
X123500Y138600
X123500Y141600
X125300Y151800
X114300Y158300
X124000Y164100
X127000Y164100
X130000Y164100
X133000Y164100
X136000Y164100
X138800Y168800
X137800Y171800
X136000Y176100
X136000Y179100
X136000Y182100
X136000Y185100
X136300Y189300
X137000Y194100
X137000Y197100
X181500Y196600
X181500Y193600
X181500Y190600
X181500Y187600
X181500Y199600
X139300Y156300
X136300Y136800
X133800Y133800
X147800Y133800
X113000Y135600
X90500Y157100
X89000Y159600
X87000Y157100
X85500Y159600
X83500Y157100
X82000Y159600
X80000Y157100
X78500Y159600
X76500Y157100
X70000Y150600
X67000Y149100
X67000Y146100
X70000Y144600
X70000Y141600
X67000Y143100
X70000Y147600
X216800Y131800
X216800Y128800
X216800Y125800
X216800Y122800
X219800Y122800
X219800Y125800
X219800Y128800
X219800Y131800
X227300Y131800
X227300Y128800
X230800Y128800
X230800Y131800
X234300Y131800
X234300Y128800
X237800Y128800
X237800Y131800
X241300Y131800
X241300Y128800
X244800Y128800
X244800Y131800
X248300Y131800
X248300Y128800
X251800Y128800
X251800Y131800
X255300Y131800
X255300Y128800
X233500Y148100
X230500Y148100
X227500Y148100
X219800Y119800
X219800Y116800
X219800Y113800
X216800Y113800
X216800Y116800
X216800Y119800
X216800Y110800
X219800Y110800
X219300Y107800
X219300Y104800
X222300Y104800
X222300Y107800
X222300Y101800
X222300Y98800
X222300Y95800
X222300Y92800
X219300Y92800
X219300Y95800
X219300Y98800
X219300Y101800
X219300Y89800
X219300Y86800
X219300Y83800
X219300Y80800
X222800Y80800
X222800Y83800
X222800Y86800
X222800Y89800
X229300Y84300
X229300Y81300
X232800Y81300
X232800Y84300
X241300Y84300
X241300Y81300
X244800Y81300
X244800Y84300
X252300Y84300
X252300Y81300
X255800Y81300
X255800Y84300
X243300Y75300
X223300Y57800
T02
X113300Y101800
X109300Y101800
X109300Y105300
X109300Y108800
X113300Y108800
X113300Y105300
X105300Y107300
X101300Y107300
X97300Y107300
X97300Y115300
X101300Y115300
X105300Y115300
X109300Y113800
X109300Y117300
X113300Y117300
X113300Y113800
X113300Y120800
X109300Y120800
T03
X124800Y93300
X124800Y89300
X124800Y85300
X124800Y81300
X124800Y77300
X145800Y56800
X127800Y49300
X93800Y48300
X93800Y44300
X89800Y44300
X89800Y48300
X85800Y48300
X85800Y44300
X81800Y44300
X81800Y48300
X77800Y48300
X77800Y44300
X73800Y44300
X73800Y48300
X69800Y48300
X69800Y44300
T04
X116300Y23300
X126300Y23300
X136300Y23300
X146300Y23300
X156300Y23300
X166300Y23300
X176300Y23300
X186300Y23300
X206300Y23300
X216300Y23300
X226300Y23300
X236300Y23300
X246300Y23300
X256300Y23300
X256300Y213300
X246300Y213300
X236300Y213300
X226300Y213300
X216300Y213300
X206300Y213300
X196300Y213300
X186300Y213300
X170300Y213300
X160300Y213300
X150300Y213300
X140300Y213300
X130300Y213300
X120300Y213300
X110300Y213300
X100300Y213300
X90300Y213300
X80300Y213300
T05
X187300Y177300
X197300Y177300
X207300Y177300
X207300Y164300
X197300Y164300
X187300Y164300
X187300Y151300
X197300Y151300
X207300Y151300
X207300Y138300
X197300Y138300
X187300Y138300
X187300Y125300
X197300Y125300
X207300Y125300
X207300Y112300
X197300Y112300
X187300Y112300
X187300Y99300
X197300Y99300
X207300Y99300
X207300Y86300
X197300Y86300
X187300Y86300
X187300Y73300
X177300Y73300
X177300Y60300
X187300Y60300
X197300Y60300
X207300Y60300
X207300Y73300
X197300Y73300
T06
X41300Y80985
X41300Y61300
X41300Y106200
X41300Y125885
X41300Y145570
X41300Y170700
X41300Y190385
T07
X69900Y183900
X69900Y170500
X108900Y170500
X108900Y183900
T08
X61300Y23300
X266300Y43300
X266300Y153300
X66300Y213300
M30
