G75*
%MOIN*%
%OFA0B0*%
%FSLAX25Y25*%
%IPPOS*%
%LPD*%
%AMOC8*
5,1,8,0,0,1.08239X$1,22.5*
%
%ADD10R,0.03937X0.04331*%
%ADD11R,0.04331X0.03937*%
%ADD12R,0.06299X0.05512*%
%ADD13R,0.07874X0.04724*%
%ADD14R,0.08000X0.08000*%
%ADD15C,0.08000*%
%ADD16C,0.07400*%
%ADD17R,0.09500X0.09500*%
%ADD18C,0.09500*%
%ADD19C,0.07600*%
%ADD20R,0.07600X0.07600*%
%ADD21R,0.00984X0.02756*%
%ADD22R,0.02756X0.00984*%
%ADD23R,0.06693X0.10630*%
%ADD24R,0.02165X0.04724*%
%ADD25R,0.24409X0.21260*%
%ADD26R,0.06299X0.03937*%
%ADD27R,0.08000X0.02600*%
%ADD28C,0.09450*%
%ADD29R,0.02756X0.05906*%
%ADD30R,0.05906X0.02756*%
%ADD31R,0.05512X0.04724*%
%ADD32R,0.07087X0.06299*%
%ADD33C,0.02400*%
%ADD34C,0.00800*%
%ADD35C,0.00600*%
%ADD36C,0.02400*%
%ADD37C,0.01000*%
%ADD38C,0.05000*%
%ADD39C,0.01200*%
%ADD40C,0.01600*%
D10*
X0072300Y0084954D03*
X0072300Y0091646D03*
X0089300Y0143954D03*
X0089300Y0150646D03*
X0229300Y0143646D03*
X0229300Y0136954D03*
X0237300Y0136954D03*
X0237300Y0143646D03*
X0247800Y0067646D03*
X0247800Y0060954D03*
D11*
X0247954Y0075300D03*
X0254646Y0075300D03*
X0227646Y0075300D03*
X0220954Y0075300D03*
X0220954Y0067300D03*
X0227646Y0067300D03*
X0153646Y0127800D03*
X0146954Y0127800D03*
X0141646Y0127800D03*
X0134954Y0127800D03*
X0137646Y0142300D03*
X0130954Y0142300D03*
X0130954Y0150300D03*
X0137646Y0150300D03*
X0131646Y0158300D03*
X0124954Y0158300D03*
X0124454Y0191300D03*
X0131146Y0191300D03*
X0132646Y0199300D03*
X0125954Y0199300D03*
X0120746Y0199300D03*
X0114054Y0199300D03*
X0081646Y0151300D03*
X0074954Y0151300D03*
X0074954Y0143300D03*
X0081646Y0143300D03*
X0136454Y0068800D03*
X0143146Y0068800D03*
X0140646Y0042300D03*
X0133954Y0042300D03*
D12*
X0128300Y0170788D03*
X0128300Y0181812D03*
D13*
X0087300Y0065599D03*
X0075800Y0065599D03*
X0075800Y0053001D03*
X0087300Y0053001D03*
D14*
X0041300Y0061300D03*
X0041300Y0170700D03*
D15*
X0041300Y0190385D03*
X0041300Y0080985D03*
D16*
X0177300Y0073300D03*
X0187300Y0073300D03*
X0197300Y0073300D03*
X0207300Y0073300D03*
X0207300Y0060300D03*
X0197300Y0060300D03*
X0187300Y0060300D03*
X0177300Y0060300D03*
X0187300Y0086300D03*
X0197300Y0086300D03*
X0207300Y0086300D03*
X0207300Y0099300D03*
X0197300Y0099300D03*
X0187300Y0099300D03*
X0187300Y0112300D03*
X0197300Y0112300D03*
X0207300Y0112300D03*
X0207300Y0125300D03*
X0197300Y0125300D03*
X0187300Y0125300D03*
X0187300Y0138300D03*
X0197300Y0138300D03*
X0207300Y0138300D03*
X0207300Y0151300D03*
X0197300Y0151300D03*
X0187300Y0151300D03*
X0187300Y0164300D03*
X0197300Y0164300D03*
X0207300Y0164300D03*
X0207300Y0177300D03*
X0197300Y0177300D03*
X0187300Y0177300D03*
D17*
X0041300Y0106200D03*
D18*
X0041300Y0125885D03*
X0041300Y0145570D03*
D19*
X0080300Y0213300D03*
X0090300Y0213300D03*
X0100300Y0213300D03*
X0120300Y0213300D03*
X0130300Y0213300D03*
X0140300Y0213300D03*
X0150300Y0213300D03*
X0160300Y0213300D03*
X0170300Y0213300D03*
X0186300Y0213300D03*
X0196300Y0213300D03*
X0206300Y0213300D03*
X0216300Y0213300D03*
X0226300Y0213300D03*
X0236300Y0213300D03*
X0246300Y0213300D03*
X0256300Y0213300D03*
X0256300Y0023300D03*
X0246300Y0023300D03*
X0236300Y0023300D03*
X0226300Y0023300D03*
X0216300Y0023300D03*
X0206300Y0023300D03*
X0186300Y0023300D03*
X0156300Y0023300D03*
X0146300Y0023300D03*
X0136300Y0023300D03*
X0126300Y0023300D03*
X0116300Y0023300D03*
D20*
X0166300Y0023300D03*
X0176300Y0023300D03*
X0110300Y0213300D03*
D21*
X0111253Y0154780D03*
X0113221Y0154780D03*
X0115190Y0154780D03*
X0117158Y0154780D03*
X0109284Y0154780D03*
X0107316Y0154780D03*
X0105347Y0154780D03*
X0103379Y0154780D03*
X0101410Y0154780D03*
X0099442Y0154780D03*
X0099442Y0139820D03*
X0101410Y0139820D03*
X0103379Y0139820D03*
X0105347Y0139820D03*
X0107316Y0139820D03*
X0109284Y0139820D03*
X0111253Y0139820D03*
X0113221Y0139820D03*
X0115190Y0139820D03*
X0117158Y0139820D03*
D22*
X0119717Y0142379D03*
X0119717Y0144347D03*
X0119717Y0146316D03*
X0119717Y0148284D03*
X0119717Y0150253D03*
X0119717Y0152221D03*
X0096883Y0152221D03*
X0096883Y0150253D03*
X0096883Y0148284D03*
X0096883Y0146316D03*
X0096883Y0144347D03*
X0096883Y0142379D03*
D23*
X0114206Y0147300D03*
D24*
X0133060Y0060418D03*
X0136800Y0060418D03*
X0140540Y0060418D03*
X0140540Y0050182D03*
X0136800Y0050182D03*
X0133060Y0050182D03*
D25*
X0109143Y0083300D03*
X0074457Y0111300D03*
D26*
X0080402Y0092276D03*
X0080402Y0074324D03*
X0103198Y0102324D03*
X0103198Y0120276D03*
D27*
X0120200Y0118800D03*
X0120200Y0113800D03*
X0120200Y0108800D03*
X0120200Y0103800D03*
X0144400Y0103800D03*
X0144400Y0108800D03*
X0144400Y0113800D03*
X0144400Y0118800D03*
D28*
X0108900Y0170500D03*
X0108900Y0183900D03*
X0069900Y0183900D03*
X0069900Y0170500D03*
D29*
X0238280Y0122816D03*
X0243005Y0122816D03*
X0247729Y0122816D03*
X0252454Y0122816D03*
X0257178Y0122816D03*
X0257178Y0089351D03*
X0252454Y0089351D03*
X0247729Y0089351D03*
X0243005Y0089351D03*
X0238280Y0089351D03*
D30*
X0231784Y0094272D03*
X0231784Y0098997D03*
X0231784Y0103721D03*
X0231784Y0108446D03*
X0231784Y0113170D03*
X0231784Y0117894D03*
D31*
X0236800Y0073206D03*
X0236800Y0061394D03*
D32*
X0061210Y0062722D03*
X0061210Y0051698D03*
D33*
X0061210Y0043698D01*
X0087998Y0016910D01*
X0182050Y0016910D01*
X0186300Y0021160D01*
X0186300Y0023300D01*
X0197300Y0073300D02*
X0197300Y0086300D01*
X0194800Y0105800D02*
X0160800Y0105800D01*
X0120599Y0065599D01*
X0087300Y0065599D01*
X0061210Y0062722D02*
X0061210Y0077390D01*
X0057300Y0081300D01*
X0041615Y0081300D01*
X0041300Y0080985D01*
X0194800Y0105800D02*
X0197300Y0108300D01*
X0197300Y0112300D01*
D34*
X0200300Y0118800D02*
X0193800Y0118800D01*
X0187300Y0112300D01*
X0200300Y0118800D02*
X0202300Y0120800D01*
X0202300Y0181300D01*
X0196300Y0187300D01*
X0196300Y0213300D01*
X0191300Y0216350D02*
X0193300Y0218350D01*
X0204800Y0218350D01*
X0206300Y0216850D01*
X0206300Y0213300D01*
X0216300Y0213300D02*
X0216300Y0218280D01*
X0214800Y0219780D01*
X0148300Y0219780D01*
X0145300Y0216780D01*
X0145300Y0161300D01*
X0145800Y0160800D01*
X0145800Y0160780D01*
X0146000Y0160580D01*
X0146000Y0135600D01*
X0147800Y0133800D01*
X0146954Y0130646D02*
X0144600Y0133000D01*
X0144600Y0160000D01*
X0143900Y0160700D01*
X0143900Y0201640D01*
X0140520Y0205020D01*
X0140520Y0213080D01*
X0140300Y0213300D01*
X0136460Y0207100D02*
X0142500Y0201060D01*
X0142500Y0160120D01*
X0143200Y0159420D01*
X0143200Y0133200D01*
X0141646Y0131646D01*
X0141646Y0127800D01*
X0141646Y0124454D01*
X0144400Y0121700D01*
X0144400Y0118800D01*
X0146954Y0124146D02*
X0150300Y0120800D01*
X0150300Y0109800D01*
X0149300Y0108800D01*
X0144400Y0108800D01*
X0146954Y0124146D02*
X0146954Y0127800D01*
X0146954Y0130646D01*
X0137646Y0138146D02*
X0136300Y0136800D01*
X0137646Y0138146D02*
X0137646Y0142300D01*
X0140800Y0146300D02*
X0133361Y0146300D01*
X0130157Y0143096D01*
X0130954Y0142300D01*
X0130157Y0143096D02*
X0126938Y0146316D01*
X0119717Y0146316D01*
X0119717Y0148284D02*
X0119717Y0150253D01*
X0122847Y0150253D01*
X0123800Y0149300D01*
X0126800Y0149300D01*
X0127800Y0150300D01*
X0130954Y0150300D01*
X0130954Y0151454D01*
X0139700Y0160200D01*
X0139700Y0164400D01*
X0136300Y0167800D01*
X0136300Y0170300D01*
X0137800Y0171800D01*
X0139700Y0173700D01*
X0139700Y0199900D01*
X0135300Y0204300D01*
X0094300Y0204300D01*
X0090300Y0208300D01*
X0090300Y0213300D01*
X0093300Y0218300D02*
X0082300Y0218300D01*
X0080300Y0216300D01*
X0080300Y0213300D01*
X0093300Y0218300D02*
X0095300Y0216300D01*
X0095300Y0207800D01*
X0097400Y0205700D01*
X0135880Y0205700D01*
X0141100Y0200480D01*
X0141100Y0171100D01*
X0138800Y0168800D01*
X0141100Y0166500D01*
X0141100Y0159540D01*
X0141800Y0158840D01*
X0141800Y0147300D01*
X0140800Y0146300D01*
X0137646Y0150300D02*
X0137646Y0154646D01*
X0139300Y0156300D01*
X0124954Y0158300D02*
X0121300Y0158300D01*
X0117780Y0154780D01*
X0117158Y0154780D01*
X0115190Y0154780D02*
X0115190Y0157410D01*
X0114300Y0158300D01*
X0112300Y0158300D01*
X0111253Y0157253D01*
X0111253Y0154780D01*
X0119717Y0152221D02*
X0124879Y0152221D01*
X0125300Y0151800D01*
X0125253Y0144347D02*
X0119717Y0144347D01*
X0125253Y0144347D02*
X0126800Y0142800D01*
X0126800Y0137300D01*
X0128800Y0135300D01*
X0132300Y0135300D01*
X0133800Y0133800D01*
X0174500Y0145100D02*
X0181300Y0138300D01*
X0187300Y0138300D01*
X0192300Y0130300D02*
X0187300Y0125300D01*
X0192300Y0130300D02*
X0192300Y0181300D01*
X0191300Y0182300D01*
X0191300Y0216350D01*
X0186300Y0213300D02*
X0186300Y0178300D01*
X0187300Y0177300D01*
X0177300Y0168300D02*
X0181300Y0164300D01*
X0187300Y0164300D01*
X0177300Y0168300D02*
X0177300Y0201800D01*
X0170300Y0208800D01*
X0170300Y0213300D01*
X0160300Y0213300D02*
X0160300Y0208800D01*
X0163800Y0205300D01*
X0171820Y0205300D01*
X0175900Y0201220D01*
X0175900Y0156200D01*
X0181300Y0150800D01*
X0186800Y0150800D01*
X0187300Y0151300D01*
X0174500Y0145100D02*
X0174500Y0200640D01*
X0171340Y0203800D01*
X0153800Y0203800D01*
X0150300Y0207300D01*
X0150300Y0213300D01*
X0136460Y0207100D02*
X0122500Y0207100D01*
X0120300Y0209300D01*
X0120300Y0213300D01*
X0222800Y0147300D02*
X0222800Y0112300D01*
X0226654Y0108446D01*
X0231784Y0108446D01*
X0231784Y0113170D02*
X0226930Y0113170D01*
X0224300Y0115800D01*
X0224300Y0134800D01*
X0226454Y0136954D01*
X0229300Y0136954D01*
X0237300Y0136954D01*
X0237300Y0143646D02*
X0237300Y0147300D01*
X0246300Y0156300D01*
X0246300Y0213300D01*
X0241300Y0210800D02*
X0241300Y0217800D01*
X0243300Y0219800D01*
X0254300Y0219800D01*
X0256300Y0217800D01*
X0256300Y0213300D01*
X0244900Y0207200D02*
X0244900Y0156880D01*
X0238810Y0150790D01*
X0225790Y0150790D01*
X0222800Y0147300D01*
X0227497Y0098997D02*
X0226300Y0097800D01*
X0226300Y0080300D01*
X0227646Y0078954D01*
X0227646Y0075300D01*
X0227646Y0067300D01*
X0220954Y0075300D02*
X0218300Y0075300D01*
X0216800Y0073800D01*
X0216800Y0034780D01*
X0223290Y0028290D01*
X0238810Y0028290D01*
X0241300Y0025800D01*
X0241300Y0021012D01*
X0236688Y0016400D01*
X0215912Y0016400D01*
X0209012Y0023300D01*
X0206300Y0023300D01*
X0213800Y0033300D02*
X0213800Y0087800D01*
X0208800Y0092800D01*
X0191800Y0092800D01*
X0187300Y0088300D01*
X0187300Y0086300D01*
X0192300Y0094300D02*
X0209300Y0094300D01*
X0215300Y0088300D01*
X0215300Y0034300D01*
X0226300Y0023300D01*
X0221300Y0025800D02*
X0221300Y0019300D01*
X0222800Y0017800D01*
X0234800Y0017800D01*
X0236300Y0019300D01*
X0236300Y0023300D01*
X0221300Y0025800D02*
X0213800Y0033300D01*
X0192300Y0056300D02*
X0190300Y0054300D01*
X0147300Y0054300D01*
X0143182Y0050182D01*
X0140540Y0050182D01*
X0136800Y0050182D02*
X0136800Y0046800D01*
X0137300Y0046300D01*
X0140300Y0046300D01*
X0140800Y0045800D01*
X0140800Y0042454D01*
X0140646Y0042300D01*
X0140646Y0030954D01*
X0146300Y0025300D01*
X0146300Y0023300D01*
X0133954Y0042300D02*
X0133954Y0045146D01*
X0133060Y0046040D01*
X0133060Y0050182D01*
X0136800Y0050182D02*
X0136800Y0060418D01*
X0136800Y0068454D01*
X0136454Y0068800D01*
X0140540Y0064540D02*
X0141300Y0065300D01*
X0142300Y0065300D01*
X0143146Y0066146D01*
X0143146Y0068800D01*
X0146800Y0068800D01*
X0148800Y0066800D01*
X0173574Y0066800D01*
X0173300Y0066800D01*
X0173574Y0066800D02*
X0173800Y0066800D01*
X0173574Y0066800D02*
X0184800Y0066800D01*
X0187300Y0064300D01*
X0187300Y0060300D01*
X0192300Y0056300D02*
X0192300Y0068300D01*
X0187300Y0073300D01*
X0177300Y0073300D02*
X0176300Y0074300D01*
X0133800Y0074300D01*
X0131300Y0071800D01*
X0131300Y0065300D01*
X0133060Y0063540D01*
X0133060Y0060418D01*
X0140540Y0060418D02*
X0140540Y0064540D01*
X0187300Y0099300D02*
X0192300Y0094300D01*
X0227497Y0098997D02*
X0231784Y0098997D01*
X0238280Y0089351D02*
X0238280Y0082780D01*
X0236800Y0081300D01*
X0236800Y0073206D01*
X0236801Y0061413D02*
X0236800Y0061394D01*
X0092800Y0061300D02*
X0071300Y0061300D01*
X0071300Y0078300D01*
X0092800Y0078300D01*
X0092800Y0061300D01*
X0092800Y0062009D02*
X0071300Y0062009D01*
X0071300Y0062808D02*
X0092800Y0062808D01*
X0092800Y0063606D02*
X0071300Y0063606D01*
X0071300Y0064405D02*
X0092800Y0064405D01*
X0092800Y0065203D02*
X0071300Y0065203D01*
X0071300Y0066002D02*
X0092800Y0066002D01*
X0092800Y0066800D02*
X0071300Y0066800D01*
X0071300Y0067599D02*
X0092800Y0067599D01*
X0092800Y0068397D02*
X0071300Y0068397D01*
X0071300Y0069196D02*
X0092800Y0069196D01*
X0092800Y0069994D02*
X0071300Y0069994D01*
X0071300Y0070793D02*
X0092800Y0070793D01*
X0092800Y0071591D02*
X0071300Y0071591D01*
X0071300Y0072390D02*
X0092800Y0072390D01*
X0092800Y0073188D02*
X0071300Y0073188D01*
X0071300Y0073987D02*
X0092800Y0073987D01*
X0092800Y0074785D02*
X0071300Y0074785D01*
X0071300Y0075584D02*
X0092800Y0075584D01*
X0092800Y0076382D02*
X0071300Y0076382D01*
X0071300Y0077181D02*
X0092800Y0077181D01*
X0092800Y0077979D02*
X0071300Y0077979D01*
X0241300Y0210800D02*
X0244900Y0207200D01*
D35*
X0007899Y0221500D02*
X0007899Y0015139D01*
X0058659Y0015139D01*
X0056457Y0016052D01*
X0054052Y0018457D01*
X0052750Y0021599D01*
X0052750Y0025001D01*
X0054052Y0028143D01*
X0056457Y0030548D01*
X0059599Y0031850D01*
X0063001Y0031850D01*
X0066143Y0030548D01*
X0068548Y0028143D01*
X0069850Y0025001D01*
X0069850Y0021599D01*
X0068548Y0018457D01*
X0066143Y0016052D01*
X0063941Y0015139D01*
X0086799Y0015139D01*
X0059110Y0042828D01*
X0059110Y0047649D01*
X0057294Y0047649D01*
X0056767Y0048176D01*
X0056767Y0055221D01*
X0057294Y0055748D01*
X0065126Y0055748D01*
X0065653Y0055221D01*
X0065653Y0048176D01*
X0065126Y0047649D01*
X0063310Y0047649D01*
X0063310Y0044568D01*
X0088868Y0019010D01*
X0114375Y0019010D01*
X0113638Y0019316D01*
X0112316Y0020638D01*
X0111600Y0022365D01*
X0111600Y0024235D01*
X0112316Y0025962D01*
X0113638Y0027284D01*
X0115365Y0028000D01*
X0117235Y0028000D01*
X0118962Y0027284D01*
X0120284Y0025962D01*
X0121000Y0024235D01*
X0121000Y0022365D01*
X0120284Y0020638D01*
X0118962Y0019316D01*
X0118225Y0019010D01*
X0124375Y0019010D01*
X0123638Y0019316D01*
X0122316Y0020638D01*
X0121600Y0022365D01*
X0121600Y0024235D01*
X0122316Y0025962D01*
X0123638Y0027284D01*
X0125365Y0028000D01*
X0127235Y0028000D01*
X0128962Y0027284D01*
X0130284Y0025962D01*
X0131000Y0024235D01*
X0131000Y0022365D01*
X0130284Y0020638D01*
X0128962Y0019316D01*
X0128225Y0019010D01*
X0134375Y0019010D01*
X0133638Y0019316D01*
X0132316Y0020638D01*
X0131600Y0022365D01*
X0131600Y0024235D01*
X0132316Y0025962D01*
X0133638Y0027284D01*
X0135365Y0028000D01*
X0137235Y0028000D01*
X0138962Y0027284D01*
X0140284Y0025962D01*
X0141000Y0024235D01*
X0141000Y0022365D01*
X0140284Y0020638D01*
X0138962Y0019316D01*
X0138225Y0019010D01*
X0144375Y0019010D01*
X0143638Y0019316D01*
X0142316Y0020638D01*
X0141600Y0022365D01*
X0141600Y0024235D01*
X0142316Y0025962D01*
X0143057Y0026704D01*
X0139346Y0030415D01*
X0139346Y0039431D01*
X0138108Y0039431D01*
X0137581Y0039959D01*
X0137581Y0044641D01*
X0137940Y0045000D01*
X0136762Y0045000D01*
X0136000Y0045762D01*
X0135500Y0046262D01*
X0135500Y0046920D01*
X0135345Y0046920D01*
X0134930Y0047334D01*
X0134515Y0046920D01*
X0134360Y0046920D01*
X0134360Y0046579D01*
X0135254Y0045685D01*
X0135254Y0045168D01*
X0136492Y0045168D01*
X0137019Y0044641D01*
X0137019Y0039959D01*
X0136492Y0039431D01*
X0131415Y0039431D01*
X0130888Y0039959D01*
X0130888Y0044641D01*
X0131415Y0045168D01*
X0132093Y0045168D01*
X0131760Y0045502D01*
X0131760Y0046920D01*
X0131604Y0046920D01*
X0131077Y0047447D01*
X0131077Y0048682D01*
X0129900Y0048682D01*
X0129900Y0048430D01*
X0128670Y0047200D01*
X0126930Y0047200D01*
X0125700Y0048430D01*
X0125700Y0050170D01*
X0126930Y0051400D01*
X0127779Y0051400D01*
X0128061Y0051682D01*
X0131077Y0051682D01*
X0131077Y0052917D01*
X0131604Y0053444D01*
X0134515Y0053444D01*
X0134930Y0053029D01*
X0135345Y0053444D01*
X0135500Y0053444D01*
X0135500Y0057156D01*
X0135345Y0057156D01*
X0134930Y0057571D01*
X0134515Y0057156D01*
X0131604Y0057156D01*
X0131077Y0057683D01*
X0131077Y0063153D01*
X0131343Y0063419D01*
X0130762Y0064000D01*
X0130000Y0064762D01*
X0130000Y0072030D01*
X0121469Y0063499D01*
X0094100Y0063499D01*
X0094100Y0060762D01*
X0093338Y0060000D01*
X0070762Y0060000D01*
X0070000Y0060762D01*
X0070000Y0078838D01*
X0070762Y0079600D01*
X0093338Y0079600D01*
X0094100Y0078838D01*
X0094100Y0067699D01*
X0119729Y0067699D01*
X0159930Y0107900D01*
X0185902Y0107900D01*
X0184694Y0108400D01*
X0183400Y0109694D01*
X0182700Y0111385D01*
X0182700Y0113215D01*
X0183400Y0114906D01*
X0184694Y0116200D01*
X0186385Y0116900D01*
X0188215Y0116900D01*
X0189521Y0116359D01*
X0193262Y0120100D01*
X0199762Y0120100D01*
X0201000Y0121338D01*
X0201000Y0122495D01*
X0199906Y0121400D01*
X0198215Y0120700D01*
X0196385Y0120700D01*
X0194694Y0121400D01*
X0193400Y0122694D01*
X0192700Y0124385D01*
X0192700Y0126215D01*
X0193400Y0127906D01*
X0194694Y0129200D01*
X0196385Y0129900D01*
X0198215Y0129900D01*
X0199906Y0129200D01*
X0201000Y0128105D01*
X0201000Y0135495D01*
X0199906Y0134400D01*
X0198215Y0133700D01*
X0196385Y0133700D01*
X0194694Y0134400D01*
X0193600Y0135495D01*
X0193600Y0129762D01*
X0191359Y0127521D01*
X0191900Y0126215D01*
X0191900Y0124385D01*
X0191200Y0122694D01*
X0189906Y0121400D01*
X0188215Y0120700D01*
X0186385Y0120700D01*
X0184694Y0121400D01*
X0183400Y0122694D01*
X0182700Y0124385D01*
X0182700Y0126215D01*
X0183400Y0127906D01*
X0184694Y0129200D01*
X0186385Y0129900D01*
X0188215Y0129900D01*
X0189521Y0129359D01*
X0191000Y0130838D01*
X0191000Y0135495D01*
X0189906Y0134400D01*
X0188215Y0133700D01*
X0186385Y0133700D01*
X0184694Y0134400D01*
X0183400Y0135694D01*
X0182859Y0137000D01*
X0180762Y0137000D01*
X0180000Y0137762D01*
X0173200Y0144562D01*
X0173200Y0200102D01*
X0170802Y0202500D01*
X0153262Y0202500D01*
X0149000Y0206762D01*
X0149000Y0208751D01*
X0147638Y0209316D01*
X0146600Y0210353D01*
X0146600Y0161838D01*
X0147100Y0161338D01*
X0147100Y0161318D01*
X0147300Y0161118D01*
X0147300Y0136138D01*
X0147538Y0135900D01*
X0148670Y0135900D01*
X0149900Y0134670D01*
X0149900Y0132930D01*
X0148670Y0131700D01*
X0147738Y0131700D01*
X0148254Y0131185D01*
X0148254Y0130668D01*
X0149492Y0130668D01*
X0150019Y0130141D01*
X0150019Y0125459D01*
X0149492Y0124931D01*
X0148254Y0124931D01*
X0148254Y0124685D01*
X0151600Y0121338D01*
X0151600Y0109262D01*
X0150838Y0108500D01*
X0149838Y0107500D01*
X0149300Y0107500D01*
X0149300Y0107127D01*
X0148773Y0106600D01*
X0140027Y0106600D01*
X0139500Y0107127D01*
X0139500Y0110473D01*
X0140027Y0111000D01*
X0148773Y0111000D01*
X0149000Y0110773D01*
X0149000Y0116827D01*
X0148773Y0116600D01*
X0140027Y0116600D01*
X0139500Y0117127D01*
X0139500Y0120473D01*
X0140027Y0121000D01*
X0143100Y0121000D01*
X0143100Y0121162D01*
X0140346Y0123915D01*
X0140346Y0124931D01*
X0139108Y0124931D01*
X0138581Y0125459D01*
X0138581Y0130141D01*
X0139108Y0130668D01*
X0140346Y0130668D01*
X0140346Y0132185D01*
X0141900Y0133738D01*
X0141900Y0145562D01*
X0141338Y0145000D01*
X0140353Y0145000D01*
X0140712Y0144641D01*
X0140712Y0139959D01*
X0140185Y0139431D01*
X0138946Y0139431D01*
X0138946Y0137608D01*
X0138400Y0137062D01*
X0138400Y0135930D01*
X0137170Y0134700D01*
X0135870Y0134700D01*
X0135900Y0134670D01*
X0135900Y0132930D01*
X0134670Y0131700D01*
X0132930Y0131700D01*
X0131700Y0132930D01*
X0131700Y0134000D01*
X0128262Y0134000D01*
X0127500Y0134762D01*
X0125500Y0136762D01*
X0125500Y0142262D01*
X0124714Y0143047D01*
X0121560Y0143047D01*
X0121468Y0142955D01*
X0117967Y0142955D01*
X0117439Y0143482D01*
X0117439Y0145212D01*
X0117559Y0145331D01*
X0117439Y0145451D01*
X0117439Y0147181D01*
X0117559Y0147300D01*
X0117439Y0147419D01*
X0117439Y0149149D01*
X0117559Y0149269D01*
X0117439Y0149388D01*
X0117439Y0151118D01*
X0117559Y0151237D01*
X0117439Y0151356D01*
X0117439Y0152502D01*
X0116293Y0152502D01*
X0116174Y0152622D01*
X0116055Y0152502D01*
X0114325Y0152502D01*
X0114205Y0152622D01*
X0114086Y0152502D01*
X0112356Y0152502D01*
X0112237Y0152622D01*
X0112118Y0152502D01*
X0111000Y0152502D01*
X0111000Y0151403D01*
X0110750Y0151153D01*
X0110750Y0141847D01*
X0110800Y0141797D01*
X0110800Y0124200D01*
X0125797Y0124200D01*
X0126500Y0123497D01*
X0126500Y0111403D01*
X0126297Y0111200D01*
X0126500Y0110997D01*
X0126500Y0099103D01*
X0125797Y0098400D01*
X0092803Y0098400D01*
X0092100Y0099103D01*
X0092100Y0110997D01*
X0092303Y0111200D01*
X0092100Y0111403D01*
X0092100Y0123100D01*
X0090500Y0123100D01*
X0090500Y0087803D01*
X0089797Y0087100D01*
X0069734Y0087100D01*
X0064500Y0082738D01*
X0064500Y0071803D01*
X0063797Y0071100D01*
X0063310Y0071100D01*
X0063310Y0066771D01*
X0065126Y0066771D01*
X0065653Y0066244D01*
X0065653Y0059199D01*
X0065126Y0058672D01*
X0057294Y0058672D01*
X0056767Y0059199D01*
X0056767Y0066244D01*
X0057294Y0066771D01*
X0059110Y0066771D01*
X0059110Y0071100D01*
X0034803Y0071100D01*
X0032100Y0073803D01*
X0032100Y0094797D01*
X0032803Y0095500D01*
X0034803Y0097500D01*
X0046803Y0097500D01*
X0050100Y0100797D01*
X0050100Y0111803D01*
X0046803Y0115100D01*
X0034803Y0115100D01*
X0034100Y0115803D01*
X0032100Y0117803D01*
X0032100Y0133797D01*
X0032803Y0134500D01*
X0034803Y0136500D01*
X0046803Y0136500D01*
X0049803Y0139500D01*
X0097800Y0139500D01*
X0097800Y0140987D01*
X0095132Y0140987D01*
X0094605Y0141514D01*
X0094605Y0143244D01*
X0094724Y0143363D01*
X0094605Y0143482D01*
X0094605Y0144625D01*
X0092533Y0142554D01*
X0092168Y0142554D01*
X0092168Y0141415D01*
X0091641Y0140888D01*
X0086959Y0140888D01*
X0086431Y0141415D01*
X0086431Y0142452D01*
X0085880Y0141900D01*
X0084712Y0141900D01*
X0084712Y0140959D01*
X0084185Y0140431D01*
X0079108Y0140431D01*
X0078581Y0140959D01*
X0078581Y0145641D01*
X0079108Y0146168D01*
X0084185Y0146168D01*
X0084712Y0145641D01*
X0084712Y0144700D01*
X0084720Y0144700D01*
X0085374Y0145354D01*
X0086431Y0145354D01*
X0086431Y0146492D01*
X0086959Y0147019D01*
X0091641Y0147019D01*
X0092168Y0146492D01*
X0092168Y0146148D01*
X0093320Y0147300D01*
X0092168Y0148452D01*
X0092168Y0148108D01*
X0091641Y0147581D01*
X0086959Y0147581D01*
X0086431Y0148108D01*
X0086431Y0149246D01*
X0085374Y0149246D01*
X0084720Y0149900D01*
X0084712Y0149900D01*
X0084712Y0148959D01*
X0084185Y0148431D01*
X0079108Y0148431D01*
X0078581Y0148959D01*
X0078581Y0153641D01*
X0079108Y0154168D01*
X0084185Y0154168D01*
X0084712Y0153641D01*
X0084712Y0152700D01*
X0085880Y0152700D01*
X0086431Y0152148D01*
X0086431Y0153185D01*
X0086959Y0153712D01*
X0091641Y0153712D01*
X0092168Y0153185D01*
X0092168Y0152046D01*
X0092533Y0152046D01*
X0094896Y0149684D01*
X0097463Y0149684D01*
X0097470Y0149676D01*
X0098350Y0149676D01*
X0098350Y0150700D01*
X0094303Y0150700D01*
X0093600Y0151403D01*
X0093600Y0194797D01*
X0094303Y0195500D01*
X0119797Y0195500D01*
X0120500Y0194797D01*
X0120500Y0192800D01*
X0121388Y0192800D01*
X0121388Y0193641D01*
X0121915Y0194168D01*
X0126310Y0194168D01*
X0125800Y0194679D01*
X0124454Y0196025D01*
X0124454Y0196431D01*
X0123415Y0196431D01*
X0123350Y0196497D01*
X0123285Y0196431D01*
X0118208Y0196431D01*
X0117681Y0196959D01*
X0117681Y0201641D01*
X0118208Y0202168D01*
X0123285Y0202168D01*
X0123350Y0202103D01*
X0123415Y0202168D01*
X0128492Y0202168D01*
X0129019Y0201641D01*
X0129019Y0196959D01*
X0128860Y0196800D01*
X0130921Y0196800D01*
X0131921Y0195800D01*
X0132800Y0194921D01*
X0132800Y0194168D01*
X0133685Y0194168D01*
X0134212Y0193641D01*
X0134212Y0192800D01*
X0134921Y0192800D01*
X0136321Y0191400D01*
X0137170Y0191400D01*
X0138400Y0190170D01*
X0138400Y0188430D01*
X0137170Y0187200D01*
X0135430Y0187200D01*
X0134200Y0188430D01*
X0134200Y0188947D01*
X0133685Y0188431D01*
X0128608Y0188431D01*
X0128081Y0188959D01*
X0128081Y0193641D01*
X0128240Y0193800D01*
X0127360Y0193800D01*
X0127519Y0193641D01*
X0127519Y0188959D01*
X0126992Y0188431D01*
X0121915Y0188431D01*
X0121388Y0188959D01*
X0121388Y0189800D01*
X0120500Y0189800D01*
X0120500Y0174188D01*
X0124522Y0174188D01*
X0124778Y0174444D01*
X0131822Y0174444D01*
X0132350Y0173917D01*
X0132350Y0167659D01*
X0131822Y0167132D01*
X0124778Y0167132D01*
X0124522Y0167388D01*
X0120500Y0167388D01*
X0120500Y0162403D01*
X0119797Y0161700D01*
X0111000Y0161700D01*
X0111000Y0158838D01*
X0111000Y0158838D01*
X0111762Y0159600D01*
X0112630Y0159600D01*
X0113430Y0160400D01*
X0115170Y0160400D01*
X0116400Y0159170D01*
X0116400Y0158038D01*
X0116490Y0157949D01*
X0116490Y0157058D01*
X0118023Y0157058D01*
X0118121Y0156960D01*
X0120000Y0158838D01*
X0120762Y0159600D01*
X0121888Y0159600D01*
X0121888Y0160641D01*
X0122415Y0161168D01*
X0127492Y0161168D01*
X0128019Y0160641D01*
X0128019Y0155959D01*
X0127492Y0155431D01*
X0122415Y0155431D01*
X0121888Y0155959D01*
X0121888Y0157000D01*
X0121838Y0157000D01*
X0118550Y0153712D01*
X0118550Y0153613D01*
X0121468Y0153613D01*
X0121560Y0153521D01*
X0124051Y0153521D01*
X0124430Y0153900D01*
X0126170Y0153900D01*
X0127400Y0152670D01*
X0127400Y0151600D01*
X0127888Y0151600D01*
X0127888Y0152641D01*
X0128415Y0153168D01*
X0130830Y0153168D01*
X0138400Y0160738D01*
X0138400Y0163862D01*
X0135000Y0167262D01*
X0135000Y0170838D01*
X0135700Y0171538D01*
X0135700Y0172670D01*
X0136930Y0173900D01*
X0138062Y0173900D01*
X0138400Y0174238D01*
X0138400Y0199362D01*
X0134762Y0203000D01*
X0093762Y0203000D01*
X0093000Y0203762D01*
X0089000Y0207762D01*
X0089000Y0208751D01*
X0087638Y0209316D01*
X0086316Y0210638D01*
X0085600Y0212365D01*
X0085600Y0214235D01*
X0086316Y0215962D01*
X0087353Y0217000D01*
X0083247Y0217000D01*
X0084284Y0215962D01*
X0085000Y0214235D01*
X0085000Y0212365D01*
X0084284Y0210638D01*
X0082962Y0209316D01*
X0081235Y0208600D01*
X0079365Y0208600D01*
X0077638Y0209316D01*
X0076316Y0210638D01*
X0075600Y0212365D01*
X0075600Y0214235D01*
X0076316Y0215962D01*
X0077638Y0217284D01*
X0079365Y0218000D01*
X0080162Y0218000D01*
X0081762Y0219600D01*
X0093838Y0219600D01*
X0094600Y0218838D01*
X0095838Y0217600D01*
X0096600Y0216838D01*
X0096600Y0216247D01*
X0097638Y0217284D01*
X0099365Y0218000D01*
X0101235Y0218000D01*
X0102962Y0217284D01*
X0104284Y0215962D01*
X0105000Y0214235D01*
X0105000Y0212365D01*
X0104284Y0210638D01*
X0102962Y0209316D01*
X0101235Y0208600D01*
X0099365Y0208600D01*
X0097638Y0209316D01*
X0096600Y0210353D01*
X0096600Y0208338D01*
X0097938Y0207000D01*
X0120762Y0207000D01*
X0119018Y0208744D01*
X0117638Y0209316D01*
X0116316Y0210638D01*
X0115600Y0212365D01*
X0115600Y0214235D01*
X0116316Y0215962D01*
X0117638Y0217284D01*
X0119365Y0218000D01*
X0121235Y0218000D01*
X0122962Y0217284D01*
X0124284Y0215962D01*
X0125000Y0214235D01*
X0125000Y0212365D01*
X0124284Y0210638D01*
X0122962Y0209316D01*
X0122369Y0209070D01*
X0123038Y0208400D01*
X0136998Y0208400D01*
X0137760Y0207638D01*
X0137760Y0207638D01*
X0139220Y0206178D01*
X0139220Y0208660D01*
X0137638Y0209316D01*
X0136316Y0210638D01*
X0135600Y0212365D01*
X0135600Y0214235D01*
X0136316Y0215962D01*
X0137638Y0217284D01*
X0139365Y0218000D01*
X0141235Y0218000D01*
X0142962Y0217284D01*
X0144000Y0216247D01*
X0144000Y0217318D01*
X0147762Y0221080D01*
X0148838Y0221080D01*
X0214262Y0221080D01*
X0215338Y0221080D01*
X0216100Y0220318D01*
X0217600Y0218818D01*
X0217600Y0217849D01*
X0218962Y0217284D01*
X0220284Y0215962D01*
X0221000Y0214235D01*
X0221000Y0212365D01*
X0220284Y0210638D01*
X0218962Y0209316D01*
X0217235Y0208600D01*
X0215365Y0208600D01*
X0213638Y0209316D01*
X0212316Y0210638D01*
X0211600Y0212365D01*
X0211600Y0214235D01*
X0212316Y0215962D01*
X0213638Y0217284D01*
X0214924Y0217817D01*
X0214262Y0218480D01*
X0206508Y0218480D01*
X0206988Y0218000D01*
X0207235Y0218000D01*
X0208962Y0217284D01*
X0210284Y0215962D01*
X0211000Y0214235D01*
X0211000Y0212365D01*
X0210284Y0210638D01*
X0208962Y0209316D01*
X0207235Y0208600D01*
X0205365Y0208600D01*
X0203638Y0209316D01*
X0202316Y0210638D01*
X0201600Y0212365D01*
X0201600Y0214235D01*
X0202316Y0215962D01*
X0203403Y0217050D01*
X0199197Y0217050D01*
X0200284Y0215962D01*
X0201000Y0214235D01*
X0201000Y0212365D01*
X0200284Y0210638D01*
X0198962Y0209316D01*
X0197600Y0208751D01*
X0197600Y0187838D01*
X0202838Y0182600D01*
X0203600Y0181838D01*
X0203600Y0120262D01*
X0201600Y0118262D01*
X0200838Y0117500D01*
X0194338Y0117500D01*
X0191359Y0114521D01*
X0191900Y0113215D01*
X0191900Y0111385D01*
X0191200Y0109694D01*
X0189906Y0108400D01*
X0188698Y0107900D01*
X0193930Y0107900D01*
X0194562Y0108532D01*
X0193400Y0109694D01*
X0192700Y0111385D01*
X0192700Y0113215D01*
X0193400Y0114906D01*
X0194694Y0116200D01*
X0196385Y0116900D01*
X0198215Y0116900D01*
X0199906Y0116200D01*
X0201200Y0114906D01*
X0201900Y0113215D01*
X0201900Y0111385D01*
X0201200Y0109694D01*
X0199906Y0108400D01*
X0199400Y0108191D01*
X0199400Y0107430D01*
X0196900Y0104930D01*
X0195670Y0103700D01*
X0188698Y0103700D01*
X0189906Y0103200D01*
X0191200Y0101906D01*
X0191900Y0100215D01*
X0191900Y0098385D01*
X0191359Y0097079D01*
X0192838Y0095600D01*
X0194495Y0095600D01*
X0193400Y0096694D01*
X0192700Y0098385D01*
X0192700Y0100215D01*
X0193400Y0101906D01*
X0194694Y0103200D01*
X0196385Y0103900D01*
X0198215Y0103900D01*
X0199906Y0103200D01*
X0201200Y0101906D01*
X0201900Y0100215D01*
X0201900Y0098385D01*
X0201200Y0096694D01*
X0200105Y0095600D01*
X0209838Y0095600D01*
X0216600Y0088838D01*
X0216600Y0075438D01*
X0217762Y0076600D01*
X0217888Y0076600D01*
X0217888Y0077641D01*
X0218415Y0078168D01*
X0223492Y0078168D01*
X0224019Y0077641D01*
X0224019Y0072959D01*
X0223492Y0072431D01*
X0218415Y0072431D01*
X0218100Y0072747D01*
X0218100Y0035318D01*
X0223828Y0029590D01*
X0225389Y0029590D01*
X0221800Y0033179D01*
X0221800Y0056330D01*
X0221200Y0056930D01*
X0221200Y0058670D01*
X0222430Y0059900D01*
X0224170Y0059900D01*
X0225400Y0058670D01*
X0225400Y0056930D01*
X0224800Y0056330D01*
X0224800Y0034421D01*
X0227831Y0031390D01*
X0250331Y0031390D01*
X0254203Y0027519D01*
X0255365Y0028000D01*
X0257235Y0028000D01*
X0258962Y0027284D01*
X0260284Y0025962D01*
X0261000Y0024235D01*
X0261000Y0022365D01*
X0260284Y0020638D01*
X0258962Y0019316D01*
X0257235Y0018600D01*
X0255365Y0018600D01*
X0253638Y0019316D01*
X0252316Y0020638D01*
X0251600Y0022365D01*
X0251600Y0024235D01*
X0252081Y0025397D01*
X0249089Y0028390D01*
X0240548Y0028390D01*
X0242600Y0026338D01*
X0242600Y0026247D01*
X0243638Y0027284D01*
X0245365Y0028000D01*
X0247235Y0028000D01*
X0248962Y0027284D01*
X0250284Y0025962D01*
X0251000Y0024235D01*
X0251000Y0022365D01*
X0250284Y0020638D01*
X0248962Y0019316D01*
X0247235Y0018600D01*
X0245365Y0018600D01*
X0243638Y0019316D01*
X0242540Y0020413D01*
X0241838Y0019712D01*
X0241838Y0019712D01*
X0237988Y0015862D01*
X0237988Y0015862D01*
X0237266Y0015139D01*
X0264500Y0015139D01*
X0264500Y0024046D01*
X0274500Y0034046D01*
X0274500Y0040754D01*
X0273548Y0038457D01*
X0271143Y0036052D01*
X0268001Y0034750D01*
X0264599Y0034750D01*
X0261457Y0036052D01*
X0259052Y0038457D01*
X0257750Y0041599D01*
X0257750Y0045001D01*
X0259052Y0048143D01*
X0259600Y0048692D01*
X0259600Y0088590D01*
X0259778Y0088768D01*
X0259778Y0122832D01*
X0259600Y0123010D01*
X0259600Y0147908D01*
X0259052Y0148457D01*
X0257750Y0151599D01*
X0257750Y0155001D01*
X0259052Y0158143D01*
X0261457Y0160548D01*
X0264599Y0161850D01*
X0268001Y0161850D01*
X0271143Y0160548D01*
X0273548Y0158143D01*
X0274500Y0155846D01*
X0274500Y0161554D01*
X0265554Y0170500D01*
X0264500Y0171554D01*
X0264500Y0216554D01*
X0259554Y0221500D01*
X0068846Y0221500D01*
X0071143Y0220548D01*
X0073548Y0218143D01*
X0074850Y0215001D01*
X0074850Y0211599D01*
X0073548Y0208457D01*
X0071143Y0206052D01*
X0068001Y0204750D01*
X0064599Y0204750D01*
X0061457Y0206052D01*
X0059052Y0208457D01*
X0057750Y0211599D01*
X0057750Y0215001D01*
X0059052Y0218143D01*
X0061457Y0220548D01*
X0063754Y0221500D01*
X0007899Y0221500D01*
X0007899Y0220983D02*
X0062507Y0220983D01*
X0061293Y0220385D02*
X0007899Y0220385D01*
X0007899Y0219786D02*
X0060695Y0219786D01*
X0060096Y0219188D02*
X0007899Y0219188D01*
X0007899Y0218589D02*
X0059498Y0218589D01*
X0058989Y0217991D02*
X0007899Y0217991D01*
X0007899Y0217392D02*
X0058741Y0217392D01*
X0058493Y0216794D02*
X0007899Y0216794D01*
X0007899Y0216195D02*
X0058245Y0216195D01*
X0057997Y0215597D02*
X0007899Y0215597D01*
X0007899Y0214998D02*
X0057750Y0214998D01*
X0057750Y0214400D02*
X0007899Y0214400D01*
X0007899Y0213801D02*
X0057750Y0213801D01*
X0057750Y0213203D02*
X0007899Y0213203D01*
X0007899Y0212604D02*
X0057750Y0212604D01*
X0057750Y0212006D02*
X0007899Y0212006D01*
X0007899Y0211407D02*
X0057830Y0211407D01*
X0058077Y0210809D02*
X0007899Y0210809D01*
X0007899Y0210210D02*
X0058325Y0210210D01*
X0058573Y0209612D02*
X0007899Y0209612D01*
X0007899Y0209013D02*
X0058821Y0209013D01*
X0059094Y0208415D02*
X0007899Y0208415D01*
X0007899Y0207816D02*
X0059692Y0207816D01*
X0060291Y0207218D02*
X0007899Y0207218D01*
X0007899Y0206619D02*
X0060889Y0206619D01*
X0061532Y0206021D02*
X0007899Y0206021D01*
X0007899Y0205422D02*
X0062977Y0205422D01*
X0064422Y0204824D02*
X0007899Y0204824D01*
X0007899Y0204225D02*
X0092536Y0204225D01*
X0091938Y0204824D02*
X0068178Y0204824D01*
X0069623Y0205422D02*
X0091339Y0205422D01*
X0090741Y0206021D02*
X0071068Y0206021D01*
X0071711Y0206619D02*
X0090142Y0206619D01*
X0089544Y0207218D02*
X0072309Y0207218D01*
X0072908Y0207816D02*
X0089000Y0207816D01*
X0089000Y0208415D02*
X0073506Y0208415D01*
X0073779Y0209013D02*
X0078368Y0209013D01*
X0077341Y0209612D02*
X0074027Y0209612D01*
X0074275Y0210210D02*
X0076743Y0210210D01*
X0076245Y0210809D02*
X0074523Y0210809D01*
X0074770Y0211407D02*
X0075997Y0211407D01*
X0075749Y0212006D02*
X0074850Y0212006D01*
X0074850Y0212604D02*
X0075600Y0212604D01*
X0075600Y0213203D02*
X0074850Y0213203D01*
X0074850Y0213801D02*
X0075600Y0213801D01*
X0075668Y0214400D02*
X0074850Y0214400D01*
X0074850Y0214998D02*
X0075916Y0214998D01*
X0076164Y0215597D02*
X0074603Y0215597D01*
X0074355Y0216195D02*
X0076549Y0216195D01*
X0077147Y0216794D02*
X0074107Y0216794D01*
X0073859Y0217392D02*
X0077898Y0217392D01*
X0079343Y0217991D02*
X0073611Y0217991D01*
X0073102Y0218589D02*
X0080751Y0218589D01*
X0081349Y0219188D02*
X0072504Y0219188D01*
X0071905Y0219786D02*
X0146468Y0219786D01*
X0145869Y0219188D02*
X0094251Y0219188D01*
X0094849Y0218589D02*
X0145271Y0218589D01*
X0144672Y0217991D02*
X0141257Y0217991D01*
X0142702Y0217392D02*
X0144074Y0217392D01*
X0144000Y0216794D02*
X0143453Y0216794D01*
X0147647Y0217288D02*
X0148838Y0218480D01*
X0191592Y0218480D01*
X0190762Y0217650D01*
X0190000Y0216888D01*
X0190000Y0216247D01*
X0188962Y0217284D01*
X0187235Y0218000D01*
X0185365Y0218000D01*
X0183638Y0217284D01*
X0182316Y0215962D01*
X0181600Y0214235D01*
X0181600Y0212365D01*
X0182316Y0210638D01*
X0183638Y0209316D01*
X0185000Y0208751D01*
X0185000Y0181326D01*
X0184694Y0181200D01*
X0183400Y0179906D01*
X0182700Y0178215D01*
X0182700Y0176385D01*
X0183400Y0174694D01*
X0184694Y0173400D01*
X0186385Y0172700D01*
X0188215Y0172700D01*
X0189906Y0173400D01*
X0191000Y0174495D01*
X0191000Y0167105D01*
X0189906Y0168200D01*
X0188215Y0168900D01*
X0186385Y0168900D01*
X0184694Y0168200D01*
X0183400Y0166906D01*
X0182859Y0165600D01*
X0181838Y0165600D01*
X0178600Y0168838D01*
X0178600Y0202338D01*
X0177838Y0203100D01*
X0172015Y0208923D01*
X0172962Y0209316D01*
X0174284Y0210638D01*
X0175000Y0212365D01*
X0175000Y0214235D01*
X0174284Y0215962D01*
X0172962Y0217284D01*
X0171235Y0218000D01*
X0169365Y0218000D01*
X0167638Y0217284D01*
X0166316Y0215962D01*
X0165600Y0214235D01*
X0165600Y0212365D01*
X0166316Y0210638D01*
X0167638Y0209316D01*
X0169000Y0208751D01*
X0169000Y0208262D01*
X0170662Y0206600D01*
X0164338Y0206600D01*
X0162015Y0208923D01*
X0162962Y0209316D01*
X0164284Y0210638D01*
X0165000Y0212365D01*
X0165000Y0214235D01*
X0164284Y0215962D01*
X0162962Y0217284D01*
X0161235Y0218000D01*
X0159365Y0218000D01*
X0157638Y0217284D01*
X0156316Y0215962D01*
X0155600Y0214235D01*
X0155600Y0212365D01*
X0156316Y0210638D01*
X0157638Y0209316D01*
X0159000Y0208751D01*
X0159000Y0208262D01*
X0162162Y0205100D01*
X0154338Y0205100D01*
X0151600Y0207838D01*
X0151600Y0208751D01*
X0152962Y0209316D01*
X0154284Y0210638D01*
X0155000Y0212365D01*
X0155000Y0214235D01*
X0154284Y0215962D01*
X0152962Y0217284D01*
X0151235Y0218000D01*
X0149365Y0218000D01*
X0147647Y0217288D01*
X0147751Y0217392D02*
X0147898Y0217392D01*
X0148349Y0217991D02*
X0149343Y0217991D01*
X0151257Y0217991D02*
X0159343Y0217991D01*
X0157898Y0217392D02*
X0152702Y0217392D01*
X0153453Y0216794D02*
X0157147Y0216794D01*
X0156549Y0216195D02*
X0154051Y0216195D01*
X0154436Y0215597D02*
X0156164Y0215597D01*
X0155916Y0214998D02*
X0154684Y0214998D01*
X0154932Y0214400D02*
X0155668Y0214400D01*
X0155600Y0213801D02*
X0155000Y0213801D01*
X0155000Y0213203D02*
X0155600Y0213203D01*
X0155600Y0212604D02*
X0155000Y0212604D01*
X0154851Y0212006D02*
X0155749Y0212006D01*
X0155997Y0211407D02*
X0154603Y0211407D01*
X0154355Y0210809D02*
X0156245Y0210809D01*
X0156743Y0210210D02*
X0153857Y0210210D01*
X0153259Y0209612D02*
X0157341Y0209612D01*
X0158368Y0209013D02*
X0152232Y0209013D01*
X0151600Y0208415D02*
X0159000Y0208415D01*
X0159445Y0207816D02*
X0151622Y0207816D01*
X0152221Y0207218D02*
X0160044Y0207218D01*
X0160642Y0206619D02*
X0152819Y0206619D01*
X0153418Y0206021D02*
X0161241Y0206021D01*
X0161839Y0205422D02*
X0154016Y0205422D01*
X0152135Y0203627D02*
X0146600Y0203627D01*
X0146600Y0204225D02*
X0151536Y0204225D01*
X0150938Y0204824D02*
X0146600Y0204824D01*
X0146600Y0205422D02*
X0150339Y0205422D01*
X0149741Y0206021D02*
X0146600Y0206021D01*
X0146600Y0206619D02*
X0149142Y0206619D01*
X0149000Y0207218D02*
X0146600Y0207218D01*
X0146600Y0207816D02*
X0149000Y0207816D01*
X0149000Y0208415D02*
X0146600Y0208415D01*
X0146600Y0209013D02*
X0148368Y0209013D01*
X0147341Y0209612D02*
X0146600Y0209612D01*
X0146600Y0210210D02*
X0146743Y0210210D01*
X0146600Y0203028D02*
X0152733Y0203028D01*
X0146600Y0202430D02*
X0170872Y0202430D01*
X0171471Y0201831D02*
X0146600Y0201831D01*
X0146600Y0201233D02*
X0172069Y0201233D01*
X0172668Y0200634D02*
X0146600Y0200634D01*
X0146600Y0200036D02*
X0173200Y0200036D01*
X0173200Y0199437D02*
X0146600Y0199437D01*
X0146600Y0198839D02*
X0173200Y0198839D01*
X0173200Y0198240D02*
X0146600Y0198240D01*
X0146600Y0197641D02*
X0173200Y0197641D01*
X0173200Y0197043D02*
X0146600Y0197043D01*
X0146600Y0196444D02*
X0173200Y0196444D01*
X0173200Y0195846D02*
X0146600Y0195846D01*
X0146600Y0195247D02*
X0173200Y0195247D01*
X0173200Y0194649D02*
X0146600Y0194649D01*
X0146600Y0194050D02*
X0173200Y0194050D01*
X0173200Y0193452D02*
X0146600Y0193452D01*
X0146600Y0192853D02*
X0173200Y0192853D01*
X0173200Y0192255D02*
X0146600Y0192255D01*
X0146600Y0191656D02*
X0173200Y0191656D01*
X0173200Y0191058D02*
X0146600Y0191058D01*
X0146600Y0190459D02*
X0173200Y0190459D01*
X0173200Y0189861D02*
X0146600Y0189861D01*
X0146600Y0189262D02*
X0173200Y0189262D01*
X0173200Y0188664D02*
X0146600Y0188664D01*
X0146600Y0188065D02*
X0173200Y0188065D01*
X0173200Y0187467D02*
X0146600Y0187467D01*
X0146600Y0186868D02*
X0173200Y0186868D01*
X0173200Y0186270D02*
X0146600Y0186270D01*
X0146600Y0185671D02*
X0173200Y0185671D01*
X0173200Y0185073D02*
X0146600Y0185073D01*
X0146600Y0184474D02*
X0173200Y0184474D01*
X0173200Y0183876D02*
X0146600Y0183876D01*
X0146600Y0183277D02*
X0173200Y0183277D01*
X0173200Y0182679D02*
X0146600Y0182679D01*
X0146600Y0182080D02*
X0173200Y0182080D01*
X0173200Y0181482D02*
X0146600Y0181482D01*
X0146600Y0180883D02*
X0173200Y0180883D01*
X0173200Y0180285D02*
X0146600Y0180285D01*
X0146600Y0179686D02*
X0173200Y0179686D01*
X0173200Y0179088D02*
X0146600Y0179088D01*
X0146600Y0178489D02*
X0173200Y0178489D01*
X0173200Y0177891D02*
X0146600Y0177891D01*
X0146600Y0177292D02*
X0173200Y0177292D01*
X0173200Y0176694D02*
X0146600Y0176694D01*
X0146600Y0176095D02*
X0173200Y0176095D01*
X0173200Y0175497D02*
X0146600Y0175497D01*
X0146600Y0174898D02*
X0173200Y0174898D01*
X0173200Y0174300D02*
X0146600Y0174300D01*
X0146600Y0173701D02*
X0173200Y0173701D01*
X0173200Y0173103D02*
X0146600Y0173103D01*
X0146600Y0172504D02*
X0173200Y0172504D01*
X0173200Y0171905D02*
X0146600Y0171905D01*
X0146600Y0171307D02*
X0173200Y0171307D01*
X0173200Y0170708D02*
X0146600Y0170708D01*
X0146600Y0170110D02*
X0173200Y0170110D01*
X0173200Y0169511D02*
X0146600Y0169511D01*
X0146600Y0168913D02*
X0173200Y0168913D01*
X0173200Y0168314D02*
X0146600Y0168314D01*
X0146600Y0167716D02*
X0173200Y0167716D01*
X0173200Y0167117D02*
X0146600Y0167117D01*
X0146600Y0166519D02*
X0173200Y0166519D01*
X0173200Y0165920D02*
X0146600Y0165920D01*
X0146600Y0165322D02*
X0173200Y0165322D01*
X0173200Y0164723D02*
X0146600Y0164723D01*
X0146600Y0164125D02*
X0173200Y0164125D01*
X0173200Y0163526D02*
X0146600Y0163526D01*
X0146600Y0162928D02*
X0173200Y0162928D01*
X0173200Y0162329D02*
X0146600Y0162329D01*
X0146708Y0161731D02*
X0173200Y0161731D01*
X0173200Y0161132D02*
X0147286Y0161132D01*
X0147300Y0160534D02*
X0173200Y0160534D01*
X0173200Y0159935D02*
X0147300Y0159935D01*
X0147300Y0159337D02*
X0173200Y0159337D01*
X0173200Y0158738D02*
X0147300Y0158738D01*
X0147300Y0158140D02*
X0173200Y0158140D01*
X0173200Y0157541D02*
X0147300Y0157541D01*
X0147300Y0156943D02*
X0173200Y0156943D01*
X0173200Y0156344D02*
X0147300Y0156344D01*
X0147300Y0155746D02*
X0173200Y0155746D01*
X0173200Y0155147D02*
X0147300Y0155147D01*
X0147300Y0154549D02*
X0173200Y0154549D01*
X0173200Y0153950D02*
X0147300Y0153950D01*
X0147300Y0153352D02*
X0173200Y0153352D01*
X0173200Y0152753D02*
X0147300Y0152753D01*
X0147300Y0152155D02*
X0173200Y0152155D01*
X0173200Y0151556D02*
X0147300Y0151556D01*
X0147300Y0150958D02*
X0173200Y0150958D01*
X0173200Y0150359D02*
X0147300Y0150359D01*
X0147300Y0149761D02*
X0173200Y0149761D01*
X0173200Y0149162D02*
X0147300Y0149162D01*
X0147300Y0148564D02*
X0173200Y0148564D01*
X0173200Y0147965D02*
X0147300Y0147965D01*
X0147300Y0147367D02*
X0173200Y0147367D01*
X0173200Y0146768D02*
X0147300Y0146768D01*
X0147300Y0146170D02*
X0173200Y0146170D01*
X0173200Y0145571D02*
X0147300Y0145571D01*
X0147300Y0144972D02*
X0173200Y0144972D01*
X0173388Y0144374D02*
X0147300Y0144374D01*
X0147300Y0143775D02*
X0173986Y0143775D01*
X0174585Y0143177D02*
X0147300Y0143177D01*
X0147300Y0142578D02*
X0175183Y0142578D01*
X0175782Y0141980D02*
X0147300Y0141980D01*
X0147300Y0141381D02*
X0176380Y0141381D01*
X0176979Y0140783D02*
X0147300Y0140783D01*
X0147300Y0140184D02*
X0177577Y0140184D01*
X0178176Y0139586D02*
X0147300Y0139586D01*
X0147300Y0138987D02*
X0178774Y0138987D01*
X0179373Y0138389D02*
X0147300Y0138389D01*
X0147300Y0137790D02*
X0179971Y0137790D01*
X0180570Y0137192D02*
X0147300Y0137192D01*
X0147300Y0136593D02*
X0183028Y0136593D01*
X0183276Y0135995D02*
X0147444Y0135995D01*
X0149174Y0135396D02*
X0183698Y0135396D01*
X0184297Y0134798D02*
X0149772Y0134798D01*
X0149900Y0134199D02*
X0185180Y0134199D01*
X0189420Y0134199D02*
X0191000Y0134199D01*
X0191000Y0133601D02*
X0149900Y0133601D01*
X0149900Y0133002D02*
X0191000Y0133002D01*
X0191000Y0132404D02*
X0149374Y0132404D01*
X0148775Y0131805D02*
X0191000Y0131805D01*
X0191000Y0131207D02*
X0148232Y0131207D01*
X0149552Y0130608D02*
X0190770Y0130608D01*
X0190171Y0130010D02*
X0150019Y0130010D01*
X0150019Y0129411D02*
X0185205Y0129411D01*
X0184307Y0128813D02*
X0150019Y0128813D01*
X0150019Y0128214D02*
X0183709Y0128214D01*
X0183280Y0127616D02*
X0150019Y0127616D01*
X0150019Y0127017D02*
X0183032Y0127017D01*
X0182784Y0126419D02*
X0150019Y0126419D01*
X0150019Y0125820D02*
X0182700Y0125820D01*
X0182700Y0125222D02*
X0149782Y0125222D01*
X0148914Y0124025D02*
X0182849Y0124025D01*
X0182700Y0124623D02*
X0148315Y0124623D01*
X0149512Y0123426D02*
X0183097Y0123426D01*
X0183345Y0122828D02*
X0150111Y0122828D01*
X0150709Y0122229D02*
X0183866Y0122229D01*
X0184464Y0121631D02*
X0151308Y0121631D01*
X0151600Y0121032D02*
X0185583Y0121032D01*
X0189017Y0121032D02*
X0195583Y0121032D01*
X0194464Y0121631D02*
X0190136Y0121631D01*
X0190734Y0122229D02*
X0193866Y0122229D01*
X0193345Y0122828D02*
X0191255Y0122828D01*
X0191503Y0123426D02*
X0193097Y0123426D01*
X0192849Y0124025D02*
X0191751Y0124025D01*
X0191900Y0124623D02*
X0192700Y0124623D01*
X0192700Y0125222D02*
X0191900Y0125222D01*
X0191900Y0125820D02*
X0192700Y0125820D01*
X0192784Y0126419D02*
X0191816Y0126419D01*
X0191568Y0127017D02*
X0193032Y0127017D01*
X0193280Y0127616D02*
X0191454Y0127616D01*
X0192053Y0128214D02*
X0193709Y0128214D01*
X0194307Y0128813D02*
X0192651Y0128813D01*
X0193250Y0129411D02*
X0195205Y0129411D01*
X0193600Y0130010D02*
X0201000Y0130010D01*
X0201000Y0130608D02*
X0193600Y0130608D01*
X0193600Y0131207D02*
X0201000Y0131207D01*
X0201000Y0131805D02*
X0193600Y0131805D01*
X0193600Y0132404D02*
X0201000Y0132404D01*
X0201000Y0133002D02*
X0193600Y0133002D01*
X0193600Y0133601D02*
X0201000Y0133601D01*
X0201000Y0134199D02*
X0199420Y0134199D01*
X0200303Y0134798D02*
X0201000Y0134798D01*
X0201000Y0135396D02*
X0200902Y0135396D01*
X0203600Y0135396D02*
X0221500Y0135396D01*
X0221500Y0134798D02*
X0203600Y0134798D01*
X0203600Y0134199D02*
X0221500Y0134199D01*
X0221500Y0133601D02*
X0203600Y0133601D01*
X0203600Y0133002D02*
X0221500Y0133002D01*
X0221500Y0132404D02*
X0203600Y0132404D01*
X0203600Y0131805D02*
X0221500Y0131805D01*
X0221500Y0131207D02*
X0203600Y0131207D01*
X0203600Y0130608D02*
X0221500Y0130608D01*
X0221500Y0130010D02*
X0203600Y0130010D01*
X0203600Y0129411D02*
X0221500Y0129411D01*
X0221500Y0128813D02*
X0203600Y0128813D01*
X0203600Y0128214D02*
X0221500Y0128214D01*
X0221500Y0127616D02*
X0203600Y0127616D01*
X0203600Y0127017D02*
X0221500Y0127017D01*
X0221500Y0126419D02*
X0203600Y0126419D01*
X0203600Y0125820D02*
X0221500Y0125820D01*
X0221500Y0125222D02*
X0203600Y0125222D01*
X0203600Y0124623D02*
X0221500Y0124623D01*
X0221500Y0124025D02*
X0203600Y0124025D01*
X0203600Y0123426D02*
X0221500Y0123426D01*
X0221500Y0122828D02*
X0203600Y0122828D01*
X0203600Y0122229D02*
X0221500Y0122229D01*
X0221500Y0121631D02*
X0203600Y0121631D01*
X0203600Y0121032D02*
X0221500Y0121032D01*
X0221500Y0120434D02*
X0203600Y0120434D01*
X0203173Y0119835D02*
X0221500Y0119835D01*
X0221500Y0119237D02*
X0202575Y0119237D01*
X0201976Y0118638D02*
X0221500Y0118638D01*
X0221500Y0118039D02*
X0201378Y0118039D01*
X0199799Y0116244D02*
X0221500Y0116244D01*
X0221500Y0116842D02*
X0198354Y0116842D01*
X0196246Y0116842D02*
X0193681Y0116842D01*
X0193082Y0116244D02*
X0194801Y0116244D01*
X0194140Y0115645D02*
X0192484Y0115645D01*
X0191885Y0115047D02*
X0193542Y0115047D01*
X0193211Y0114448D02*
X0191389Y0114448D01*
X0191637Y0113850D02*
X0192963Y0113850D01*
X0192715Y0113251D02*
X0191885Y0113251D01*
X0191900Y0112653D02*
X0192700Y0112653D01*
X0192700Y0112054D02*
X0191900Y0112054D01*
X0191900Y0111456D02*
X0192700Y0111456D01*
X0192919Y0110857D02*
X0191681Y0110857D01*
X0191434Y0110259D02*
X0193166Y0110259D01*
X0193434Y0109660D02*
X0191166Y0109660D01*
X0190567Y0109062D02*
X0194033Y0109062D01*
X0194493Y0108463D02*
X0189969Y0108463D01*
X0188758Y0103675D02*
X0195842Y0103675D01*
X0196244Y0104274D02*
X0227931Y0104274D01*
X0227931Y0104872D02*
X0196842Y0104872D01*
X0197441Y0105471D02*
X0227931Y0105471D01*
X0227931Y0105472D02*
X0227931Y0101971D01*
X0228459Y0101443D01*
X0235110Y0101443D01*
X0235637Y0101971D01*
X0235637Y0105472D01*
X0235110Y0105999D01*
X0228459Y0105999D01*
X0227931Y0105472D01*
X0228459Y0106168D02*
X0235110Y0106168D01*
X0235637Y0106695D01*
X0235637Y0110196D01*
X0235110Y0110724D01*
X0228459Y0110724D01*
X0227931Y0110196D01*
X0227931Y0109746D01*
X0227193Y0109746D01*
X0224100Y0112838D01*
X0224100Y0114162D01*
X0226391Y0111870D01*
X0227931Y0111870D01*
X0227931Y0111419D01*
X0228459Y0110892D01*
X0235110Y0110892D01*
X0235637Y0111419D01*
X0235637Y0114921D01*
X0235110Y0115448D01*
X0228459Y0115448D01*
X0227931Y0114921D01*
X0227931Y0114470D01*
X0227468Y0114470D01*
X0225600Y0116338D01*
X0225600Y0134262D01*
X0226431Y0135093D01*
X0226431Y0134415D01*
X0226959Y0133888D01*
X0231641Y0133888D01*
X0232168Y0134415D01*
X0232168Y0135654D01*
X0234431Y0135654D01*
X0234431Y0134415D01*
X0234959Y0133888D01*
X0239641Y0133888D01*
X0240168Y0134415D01*
X0240168Y0139492D01*
X0239641Y0140019D01*
X0234959Y0140019D01*
X0234431Y0139492D01*
X0234431Y0138254D01*
X0232168Y0138254D01*
X0232168Y0139492D01*
X0231641Y0140019D01*
X0226959Y0140019D01*
X0226431Y0139492D01*
X0226431Y0138254D01*
X0225915Y0138254D01*
X0224100Y0136438D01*
X0224100Y0146819D01*
X0226388Y0149490D01*
X0237652Y0149490D01*
X0236000Y0147838D01*
X0236000Y0146712D01*
X0234959Y0146712D01*
X0234431Y0146185D01*
X0234431Y0141108D01*
X0234959Y0140581D01*
X0239641Y0140581D01*
X0240168Y0141108D01*
X0240168Y0146185D01*
X0239641Y0146712D01*
X0238600Y0146712D01*
X0238600Y0146762D01*
X0247600Y0155762D01*
X0247600Y0208751D01*
X0248962Y0209316D01*
X0250284Y0210638D01*
X0251000Y0212365D01*
X0251000Y0214235D01*
X0250284Y0215962D01*
X0248962Y0217284D01*
X0247235Y0218000D01*
X0245365Y0218000D01*
X0243638Y0217284D01*
X0242600Y0216247D01*
X0242600Y0217262D01*
X0243838Y0218500D01*
X0253762Y0218500D01*
X0254585Y0217677D01*
X0253638Y0217284D01*
X0252316Y0215962D01*
X0251600Y0214235D01*
X0251600Y0212365D01*
X0252316Y0210638D01*
X0253638Y0209316D01*
X0255365Y0208600D01*
X0257235Y0208600D01*
X0258962Y0209316D01*
X0260284Y0210638D01*
X0261000Y0212365D01*
X0261000Y0214235D01*
X0260284Y0215962D01*
X0258962Y0217284D01*
X0257600Y0217849D01*
X0257600Y0218338D01*
X0255600Y0220338D01*
X0254838Y0221100D01*
X0242762Y0221100D01*
X0240762Y0219100D01*
X0240000Y0218338D01*
X0240000Y0216247D01*
X0238962Y0217284D01*
X0237235Y0218000D01*
X0235365Y0218000D01*
X0233638Y0217284D01*
X0232316Y0215962D01*
X0231600Y0214235D01*
X0231600Y0212365D01*
X0232316Y0210638D01*
X0233638Y0209316D01*
X0235365Y0208600D01*
X0237235Y0208600D01*
X0238962Y0209316D01*
X0240000Y0210353D01*
X0240000Y0210262D01*
X0243600Y0206662D01*
X0243600Y0157418D01*
X0238272Y0152090D01*
X0226271Y0152090D01*
X0226227Y0152128D01*
X0225740Y0152090D01*
X0225251Y0152090D01*
X0225211Y0152049D01*
X0225153Y0152045D01*
X0224835Y0151674D01*
X0224490Y0151328D01*
X0224490Y0151271D01*
X0221845Y0148184D01*
X0221500Y0147838D01*
X0221500Y0147781D01*
X0221462Y0147737D01*
X0221500Y0147250D01*
X0221500Y0111762D01*
X0226116Y0107146D01*
X0227931Y0107146D01*
X0227931Y0106695D01*
X0228459Y0106168D01*
X0227959Y0106668D02*
X0198638Y0106668D01*
X0199236Y0107266D02*
X0225995Y0107266D01*
X0225397Y0107865D02*
X0199400Y0107865D01*
X0199969Y0108463D02*
X0224798Y0108463D01*
X0224200Y0109062D02*
X0200567Y0109062D01*
X0201166Y0109660D02*
X0223601Y0109660D01*
X0223003Y0110259D02*
X0201434Y0110259D01*
X0201681Y0110857D02*
X0222404Y0110857D01*
X0221806Y0111456D02*
X0201900Y0111456D01*
X0201900Y0112054D02*
X0221500Y0112054D01*
X0221500Y0112653D02*
X0201900Y0112653D01*
X0201885Y0113251D02*
X0221500Y0113251D01*
X0221500Y0113850D02*
X0201637Y0113850D01*
X0201389Y0114448D02*
X0221500Y0114448D01*
X0221500Y0115047D02*
X0201058Y0115047D01*
X0200460Y0115645D02*
X0221500Y0115645D01*
X0221500Y0117441D02*
X0194279Y0117441D01*
X0192398Y0119237D02*
X0151600Y0119237D01*
X0151600Y0119835D02*
X0192997Y0119835D01*
X0191800Y0118638D02*
X0151600Y0118638D01*
X0151600Y0118039D02*
X0191201Y0118039D01*
X0190603Y0117441D02*
X0151600Y0117441D01*
X0151600Y0116842D02*
X0186246Y0116842D01*
X0184801Y0116244D02*
X0151600Y0116244D01*
X0151600Y0115645D02*
X0184140Y0115645D01*
X0183542Y0115047D02*
X0151600Y0115047D01*
X0151600Y0114448D02*
X0183211Y0114448D01*
X0182963Y0113850D02*
X0151600Y0113850D01*
X0151600Y0113251D02*
X0182715Y0113251D01*
X0182700Y0112653D02*
X0151600Y0112653D01*
X0151600Y0112054D02*
X0182700Y0112054D01*
X0182700Y0111456D02*
X0151600Y0111456D01*
X0151600Y0110857D02*
X0182919Y0110857D01*
X0183166Y0110259D02*
X0151600Y0110259D01*
X0151600Y0109660D02*
X0183434Y0109660D01*
X0184033Y0109062D02*
X0151400Y0109062D01*
X0150802Y0108463D02*
X0184631Y0108463D01*
X0185902Y0103700D02*
X0184694Y0103200D01*
X0183400Y0101906D01*
X0182700Y0100215D01*
X0182700Y0098385D01*
X0183400Y0096694D01*
X0184694Y0095400D01*
X0186385Y0094700D01*
X0188215Y0094700D01*
X0189521Y0095241D01*
X0190962Y0093800D01*
X0190500Y0093338D01*
X0188062Y0090900D01*
X0186385Y0090900D01*
X0184694Y0090200D01*
X0183400Y0088906D01*
X0182700Y0087215D01*
X0182700Y0085385D01*
X0183400Y0083694D01*
X0184694Y0082400D01*
X0186385Y0081700D01*
X0188215Y0081700D01*
X0189906Y0082400D01*
X0191200Y0083694D01*
X0191900Y0085385D01*
X0191900Y0087215D01*
X0191200Y0088906D01*
X0190472Y0089633D01*
X0192338Y0091500D01*
X0208262Y0091500D01*
X0212500Y0087262D01*
X0212500Y0032762D01*
X0217280Y0027981D01*
X0217235Y0028000D01*
X0215365Y0028000D01*
X0213638Y0027284D01*
X0212316Y0025962D01*
X0211600Y0024235D01*
X0211600Y0022550D01*
X0211000Y0023150D01*
X0211000Y0024235D01*
X0210284Y0025962D01*
X0208962Y0027284D01*
X0207235Y0028000D01*
X0205365Y0028000D01*
X0203638Y0027284D01*
X0202316Y0025962D01*
X0201600Y0024235D01*
X0201600Y0022365D01*
X0202316Y0020638D01*
X0203638Y0019316D01*
X0205365Y0018600D01*
X0207235Y0018600D01*
X0208962Y0019316D01*
X0210060Y0020413D01*
X0214612Y0015862D01*
X0215334Y0015139D01*
X0183249Y0015139D01*
X0186710Y0018600D01*
X0187235Y0018600D01*
X0188962Y0019316D01*
X0190284Y0020638D01*
X0191000Y0022365D01*
X0191000Y0024235D01*
X0190284Y0025962D01*
X0188962Y0027284D01*
X0187235Y0028000D01*
X0185365Y0028000D01*
X0183638Y0027284D01*
X0182316Y0025962D01*
X0181600Y0024235D01*
X0181600Y0022365D01*
X0182316Y0020638D01*
X0182562Y0020392D01*
X0181180Y0019010D01*
X0158225Y0019010D01*
X0158962Y0019316D01*
X0160284Y0020638D01*
X0161000Y0022365D01*
X0161000Y0024235D01*
X0160284Y0025962D01*
X0158962Y0027284D01*
X0157235Y0028000D01*
X0155365Y0028000D01*
X0153638Y0027284D01*
X0152316Y0025962D01*
X0151600Y0024235D01*
X0151600Y0022365D01*
X0152316Y0020638D01*
X0153638Y0019316D01*
X0154375Y0019010D01*
X0148225Y0019010D01*
X0148962Y0019316D01*
X0150284Y0020638D01*
X0151000Y0022365D01*
X0151000Y0024235D01*
X0150284Y0025962D01*
X0148962Y0027284D01*
X0147235Y0028000D01*
X0145438Y0028000D01*
X0141946Y0031492D01*
X0141946Y0039431D01*
X0143185Y0039431D01*
X0143712Y0039959D01*
X0143712Y0044641D01*
X0143185Y0045168D01*
X0142100Y0045168D01*
X0142100Y0046338D01*
X0141519Y0046920D01*
X0141996Y0046920D01*
X0142523Y0047447D01*
X0142523Y0048882D01*
X0143720Y0048882D01*
X0147838Y0053000D01*
X0190838Y0053000D01*
X0191600Y0053762D01*
X0193600Y0055762D01*
X0193600Y0057495D01*
X0194694Y0056400D01*
X0196385Y0055700D01*
X0198215Y0055700D01*
X0199906Y0056400D01*
X0201200Y0057694D01*
X0201900Y0059385D01*
X0201900Y0061215D01*
X0201200Y0062906D01*
X0199906Y0064200D01*
X0198215Y0064900D01*
X0196385Y0064900D01*
X0194694Y0064200D01*
X0193600Y0063105D01*
X0193600Y0068838D01*
X0191359Y0071079D01*
X0191900Y0072385D01*
X0191900Y0074215D01*
X0191200Y0075906D01*
X0189906Y0077200D01*
X0188215Y0077900D01*
X0186385Y0077900D01*
X0184694Y0077200D01*
X0183400Y0075906D01*
X0182700Y0074215D01*
X0182700Y0072385D01*
X0183400Y0070694D01*
X0184694Y0069400D01*
X0186385Y0068700D01*
X0188215Y0068700D01*
X0189521Y0069241D01*
X0191000Y0067762D01*
X0191000Y0063105D01*
X0189906Y0064200D01*
X0188600Y0064741D01*
X0188600Y0064838D01*
X0186100Y0067338D01*
X0185338Y0068100D01*
X0149338Y0068100D01*
X0148100Y0069338D01*
X0147338Y0070100D01*
X0146212Y0070100D01*
X0146212Y0071141D01*
X0145685Y0071668D01*
X0140608Y0071668D01*
X0140081Y0071141D01*
X0140081Y0066459D01*
X0140351Y0066189D01*
X0139240Y0065079D01*
X0139240Y0063680D01*
X0139085Y0063680D01*
X0138670Y0063266D01*
X0138255Y0063680D01*
X0138100Y0063680D01*
X0138100Y0065931D01*
X0138992Y0065931D01*
X0139519Y0066459D01*
X0139519Y0071141D01*
X0138992Y0071668D01*
X0133915Y0071668D01*
X0133388Y0071141D01*
X0133388Y0066459D01*
X0133915Y0065931D01*
X0135500Y0065931D01*
X0135500Y0063680D01*
X0135345Y0063680D01*
X0134930Y0063266D01*
X0134515Y0063680D01*
X0134360Y0063680D01*
X0134360Y0064079D01*
X0132600Y0065838D01*
X0132600Y0071262D01*
X0134338Y0073000D01*
X0172700Y0073000D01*
X0172700Y0072385D01*
X0173400Y0070694D01*
X0174694Y0069400D01*
X0176385Y0068700D01*
X0178215Y0068700D01*
X0179906Y0069400D01*
X0181200Y0070694D01*
X0181900Y0072385D01*
X0181900Y0074215D01*
X0181200Y0075906D01*
X0179906Y0077200D01*
X0178215Y0077900D01*
X0176385Y0077900D01*
X0174694Y0077200D01*
X0173400Y0075906D01*
X0173274Y0075600D01*
X0133570Y0075600D01*
X0161670Y0103700D01*
X0185902Y0103700D01*
X0185842Y0103675D02*
X0161645Y0103675D01*
X0161047Y0103077D02*
X0184571Y0103077D01*
X0183973Y0102478D02*
X0160448Y0102478D01*
X0159850Y0101880D02*
X0183390Y0101880D01*
X0183142Y0101281D02*
X0159251Y0101281D01*
X0158652Y0100683D02*
X0182894Y0100683D01*
X0182700Y0100084D02*
X0158054Y0100084D01*
X0157455Y0099486D02*
X0182700Y0099486D01*
X0182700Y0098887D02*
X0156857Y0098887D01*
X0156258Y0098289D02*
X0182740Y0098289D01*
X0182988Y0097690D02*
X0155660Y0097690D01*
X0155061Y0097092D02*
X0183236Y0097092D01*
X0183602Y0096493D02*
X0154463Y0096493D01*
X0153864Y0095895D02*
X0184200Y0095895D01*
X0184946Y0095296D02*
X0153266Y0095296D01*
X0152667Y0094698D02*
X0190064Y0094698D01*
X0190662Y0094099D02*
X0152069Y0094099D01*
X0151470Y0093501D02*
X0190662Y0093501D01*
X0190064Y0092902D02*
X0150872Y0092902D01*
X0150273Y0092303D02*
X0189465Y0092303D01*
X0188867Y0091705D02*
X0149675Y0091705D01*
X0149076Y0091106D02*
X0188268Y0091106D01*
X0190748Y0089909D02*
X0194404Y0089909D01*
X0194694Y0090200D02*
X0193400Y0088906D01*
X0192700Y0087215D01*
X0192700Y0085385D01*
X0193400Y0083694D01*
X0194694Y0082400D01*
X0195200Y0082191D01*
X0195200Y0077409D01*
X0194694Y0077200D01*
X0193400Y0075906D01*
X0192700Y0074215D01*
X0192700Y0072385D01*
X0193400Y0070694D01*
X0194694Y0069400D01*
X0196385Y0068700D01*
X0198215Y0068700D01*
X0199906Y0069400D01*
X0201200Y0070694D01*
X0201900Y0072385D01*
X0201900Y0074215D01*
X0201200Y0075906D01*
X0199906Y0077200D01*
X0199400Y0077409D01*
X0199400Y0082191D01*
X0199906Y0082400D01*
X0201200Y0083694D01*
X0201900Y0085385D01*
X0201900Y0087215D01*
X0201200Y0088906D01*
X0199906Y0090200D01*
X0198215Y0090900D01*
X0196385Y0090900D01*
X0194694Y0090200D01*
X0195439Y0090508D02*
X0191346Y0090508D01*
X0191945Y0091106D02*
X0208655Y0091106D01*
X0209254Y0090508D02*
X0199161Y0090508D01*
X0200196Y0089909D02*
X0209852Y0089909D01*
X0210451Y0089311D02*
X0200794Y0089311D01*
X0201280Y0088712D02*
X0211049Y0088712D01*
X0211648Y0088114D02*
X0201528Y0088114D01*
X0201776Y0087515D02*
X0212246Y0087515D01*
X0212500Y0086917D02*
X0201900Y0086917D01*
X0201900Y0086318D02*
X0212500Y0086318D01*
X0212500Y0085720D02*
X0201900Y0085720D01*
X0201791Y0085121D02*
X0212500Y0085121D01*
X0212500Y0084523D02*
X0201543Y0084523D01*
X0201295Y0083924D02*
X0212500Y0083924D01*
X0212500Y0083326D02*
X0200831Y0083326D01*
X0200233Y0082727D02*
X0212500Y0082727D01*
X0212500Y0082129D02*
X0199400Y0082129D01*
X0199400Y0081530D02*
X0212500Y0081530D01*
X0212500Y0080932D02*
X0199400Y0080932D01*
X0199400Y0080333D02*
X0212500Y0080333D01*
X0212500Y0079735D02*
X0199400Y0079735D01*
X0199400Y0079136D02*
X0212500Y0079136D01*
X0212500Y0078538D02*
X0199400Y0078538D01*
X0199400Y0077939D02*
X0212500Y0077939D01*
X0212500Y0077341D02*
X0199565Y0077341D01*
X0200363Y0076742D02*
X0212500Y0076742D01*
X0212500Y0076144D02*
X0200962Y0076144D01*
X0201349Y0075545D02*
X0212500Y0075545D01*
X0212500Y0074947D02*
X0201597Y0074947D01*
X0201845Y0074348D02*
X0212500Y0074348D01*
X0212500Y0073750D02*
X0201900Y0073750D01*
X0201900Y0073151D02*
X0212500Y0073151D01*
X0212500Y0072553D02*
X0201900Y0072553D01*
X0201722Y0071954D02*
X0212500Y0071954D01*
X0212500Y0071356D02*
X0201474Y0071356D01*
X0201226Y0070757D02*
X0212500Y0070757D01*
X0212500Y0070159D02*
X0200664Y0070159D01*
X0200065Y0069560D02*
X0212500Y0069560D01*
X0212500Y0068962D02*
X0198846Y0068962D01*
X0195754Y0068962D02*
X0193477Y0068962D01*
X0193600Y0068363D02*
X0212500Y0068363D01*
X0212500Y0067765D02*
X0193600Y0067765D01*
X0193600Y0067166D02*
X0212500Y0067166D01*
X0212500Y0066568D02*
X0193600Y0066568D01*
X0193600Y0065969D02*
X0212500Y0065969D01*
X0212500Y0065370D02*
X0193600Y0065370D01*
X0193600Y0064772D02*
X0196076Y0064772D01*
X0194668Y0064173D02*
X0193600Y0064173D01*
X0193600Y0063575D02*
X0194070Y0063575D01*
X0191000Y0063575D02*
X0190530Y0063575D01*
X0191000Y0064173D02*
X0189932Y0064173D01*
X0191000Y0064772D02*
X0188600Y0064772D01*
X0188068Y0065370D02*
X0191000Y0065370D01*
X0191000Y0065969D02*
X0187469Y0065969D01*
X0186871Y0066568D02*
X0191000Y0066568D01*
X0191000Y0067166D02*
X0186272Y0067166D01*
X0185674Y0067765D02*
X0190997Y0067765D01*
X0190398Y0068363D02*
X0149075Y0068363D01*
X0148477Y0068962D02*
X0175754Y0068962D01*
X0174535Y0069560D02*
X0147878Y0069560D01*
X0146212Y0070159D02*
X0173936Y0070159D01*
X0173374Y0070757D02*
X0146212Y0070757D01*
X0145997Y0071356D02*
X0173126Y0071356D01*
X0172878Y0071954D02*
X0133293Y0071954D01*
X0133602Y0071356D02*
X0132694Y0071356D01*
X0132600Y0070757D02*
X0133388Y0070757D01*
X0133388Y0070159D02*
X0132600Y0070159D01*
X0132600Y0069560D02*
X0133388Y0069560D01*
X0133388Y0068962D02*
X0132600Y0068962D01*
X0132600Y0068363D02*
X0133388Y0068363D01*
X0133388Y0067765D02*
X0132600Y0067765D01*
X0132600Y0067166D02*
X0133388Y0067166D01*
X0133388Y0066568D02*
X0132600Y0066568D01*
X0132600Y0065969D02*
X0133878Y0065969D01*
X0133068Y0065370D02*
X0135500Y0065370D01*
X0135500Y0064772D02*
X0133666Y0064772D01*
X0134265Y0064173D02*
X0135500Y0064173D01*
X0135239Y0063575D02*
X0134621Y0063575D01*
X0138100Y0064173D02*
X0139240Y0064173D01*
X0139240Y0064772D02*
X0138100Y0064772D01*
X0138100Y0065370D02*
X0139532Y0065370D01*
X0139029Y0065969D02*
X0140131Y0065969D01*
X0140081Y0066568D02*
X0139519Y0066568D01*
X0139519Y0067166D02*
X0140081Y0067166D01*
X0140081Y0067765D02*
X0139519Y0067765D01*
X0139519Y0068363D02*
X0140081Y0068363D01*
X0140081Y0068962D02*
X0139519Y0068962D01*
X0139519Y0069560D02*
X0140081Y0069560D01*
X0140081Y0070159D02*
X0139519Y0070159D01*
X0139519Y0070757D02*
X0140081Y0070757D01*
X0140295Y0071356D02*
X0139305Y0071356D01*
X0133891Y0072553D02*
X0172700Y0072553D01*
X0173638Y0076144D02*
X0134114Y0076144D01*
X0134712Y0076742D02*
X0174237Y0076742D01*
X0175035Y0077341D02*
X0135311Y0077341D01*
X0135909Y0077939D02*
X0195200Y0077939D01*
X0195200Y0078538D02*
X0136508Y0078538D01*
X0137106Y0079136D02*
X0195200Y0079136D01*
X0195200Y0079735D02*
X0137705Y0079735D01*
X0138303Y0080333D02*
X0195200Y0080333D01*
X0195200Y0080932D02*
X0138902Y0080932D01*
X0139500Y0081530D02*
X0195200Y0081530D01*
X0195200Y0082129D02*
X0189250Y0082129D01*
X0190233Y0082727D02*
X0194367Y0082727D01*
X0193769Y0083326D02*
X0190831Y0083326D01*
X0191295Y0083924D02*
X0193305Y0083924D01*
X0193057Y0084523D02*
X0191543Y0084523D01*
X0191791Y0085121D02*
X0192809Y0085121D01*
X0192700Y0085720D02*
X0191900Y0085720D01*
X0191900Y0086318D02*
X0192700Y0086318D01*
X0192700Y0086917D02*
X0191900Y0086917D01*
X0191776Y0087515D02*
X0192824Y0087515D01*
X0193072Y0088114D02*
X0191528Y0088114D01*
X0191280Y0088712D02*
X0193320Y0088712D01*
X0193806Y0089311D02*
X0190794Y0089311D01*
X0185439Y0090508D02*
X0148478Y0090508D01*
X0147879Y0089909D02*
X0184404Y0089909D01*
X0183806Y0089311D02*
X0147281Y0089311D01*
X0146682Y0088712D02*
X0183320Y0088712D01*
X0183072Y0088114D02*
X0146084Y0088114D01*
X0145485Y0087515D02*
X0182824Y0087515D01*
X0182700Y0086917D02*
X0144887Y0086917D01*
X0144288Y0086318D02*
X0182700Y0086318D01*
X0182700Y0085720D02*
X0143690Y0085720D01*
X0143091Y0085121D02*
X0182809Y0085121D01*
X0183057Y0084523D02*
X0142493Y0084523D01*
X0141894Y0083924D02*
X0183305Y0083924D01*
X0183769Y0083326D02*
X0141296Y0083326D01*
X0140697Y0082727D02*
X0184367Y0082727D01*
X0185350Y0082129D02*
X0140099Y0082129D01*
X0137152Y0085121D02*
X0067360Y0085121D01*
X0066642Y0084523D02*
X0136553Y0084523D01*
X0135954Y0083924D02*
X0065924Y0083924D01*
X0065205Y0083326D02*
X0135356Y0083326D01*
X0134757Y0082727D02*
X0064500Y0082727D01*
X0064500Y0082129D02*
X0134159Y0082129D01*
X0133560Y0081530D02*
X0064500Y0081530D01*
X0064500Y0080932D02*
X0132962Y0080932D01*
X0132363Y0080333D02*
X0064500Y0080333D01*
X0064500Y0079735D02*
X0131765Y0079735D01*
X0131166Y0079136D02*
X0093802Y0079136D01*
X0094100Y0078538D02*
X0130568Y0078538D01*
X0129969Y0077939D02*
X0094100Y0077939D01*
X0094100Y0077341D02*
X0129371Y0077341D01*
X0128772Y0076742D02*
X0094100Y0076742D01*
X0094100Y0076144D02*
X0128174Y0076144D01*
X0127575Y0075545D02*
X0094100Y0075545D01*
X0094100Y0074947D02*
X0126977Y0074947D01*
X0126378Y0074348D02*
X0094100Y0074348D01*
X0094100Y0073750D02*
X0125780Y0073750D01*
X0125181Y0073151D02*
X0094100Y0073151D01*
X0094100Y0072553D02*
X0124583Y0072553D01*
X0123984Y0071954D02*
X0094100Y0071954D01*
X0094100Y0071356D02*
X0123386Y0071356D01*
X0122787Y0070757D02*
X0094100Y0070757D01*
X0094100Y0070159D02*
X0122189Y0070159D01*
X0121590Y0069560D02*
X0094100Y0069560D01*
X0094100Y0068962D02*
X0120992Y0068962D01*
X0120393Y0068363D02*
X0094100Y0068363D01*
X0094100Y0067765D02*
X0119795Y0067765D01*
X0122742Y0064772D02*
X0130000Y0064772D01*
X0130000Y0065370D02*
X0123340Y0065370D01*
X0123939Y0065969D02*
X0130000Y0065969D01*
X0130000Y0066568D02*
X0124537Y0066568D01*
X0125136Y0067166D02*
X0130000Y0067166D01*
X0130000Y0067765D02*
X0125734Y0067765D01*
X0126333Y0068363D02*
X0130000Y0068363D01*
X0130000Y0068962D02*
X0126931Y0068962D01*
X0127530Y0069560D02*
X0130000Y0069560D01*
X0130000Y0070159D02*
X0128128Y0070159D01*
X0128727Y0070757D02*
X0130000Y0070757D01*
X0130000Y0071356D02*
X0129325Y0071356D01*
X0129924Y0071954D02*
X0130000Y0071954D01*
X0130588Y0064173D02*
X0122143Y0064173D01*
X0121545Y0063575D02*
X0131187Y0063575D01*
X0131077Y0062976D02*
X0094100Y0062976D01*
X0094100Y0062378D02*
X0131077Y0062378D01*
X0131077Y0061779D02*
X0094100Y0061779D01*
X0094100Y0061181D02*
X0131077Y0061181D01*
X0131077Y0060582D02*
X0093921Y0060582D01*
X0070179Y0060582D02*
X0065653Y0060582D01*
X0065653Y0059984D02*
X0131077Y0059984D01*
X0131077Y0059385D02*
X0065653Y0059385D01*
X0065241Y0058787D02*
X0131077Y0058787D01*
X0131077Y0058188D02*
X0007899Y0058188D01*
X0007899Y0057590D02*
X0131170Y0057590D01*
X0131561Y0053400D02*
X0065653Y0053400D01*
X0065653Y0052802D02*
X0131077Y0052802D01*
X0131077Y0052203D02*
X0065653Y0052203D01*
X0065653Y0051605D02*
X0127983Y0051605D01*
X0126536Y0051006D02*
X0065653Y0051006D01*
X0065653Y0050408D02*
X0125938Y0050408D01*
X0125700Y0049809D02*
X0065653Y0049809D01*
X0065653Y0049211D02*
X0125700Y0049211D01*
X0125700Y0048612D02*
X0065653Y0048612D01*
X0065491Y0048014D02*
X0126116Y0048014D01*
X0126715Y0047415D02*
X0063310Y0047415D01*
X0063310Y0046817D02*
X0131760Y0046817D01*
X0131760Y0046218D02*
X0063310Y0046218D01*
X0063310Y0045620D02*
X0131760Y0045620D01*
X0131268Y0045021D02*
X0063310Y0045021D01*
X0063455Y0044423D02*
X0130888Y0044423D01*
X0130888Y0043824D02*
X0064054Y0043824D01*
X0064652Y0043226D02*
X0130888Y0043226D01*
X0130888Y0042627D02*
X0065251Y0042627D01*
X0065849Y0042029D02*
X0130888Y0042029D01*
X0130888Y0041430D02*
X0066448Y0041430D01*
X0067047Y0040832D02*
X0130888Y0040832D01*
X0130888Y0040233D02*
X0067645Y0040233D01*
X0068244Y0039634D02*
X0131212Y0039634D01*
X0136695Y0039634D02*
X0137905Y0039634D01*
X0137581Y0040233D02*
X0137019Y0040233D01*
X0137019Y0040832D02*
X0137581Y0040832D01*
X0137581Y0041430D02*
X0137019Y0041430D01*
X0137019Y0042029D02*
X0137581Y0042029D01*
X0137581Y0042627D02*
X0137019Y0042627D01*
X0137019Y0043226D02*
X0137581Y0043226D01*
X0137581Y0043824D02*
X0137019Y0043824D01*
X0137019Y0044423D02*
X0137581Y0044423D01*
X0136740Y0045021D02*
X0136639Y0045021D01*
X0136142Y0045620D02*
X0135254Y0045620D01*
X0135543Y0046218D02*
X0134720Y0046218D01*
X0134360Y0046817D02*
X0135500Y0046817D01*
X0131109Y0047415D02*
X0128885Y0047415D01*
X0129484Y0048014D02*
X0131077Y0048014D01*
X0131077Y0048612D02*
X0129900Y0048612D01*
X0134559Y0053400D02*
X0135301Y0053400D01*
X0135500Y0053999D02*
X0065653Y0053999D01*
X0065653Y0054597D02*
X0135500Y0054597D01*
X0135500Y0055196D02*
X0065653Y0055196D01*
X0057179Y0058787D02*
X0007899Y0058787D01*
X0007899Y0059385D02*
X0056767Y0059385D01*
X0056767Y0059984D02*
X0007899Y0059984D01*
X0007899Y0060582D02*
X0056767Y0060582D01*
X0056767Y0061181D02*
X0007899Y0061181D01*
X0007899Y0061779D02*
X0056767Y0061779D01*
X0056767Y0062378D02*
X0007899Y0062378D01*
X0007899Y0062976D02*
X0056767Y0062976D01*
X0056767Y0063575D02*
X0007899Y0063575D01*
X0007899Y0064173D02*
X0056767Y0064173D01*
X0056767Y0064772D02*
X0007899Y0064772D01*
X0007899Y0065370D02*
X0056767Y0065370D01*
X0056767Y0065969D02*
X0007899Y0065969D01*
X0007899Y0066568D02*
X0057090Y0066568D01*
X0059110Y0067166D02*
X0007899Y0067166D01*
X0007899Y0067765D02*
X0059110Y0067765D01*
X0059110Y0068363D02*
X0007899Y0068363D01*
X0007899Y0068962D02*
X0059110Y0068962D01*
X0059110Y0069560D02*
X0007899Y0069560D01*
X0007899Y0070159D02*
X0059110Y0070159D01*
X0059110Y0070757D02*
X0007899Y0070757D01*
X0007899Y0071356D02*
X0034547Y0071356D01*
X0033949Y0071954D02*
X0007899Y0071954D01*
X0007899Y0072553D02*
X0033350Y0072553D01*
X0032752Y0073151D02*
X0007899Y0073151D01*
X0007899Y0073750D02*
X0032153Y0073750D01*
X0032100Y0074348D02*
X0007899Y0074348D01*
X0007899Y0074947D02*
X0032100Y0074947D01*
X0032100Y0075545D02*
X0007899Y0075545D01*
X0007899Y0076144D02*
X0032100Y0076144D01*
X0032100Y0076742D02*
X0007899Y0076742D01*
X0007899Y0077341D02*
X0032100Y0077341D01*
X0032100Y0077939D02*
X0007899Y0077939D01*
X0007899Y0078538D02*
X0032100Y0078538D01*
X0032100Y0079136D02*
X0007899Y0079136D01*
X0007899Y0079735D02*
X0032100Y0079735D01*
X0032100Y0080333D02*
X0007899Y0080333D01*
X0007899Y0080932D02*
X0032100Y0080932D01*
X0032100Y0081530D02*
X0007899Y0081530D01*
X0007899Y0082129D02*
X0032100Y0082129D01*
X0032100Y0082727D02*
X0007899Y0082727D01*
X0007899Y0083326D02*
X0032100Y0083326D01*
X0032100Y0083924D02*
X0007899Y0083924D01*
X0007899Y0084523D02*
X0032100Y0084523D01*
X0032100Y0085121D02*
X0007899Y0085121D01*
X0007899Y0085720D02*
X0032100Y0085720D01*
X0032100Y0086318D02*
X0007899Y0086318D01*
X0007899Y0086917D02*
X0032100Y0086917D01*
X0032100Y0087515D02*
X0007899Y0087515D01*
X0007899Y0088114D02*
X0032100Y0088114D01*
X0032100Y0088712D02*
X0007899Y0088712D01*
X0007899Y0089311D02*
X0032100Y0089311D01*
X0032100Y0089909D02*
X0007899Y0089909D01*
X0007899Y0090508D02*
X0032100Y0090508D01*
X0032100Y0091106D02*
X0007899Y0091106D01*
X0007899Y0091705D02*
X0032100Y0091705D01*
X0032100Y0092303D02*
X0007899Y0092303D01*
X0007899Y0092902D02*
X0032100Y0092902D01*
X0032100Y0093501D02*
X0007899Y0093501D01*
X0007899Y0094099D02*
X0032100Y0094099D01*
X0032100Y0094698D02*
X0007899Y0094698D01*
X0007899Y0095296D02*
X0032599Y0095296D01*
X0033198Y0095895D02*
X0007899Y0095895D01*
X0007899Y0096493D02*
X0033796Y0096493D01*
X0034395Y0097092D02*
X0007899Y0097092D01*
X0007899Y0097690D02*
X0046993Y0097690D01*
X0047592Y0098289D02*
X0007899Y0098289D01*
X0007899Y0098887D02*
X0048190Y0098887D01*
X0048789Y0099486D02*
X0007899Y0099486D01*
X0007899Y0100084D02*
X0049387Y0100084D01*
X0049986Y0100683D02*
X0046555Y0100683D01*
X0046423Y0100550D02*
X0046950Y0101077D01*
X0046950Y0111323D01*
X0046423Y0111850D01*
X0036177Y0111850D01*
X0035650Y0111323D01*
X0035650Y0101077D01*
X0036177Y0100550D01*
X0046423Y0100550D01*
X0046950Y0101281D02*
X0050100Y0101281D01*
X0050100Y0101880D02*
X0046950Y0101880D01*
X0046950Y0102478D02*
X0050100Y0102478D01*
X0050100Y0103077D02*
X0046950Y0103077D01*
X0046950Y0103675D02*
X0050100Y0103675D01*
X0050100Y0104274D02*
X0046950Y0104274D01*
X0046950Y0104872D02*
X0050100Y0104872D01*
X0050100Y0105471D02*
X0046950Y0105471D01*
X0046950Y0106069D02*
X0050100Y0106069D01*
X0050100Y0106668D02*
X0046950Y0106668D01*
X0046950Y0107266D02*
X0050100Y0107266D01*
X0050100Y0107865D02*
X0046950Y0107865D01*
X0046950Y0108463D02*
X0050100Y0108463D01*
X0050100Y0109062D02*
X0046950Y0109062D01*
X0046950Y0109660D02*
X0050100Y0109660D01*
X0050100Y0110259D02*
X0046950Y0110259D01*
X0046950Y0110857D02*
X0050100Y0110857D01*
X0050100Y0111456D02*
X0046817Y0111456D01*
X0048652Y0113251D02*
X0007899Y0113251D01*
X0007899Y0112653D02*
X0049250Y0112653D01*
X0049849Y0112054D02*
X0007899Y0112054D01*
X0007899Y0111456D02*
X0035783Y0111456D01*
X0035650Y0110857D02*
X0007899Y0110857D01*
X0007899Y0110259D02*
X0035650Y0110259D01*
X0035650Y0109660D02*
X0007899Y0109660D01*
X0007899Y0109062D02*
X0035650Y0109062D01*
X0035650Y0108463D02*
X0007899Y0108463D01*
X0007899Y0107865D02*
X0035650Y0107865D01*
X0035650Y0107266D02*
X0007899Y0107266D01*
X0007899Y0106668D02*
X0035650Y0106668D01*
X0035650Y0106069D02*
X0007899Y0106069D01*
X0007899Y0105471D02*
X0035650Y0105471D01*
X0035650Y0104872D02*
X0007899Y0104872D01*
X0007899Y0104274D02*
X0035650Y0104274D01*
X0035650Y0103675D02*
X0007899Y0103675D01*
X0007899Y0103077D02*
X0035650Y0103077D01*
X0035650Y0102478D02*
X0007899Y0102478D01*
X0007899Y0101880D02*
X0035650Y0101880D01*
X0035650Y0101281D02*
X0007899Y0101281D01*
X0007899Y0100683D02*
X0036045Y0100683D01*
X0035300Y0096300D02*
X0047300Y0096300D01*
X0051300Y0100300D01*
X0051300Y0112300D01*
X0047300Y0116300D01*
X0035300Y0116300D01*
X0033300Y0118300D01*
X0033300Y0133300D01*
X0035300Y0135300D01*
X0047300Y0135300D01*
X0050300Y0138300D01*
X0069300Y0138300D01*
X0069300Y0088300D01*
X0063300Y0083300D01*
X0063300Y0072300D01*
X0035300Y0072300D01*
X0033300Y0074300D01*
X0033300Y0094300D01*
X0035300Y0096300D01*
X0034895Y0095895D02*
X0069300Y0095895D01*
X0069300Y0096493D02*
X0047493Y0096493D01*
X0048092Y0097092D02*
X0069300Y0097092D01*
X0069300Y0097690D02*
X0048690Y0097690D01*
X0049289Y0098289D02*
X0069300Y0098289D01*
X0069300Y0098887D02*
X0049887Y0098887D01*
X0050486Y0099486D02*
X0069300Y0099486D01*
X0069300Y0100084D02*
X0051084Y0100084D01*
X0051300Y0100683D02*
X0069300Y0100683D01*
X0069300Y0101281D02*
X0051300Y0101281D01*
X0051300Y0101880D02*
X0069300Y0101880D01*
X0069300Y0102478D02*
X0051300Y0102478D01*
X0051300Y0103077D02*
X0069300Y0103077D01*
X0069300Y0103675D02*
X0051300Y0103675D01*
X0051300Y0104274D02*
X0069300Y0104274D01*
X0069300Y0104872D02*
X0051300Y0104872D01*
X0051300Y0105471D02*
X0069300Y0105471D01*
X0069300Y0106069D02*
X0051300Y0106069D01*
X0051300Y0106668D02*
X0069300Y0106668D01*
X0069300Y0107266D02*
X0051300Y0107266D01*
X0051300Y0107865D02*
X0069300Y0107865D01*
X0069300Y0108463D02*
X0051300Y0108463D01*
X0051300Y0109062D02*
X0069300Y0109062D01*
X0069300Y0109660D02*
X0051300Y0109660D01*
X0051300Y0110259D02*
X0069300Y0110259D01*
X0069300Y0110857D02*
X0051300Y0110857D01*
X0051300Y0111456D02*
X0069300Y0111456D01*
X0069300Y0112054D02*
X0051300Y0112054D01*
X0050947Y0112653D02*
X0069300Y0112653D01*
X0069300Y0113251D02*
X0050349Y0113251D01*
X0049750Y0113850D02*
X0069300Y0113850D01*
X0069300Y0114448D02*
X0049152Y0114448D01*
X0048553Y0115047D02*
X0069300Y0115047D01*
X0069300Y0115645D02*
X0047955Y0115645D01*
X0047356Y0116244D02*
X0069300Y0116244D01*
X0069300Y0116842D02*
X0034758Y0116842D01*
X0034159Y0117441D02*
X0069300Y0117441D01*
X0069300Y0118039D02*
X0033561Y0118039D01*
X0033300Y0118638D02*
X0069300Y0118638D01*
X0069300Y0119237D02*
X0033300Y0119237D01*
X0033300Y0119835D02*
X0069300Y0119835D01*
X0069300Y0120434D02*
X0033300Y0120434D01*
X0033300Y0121032D02*
X0069300Y0121032D01*
X0069300Y0121631D02*
X0033300Y0121631D01*
X0033300Y0122229D02*
X0069300Y0122229D01*
X0069300Y0122828D02*
X0033300Y0122828D01*
X0033300Y0123426D02*
X0069300Y0123426D01*
X0069300Y0124025D02*
X0033300Y0124025D01*
X0033300Y0124623D02*
X0069300Y0124623D01*
X0069300Y0125222D02*
X0033300Y0125222D01*
X0033300Y0125820D02*
X0069300Y0125820D01*
X0069300Y0126419D02*
X0033300Y0126419D01*
X0033300Y0127017D02*
X0069300Y0127017D01*
X0069300Y0127616D02*
X0033300Y0127616D01*
X0033300Y0128214D02*
X0069300Y0128214D01*
X0069300Y0128813D02*
X0033300Y0128813D01*
X0033300Y0129411D02*
X0069300Y0129411D01*
X0069300Y0130010D02*
X0033300Y0130010D01*
X0033300Y0130608D02*
X0069300Y0130608D01*
X0069300Y0131207D02*
X0033300Y0131207D01*
X0033300Y0131805D02*
X0069300Y0131805D01*
X0069300Y0132404D02*
X0033300Y0132404D01*
X0033300Y0133002D02*
X0069300Y0133002D01*
X0069300Y0133601D02*
X0033601Y0133601D01*
X0034199Y0134199D02*
X0069300Y0134199D01*
X0069300Y0134798D02*
X0034798Y0134798D01*
X0033699Y0135396D02*
X0007899Y0135396D01*
X0007899Y0134798D02*
X0033101Y0134798D01*
X0032502Y0134199D02*
X0007899Y0134199D01*
X0007899Y0133601D02*
X0032100Y0133601D01*
X0032100Y0133002D02*
X0007899Y0133002D01*
X0007899Y0132404D02*
X0032100Y0132404D01*
X0032100Y0131805D02*
X0007899Y0131805D01*
X0007899Y0131207D02*
X0032100Y0131207D01*
X0032100Y0130608D02*
X0007899Y0130608D01*
X0007899Y0130010D02*
X0032100Y0130010D01*
X0032100Y0129411D02*
X0007899Y0129411D01*
X0007899Y0128813D02*
X0032100Y0128813D01*
X0032100Y0128214D02*
X0007899Y0128214D01*
X0007899Y0127616D02*
X0032100Y0127616D01*
X0032100Y0127017D02*
X0007899Y0127017D01*
X0007899Y0126419D02*
X0032100Y0126419D01*
X0032100Y0125820D02*
X0007899Y0125820D01*
X0007899Y0125222D02*
X0032100Y0125222D01*
X0032100Y0124623D02*
X0007899Y0124623D01*
X0007899Y0124025D02*
X0032100Y0124025D01*
X0032100Y0123426D02*
X0007899Y0123426D01*
X0007899Y0122828D02*
X0032100Y0122828D01*
X0032100Y0122229D02*
X0007899Y0122229D01*
X0007899Y0121631D02*
X0032100Y0121631D01*
X0032100Y0121032D02*
X0007899Y0121032D01*
X0007899Y0120434D02*
X0032100Y0120434D01*
X0032100Y0119835D02*
X0007899Y0119835D01*
X0007899Y0119237D02*
X0032100Y0119237D01*
X0032100Y0118638D02*
X0007899Y0118638D01*
X0007899Y0118039D02*
X0032100Y0118039D01*
X0032462Y0117441D02*
X0007899Y0117441D01*
X0007899Y0116842D02*
X0033060Y0116842D01*
X0033659Y0116244D02*
X0007899Y0116244D01*
X0007899Y0115645D02*
X0034258Y0115645D01*
X0046856Y0115047D02*
X0007899Y0115047D01*
X0007899Y0114448D02*
X0047455Y0114448D01*
X0048053Y0113850D02*
X0007899Y0113850D01*
X0007899Y0135995D02*
X0034298Y0135995D01*
X0038100Y0140780D02*
X0040176Y0139920D01*
X0042424Y0139920D01*
X0044500Y0140780D01*
X0046090Y0142370D01*
X0046950Y0144446D01*
X0046950Y0146694D01*
X0046090Y0148771D01*
X0044500Y0150360D01*
X0042424Y0151220D01*
X0040176Y0151220D01*
X0038100Y0150360D01*
X0036510Y0148771D01*
X0035650Y0146694D01*
X0035650Y0144446D01*
X0036510Y0142370D01*
X0038100Y0140780D01*
X0038097Y0140783D02*
X0007899Y0140783D01*
X0007899Y0141381D02*
X0037498Y0141381D01*
X0036900Y0141980D02*
X0007899Y0141980D01*
X0007899Y0142578D02*
X0036424Y0142578D01*
X0036176Y0143177D02*
X0007899Y0143177D01*
X0007899Y0143775D02*
X0035928Y0143775D01*
X0035680Y0144374D02*
X0007899Y0144374D01*
X0007899Y0144972D02*
X0035650Y0144972D01*
X0035650Y0145571D02*
X0007899Y0145571D01*
X0007899Y0146170D02*
X0035650Y0146170D01*
X0035681Y0146768D02*
X0007899Y0146768D01*
X0007899Y0147367D02*
X0035929Y0147367D01*
X0036177Y0147965D02*
X0007899Y0147965D01*
X0007899Y0148564D02*
X0036424Y0148564D01*
X0036902Y0149162D02*
X0007899Y0149162D01*
X0007899Y0149761D02*
X0037500Y0149761D01*
X0038099Y0150359D02*
X0007899Y0150359D01*
X0007899Y0150958D02*
X0039542Y0150958D01*
X0043058Y0150958D02*
X0078581Y0150958D01*
X0078581Y0151556D02*
X0007899Y0151556D01*
X0007899Y0152155D02*
X0078581Y0152155D01*
X0078581Y0152753D02*
X0007899Y0152753D01*
X0007899Y0153352D02*
X0078581Y0153352D01*
X0078890Y0153950D02*
X0007899Y0153950D01*
X0007899Y0154549D02*
X0093600Y0154549D01*
X0093600Y0155147D02*
X0007899Y0155147D01*
X0007899Y0155746D02*
X0093600Y0155746D01*
X0093600Y0156344D02*
X0007899Y0156344D01*
X0007899Y0156943D02*
X0093600Y0156943D01*
X0093600Y0157541D02*
X0007899Y0157541D01*
X0007899Y0158140D02*
X0093600Y0158140D01*
X0093600Y0158738D02*
X0007899Y0158738D01*
X0007899Y0159337D02*
X0093600Y0159337D01*
X0093600Y0159935D02*
X0007899Y0159935D01*
X0007899Y0160534D02*
X0029369Y0160534D01*
X0029100Y0160803D02*
X0029803Y0160100D01*
X0074201Y0160100D01*
X0074593Y0160035D01*
X0074685Y0160100D01*
X0074797Y0160100D01*
X0075078Y0160381D01*
X0081685Y0165100D01*
X0081797Y0165100D01*
X0082078Y0165381D01*
X0082402Y0165612D01*
X0082420Y0165723D01*
X0082500Y0165803D01*
X0082500Y0166201D01*
X0082565Y0166593D01*
X0082500Y0166685D01*
X0082500Y0194797D01*
X0081797Y0195500D01*
X0056803Y0195500D01*
X0056100Y0194797D01*
X0056100Y0182500D01*
X0029803Y0182500D01*
X0029100Y0181797D01*
X0029100Y0180803D01*
X0029100Y0161797D01*
X0029100Y0160803D01*
X0029100Y0161132D02*
X0007899Y0161132D01*
X0007899Y0161731D02*
X0029100Y0161731D01*
X0029100Y0162329D02*
X0007899Y0162329D01*
X0007899Y0162928D02*
X0029100Y0162928D01*
X0029100Y0163526D02*
X0007899Y0163526D01*
X0007899Y0164125D02*
X0029100Y0164125D01*
X0029100Y0164723D02*
X0007899Y0164723D01*
X0007899Y0165322D02*
X0029100Y0165322D01*
X0029100Y0165920D02*
X0007899Y0165920D01*
X0007899Y0166519D02*
X0029100Y0166519D01*
X0029100Y0167117D02*
X0007899Y0167117D01*
X0007899Y0167716D02*
X0029100Y0167716D01*
X0029100Y0168314D02*
X0007899Y0168314D01*
X0007899Y0168913D02*
X0029100Y0168913D01*
X0029100Y0169511D02*
X0007899Y0169511D01*
X0007899Y0170110D02*
X0029100Y0170110D01*
X0029100Y0170708D02*
X0007899Y0170708D01*
X0007899Y0171307D02*
X0029100Y0171307D01*
X0029100Y0171905D02*
X0007899Y0171905D01*
X0007899Y0172504D02*
X0029100Y0172504D01*
X0029100Y0173103D02*
X0007899Y0173103D01*
X0007899Y0173701D02*
X0029100Y0173701D01*
X0029100Y0174300D02*
X0007899Y0174300D01*
X0007899Y0174898D02*
X0029100Y0174898D01*
X0029100Y0175497D02*
X0007899Y0175497D01*
X0007899Y0176095D02*
X0029100Y0176095D01*
X0029100Y0176694D02*
X0007899Y0176694D01*
X0007899Y0177292D02*
X0029100Y0177292D01*
X0029100Y0177891D02*
X0007899Y0177891D01*
X0007899Y0178489D02*
X0029100Y0178489D01*
X0029100Y0179088D02*
X0007899Y0179088D01*
X0007899Y0179686D02*
X0029100Y0179686D01*
X0029100Y0180285D02*
X0007899Y0180285D01*
X0007899Y0180883D02*
X0029100Y0180883D01*
X0029100Y0181482D02*
X0007899Y0181482D01*
X0007899Y0182080D02*
X0029383Y0182080D01*
X0030300Y0181300D02*
X0057300Y0181300D01*
X0057300Y0194300D01*
X0081300Y0194300D01*
X0081300Y0166300D01*
X0074300Y0161300D01*
X0030300Y0161300D01*
X0030300Y0181300D01*
X0030300Y0180883D02*
X0081300Y0180883D01*
X0081300Y0180285D02*
X0030300Y0180285D01*
X0030300Y0179686D02*
X0081300Y0179686D01*
X0081300Y0179088D02*
X0030300Y0179088D01*
X0030300Y0178489D02*
X0081300Y0178489D01*
X0081300Y0177891D02*
X0030300Y0177891D01*
X0030300Y0177292D02*
X0081300Y0177292D01*
X0081300Y0176694D02*
X0030300Y0176694D01*
X0030300Y0176095D02*
X0081300Y0176095D01*
X0081300Y0175497D02*
X0030300Y0175497D01*
X0030300Y0174898D02*
X0081300Y0174898D01*
X0081300Y0174300D02*
X0030300Y0174300D01*
X0030300Y0173701D02*
X0081300Y0173701D01*
X0081300Y0173103D02*
X0030300Y0173103D01*
X0030300Y0172504D02*
X0081300Y0172504D01*
X0081300Y0171905D02*
X0030300Y0171905D01*
X0030300Y0171307D02*
X0081300Y0171307D01*
X0081300Y0170708D02*
X0030300Y0170708D01*
X0030300Y0170110D02*
X0081300Y0170110D01*
X0081300Y0169511D02*
X0030300Y0169511D01*
X0030300Y0168913D02*
X0081300Y0168913D01*
X0081300Y0168314D02*
X0030300Y0168314D01*
X0030300Y0167716D02*
X0081300Y0167716D01*
X0081300Y0167117D02*
X0030300Y0167117D01*
X0030300Y0166519D02*
X0081300Y0166519D01*
X0080769Y0165920D02*
X0030300Y0165920D01*
X0030300Y0165322D02*
X0079931Y0165322D01*
X0079093Y0164723D02*
X0030300Y0164723D01*
X0030300Y0164125D02*
X0078255Y0164125D01*
X0077417Y0163526D02*
X0030300Y0163526D01*
X0030300Y0162928D02*
X0076579Y0162928D01*
X0075741Y0162329D02*
X0030300Y0162329D01*
X0030300Y0161731D02*
X0074903Y0161731D01*
X0075292Y0160534D02*
X0093600Y0160534D01*
X0093600Y0161132D02*
X0076130Y0161132D01*
X0076968Y0161731D02*
X0093600Y0161731D01*
X0093600Y0162329D02*
X0077806Y0162329D01*
X0078644Y0162928D02*
X0093600Y0162928D01*
X0093600Y0163526D02*
X0079481Y0163526D01*
X0080319Y0164125D02*
X0093600Y0164125D01*
X0093600Y0164723D02*
X0081157Y0164723D01*
X0082019Y0165322D02*
X0093600Y0165322D01*
X0093600Y0165920D02*
X0082500Y0165920D01*
X0082553Y0166519D02*
X0093600Y0166519D01*
X0093600Y0167117D02*
X0082500Y0167117D01*
X0082500Y0167716D02*
X0093600Y0167716D01*
X0093600Y0168314D02*
X0082500Y0168314D01*
X0082500Y0168913D02*
X0093600Y0168913D01*
X0093600Y0169511D02*
X0082500Y0169511D01*
X0082500Y0170110D02*
X0093600Y0170110D01*
X0093600Y0170708D02*
X0082500Y0170708D01*
X0082500Y0171307D02*
X0093600Y0171307D01*
X0093600Y0171905D02*
X0082500Y0171905D01*
X0082500Y0172504D02*
X0093600Y0172504D01*
X0093600Y0173103D02*
X0082500Y0173103D01*
X0082500Y0173701D02*
X0093600Y0173701D01*
X0093600Y0174300D02*
X0082500Y0174300D01*
X0082500Y0174898D02*
X0093600Y0174898D01*
X0093600Y0175497D02*
X0082500Y0175497D01*
X0082500Y0176095D02*
X0093600Y0176095D01*
X0093600Y0176694D02*
X0082500Y0176694D01*
X0082500Y0177292D02*
X0093600Y0177292D01*
X0093600Y0177891D02*
X0082500Y0177891D01*
X0082500Y0178489D02*
X0093600Y0178489D01*
X0093600Y0179088D02*
X0082500Y0179088D01*
X0082500Y0179686D02*
X0093600Y0179686D01*
X0093600Y0180285D02*
X0082500Y0180285D01*
X0082500Y0180883D02*
X0093600Y0180883D01*
X0093600Y0181482D02*
X0082500Y0181482D01*
X0082500Y0182080D02*
X0093600Y0182080D01*
X0093600Y0182679D02*
X0082500Y0182679D01*
X0082500Y0183277D02*
X0093600Y0183277D01*
X0093600Y0183876D02*
X0082500Y0183876D01*
X0082500Y0184474D02*
X0093600Y0184474D01*
X0093600Y0185073D02*
X0082500Y0185073D01*
X0082500Y0185671D02*
X0093600Y0185671D01*
X0093600Y0186270D02*
X0082500Y0186270D01*
X0082500Y0186868D02*
X0093600Y0186868D01*
X0093600Y0187467D02*
X0082500Y0187467D01*
X0082500Y0188065D02*
X0093600Y0188065D01*
X0093600Y0188664D02*
X0082500Y0188664D01*
X0082500Y0189262D02*
X0093600Y0189262D01*
X0093600Y0189861D02*
X0082500Y0189861D01*
X0082500Y0190459D02*
X0093600Y0190459D01*
X0093600Y0191058D02*
X0082500Y0191058D01*
X0082500Y0191656D02*
X0093600Y0191656D01*
X0093600Y0192255D02*
X0082500Y0192255D01*
X0082500Y0192853D02*
X0093600Y0192853D01*
X0093600Y0193452D02*
X0082500Y0193452D01*
X0082500Y0194050D02*
X0093600Y0194050D01*
X0093600Y0194649D02*
X0082500Y0194649D01*
X0082050Y0195247D02*
X0094050Y0195247D01*
X0094800Y0194300D02*
X0094800Y0151900D01*
X0098350Y0151900D01*
X0098350Y0153128D01*
X0098672Y0153450D01*
X0109800Y0153450D01*
X0109800Y0162900D01*
X0119300Y0162900D01*
X0119300Y0194300D01*
X0094800Y0194300D01*
X0094800Y0194050D02*
X0119300Y0194050D01*
X0119300Y0193452D02*
X0094800Y0193452D01*
X0094800Y0192853D02*
X0119300Y0192853D01*
X0119300Y0192255D02*
X0094800Y0192255D01*
X0094800Y0191656D02*
X0119300Y0191656D01*
X0119300Y0191058D02*
X0094800Y0191058D01*
X0094800Y0190459D02*
X0119300Y0190459D01*
X0119300Y0189861D02*
X0094800Y0189861D01*
X0094800Y0189262D02*
X0119300Y0189262D01*
X0119300Y0188664D02*
X0094800Y0188664D01*
X0094800Y0188065D02*
X0119300Y0188065D01*
X0119300Y0187467D02*
X0094800Y0187467D01*
X0094800Y0186868D02*
X0119300Y0186868D01*
X0119300Y0186270D02*
X0094800Y0186270D01*
X0094800Y0185671D02*
X0119300Y0185671D01*
X0119300Y0185073D02*
X0094800Y0185073D01*
X0094800Y0184474D02*
X0119300Y0184474D01*
X0119300Y0183876D02*
X0094800Y0183876D01*
X0094800Y0183277D02*
X0119300Y0183277D01*
X0119300Y0182679D02*
X0094800Y0182679D01*
X0094800Y0182080D02*
X0119300Y0182080D01*
X0119300Y0181482D02*
X0094800Y0181482D01*
X0094800Y0180883D02*
X0119300Y0180883D01*
X0119300Y0180285D02*
X0094800Y0180285D01*
X0094800Y0179686D02*
X0119300Y0179686D01*
X0119300Y0179088D02*
X0094800Y0179088D01*
X0094800Y0178489D02*
X0119300Y0178489D01*
X0119300Y0177891D02*
X0094800Y0177891D01*
X0094800Y0177292D02*
X0119300Y0177292D01*
X0119300Y0176694D02*
X0094800Y0176694D01*
X0094800Y0176095D02*
X0119300Y0176095D01*
X0119300Y0175497D02*
X0094800Y0175497D01*
X0094800Y0174898D02*
X0119300Y0174898D01*
X0119300Y0174300D02*
X0094800Y0174300D01*
X0094800Y0173701D02*
X0119300Y0173701D01*
X0119300Y0173103D02*
X0094800Y0173103D01*
X0094800Y0172504D02*
X0119300Y0172504D01*
X0119300Y0171905D02*
X0094800Y0171905D01*
X0094800Y0171307D02*
X0119300Y0171307D01*
X0119300Y0170708D02*
X0094800Y0170708D01*
X0094800Y0170110D02*
X0119300Y0170110D01*
X0119300Y0169511D02*
X0094800Y0169511D01*
X0094800Y0168913D02*
X0119300Y0168913D01*
X0119300Y0168314D02*
X0094800Y0168314D01*
X0094800Y0167716D02*
X0119300Y0167716D01*
X0119300Y0167117D02*
X0094800Y0167117D01*
X0094800Y0166519D02*
X0119300Y0166519D01*
X0119300Y0165920D02*
X0094800Y0165920D01*
X0094800Y0165322D02*
X0119300Y0165322D01*
X0119300Y0164723D02*
X0094800Y0164723D01*
X0094800Y0164125D02*
X0119300Y0164125D01*
X0119300Y0163526D02*
X0094800Y0163526D01*
X0094800Y0162928D02*
X0119300Y0162928D01*
X0120500Y0162928D02*
X0138400Y0162928D01*
X0138400Y0163526D02*
X0120500Y0163526D01*
X0120500Y0164125D02*
X0138137Y0164125D01*
X0137538Y0164723D02*
X0120500Y0164723D01*
X0120500Y0165322D02*
X0136940Y0165322D01*
X0136341Y0165920D02*
X0120500Y0165920D01*
X0120500Y0166519D02*
X0135743Y0166519D01*
X0135144Y0167117D02*
X0120500Y0167117D01*
X0120426Y0162329D02*
X0138400Y0162329D01*
X0138400Y0161731D02*
X0119828Y0161731D01*
X0121888Y0160534D02*
X0111000Y0160534D01*
X0111000Y0161132D02*
X0122379Y0161132D01*
X0121888Y0159935D02*
X0115635Y0159935D01*
X0116233Y0159337D02*
X0120498Y0159337D01*
X0119900Y0158738D02*
X0116400Y0158738D01*
X0116400Y0158140D02*
X0119301Y0158140D01*
X0118703Y0157541D02*
X0116490Y0157541D01*
X0112965Y0159935D02*
X0111000Y0159935D01*
X0111000Y0159337D02*
X0111498Y0159337D01*
X0109800Y0159337D02*
X0094800Y0159337D01*
X0094800Y0159935D02*
X0109800Y0159935D01*
X0109800Y0160534D02*
X0094800Y0160534D01*
X0094800Y0161132D02*
X0109800Y0161132D01*
X0109800Y0161731D02*
X0094800Y0161731D01*
X0094800Y0162329D02*
X0109800Y0162329D01*
X0109800Y0158738D02*
X0094800Y0158738D01*
X0094800Y0158140D02*
X0109800Y0158140D01*
X0109800Y0157541D02*
X0094800Y0157541D01*
X0094800Y0156943D02*
X0109800Y0156943D01*
X0109800Y0156344D02*
X0094800Y0156344D01*
X0094800Y0155746D02*
X0109800Y0155746D01*
X0109800Y0155147D02*
X0094800Y0155147D01*
X0094800Y0154549D02*
X0109800Y0154549D01*
X0109800Y0153950D02*
X0094800Y0153950D01*
X0094800Y0153352D02*
X0098574Y0153352D01*
X0098350Y0152753D02*
X0094800Y0152753D01*
X0094800Y0152155D02*
X0098350Y0152155D01*
X0098350Y0150359D02*
X0094221Y0150359D01*
X0094045Y0150958D02*
X0093622Y0150958D01*
X0093600Y0151556D02*
X0093024Y0151556D01*
X0093600Y0152155D02*
X0092168Y0152155D01*
X0092168Y0152753D02*
X0093600Y0152753D01*
X0093600Y0153352D02*
X0092001Y0153352D01*
X0093600Y0153950D02*
X0084403Y0153950D01*
X0084712Y0153352D02*
X0086599Y0153352D01*
X0086431Y0152753D02*
X0084712Y0152753D01*
X0086425Y0152155D02*
X0086431Y0152155D01*
X0084860Y0149761D02*
X0084712Y0149761D01*
X0084712Y0149162D02*
X0086431Y0149162D01*
X0086431Y0148564D02*
X0084317Y0148564D01*
X0086575Y0147965D02*
X0046423Y0147965D01*
X0046176Y0148564D02*
X0078976Y0148564D01*
X0078581Y0149162D02*
X0045698Y0149162D01*
X0045100Y0149761D02*
X0078581Y0149761D01*
X0078581Y0150359D02*
X0044501Y0150359D01*
X0046671Y0147367D02*
X0093254Y0147367D01*
X0092788Y0146768D02*
X0091892Y0146768D01*
X0092168Y0146170D02*
X0092190Y0146170D01*
X0092025Y0147965D02*
X0092655Y0147965D01*
X0094819Y0149761D02*
X0098350Y0149761D01*
X0094605Y0144374D02*
X0094354Y0144374D01*
X0094605Y0143775D02*
X0093755Y0143775D01*
X0093157Y0143177D02*
X0094605Y0143177D01*
X0094605Y0142578D02*
X0092558Y0142578D01*
X0092168Y0141980D02*
X0094605Y0141980D01*
X0094737Y0141381D02*
X0092135Y0141381D01*
X0086465Y0141381D02*
X0084712Y0141381D01*
X0084536Y0140783D02*
X0097800Y0140783D01*
X0097800Y0140184D02*
X0043062Y0140184D01*
X0044503Y0140783D02*
X0078757Y0140783D01*
X0078581Y0141381D02*
X0045102Y0141381D01*
X0045700Y0141980D02*
X0078581Y0141980D01*
X0078581Y0142578D02*
X0046176Y0142578D01*
X0046424Y0143177D02*
X0078581Y0143177D01*
X0078581Y0143775D02*
X0046672Y0143775D01*
X0046920Y0144374D02*
X0078581Y0144374D01*
X0078581Y0144972D02*
X0046950Y0144972D01*
X0046950Y0145571D02*
X0078581Y0145571D01*
X0084712Y0145571D02*
X0086431Y0145571D01*
X0086431Y0146170D02*
X0046950Y0146170D01*
X0046919Y0146768D02*
X0086708Y0146768D01*
X0084993Y0144972D02*
X0084712Y0144972D01*
X0085960Y0141980D02*
X0086431Y0141980D01*
X0097800Y0139586D02*
X0007899Y0139586D01*
X0007899Y0140184D02*
X0039538Y0140184D01*
X0046896Y0136593D02*
X0007899Y0136593D01*
X0007899Y0137192D02*
X0047495Y0137192D01*
X0048093Y0137790D02*
X0007899Y0137790D01*
X0007899Y0138389D02*
X0048692Y0138389D01*
X0049290Y0138987D02*
X0007899Y0138987D01*
X0047396Y0135396D02*
X0069300Y0135396D01*
X0069300Y0135995D02*
X0047995Y0135995D01*
X0048593Y0136593D02*
X0069300Y0136593D01*
X0069300Y0137192D02*
X0049192Y0137192D01*
X0049790Y0137790D02*
X0069300Y0137790D01*
X0060300Y0137790D02*
X0109600Y0137790D01*
X0109600Y0137192D02*
X0060300Y0137192D01*
X0060300Y0136593D02*
X0109600Y0136593D01*
X0109600Y0135995D02*
X0060300Y0135995D01*
X0060300Y0135396D02*
X0109600Y0135396D01*
X0109600Y0134798D02*
X0060300Y0134798D01*
X0060300Y0134199D02*
X0109600Y0134199D01*
X0109600Y0133601D02*
X0060300Y0133601D01*
X0060300Y0133002D02*
X0109600Y0133002D01*
X0109600Y0132404D02*
X0060300Y0132404D01*
X0060300Y0131805D02*
X0109600Y0131805D01*
X0109600Y0131207D02*
X0060300Y0131207D01*
X0060300Y0130608D02*
X0109600Y0130608D01*
X0109600Y0130010D02*
X0060300Y0130010D01*
X0060300Y0129411D02*
X0109600Y0129411D01*
X0109600Y0128813D02*
X0060300Y0128813D01*
X0060300Y0128214D02*
X0109600Y0128214D01*
X0109600Y0127616D02*
X0060300Y0127616D01*
X0060300Y0127017D02*
X0109600Y0127017D01*
X0109600Y0126419D02*
X0060300Y0126419D01*
X0060300Y0125820D02*
X0109600Y0125820D01*
X0109600Y0125222D02*
X0060300Y0125222D01*
X0060300Y0124623D02*
X0109600Y0124623D01*
X0109600Y0124300D02*
X0089300Y0124300D01*
X0089300Y0088300D01*
X0060300Y0088300D01*
X0060300Y0138300D01*
X0099000Y0138300D01*
X0099000Y0141300D01*
X0109600Y0141300D01*
X0109600Y0124300D01*
X0110800Y0124623D02*
X0140346Y0124623D01*
X0140346Y0124025D02*
X0125972Y0124025D01*
X0126500Y0123426D02*
X0140835Y0123426D01*
X0141434Y0122828D02*
X0126500Y0122828D01*
X0126500Y0122229D02*
X0142032Y0122229D01*
X0142631Y0121631D02*
X0126500Y0121631D01*
X0126500Y0121032D02*
X0143100Y0121032D01*
X0139500Y0120434D02*
X0126500Y0120434D01*
X0126500Y0119835D02*
X0139500Y0119835D01*
X0139500Y0119237D02*
X0126500Y0119237D01*
X0126500Y0118638D02*
X0139500Y0118638D01*
X0139500Y0118039D02*
X0126500Y0118039D01*
X0126500Y0117441D02*
X0139500Y0117441D01*
X0139785Y0116842D02*
X0126500Y0116842D01*
X0126500Y0116244D02*
X0149000Y0116244D01*
X0149000Y0115645D02*
X0126500Y0115645D01*
X0126500Y0115047D02*
X0149000Y0115047D01*
X0149000Y0114448D02*
X0126500Y0114448D01*
X0126500Y0113850D02*
X0149000Y0113850D01*
X0149000Y0113251D02*
X0126500Y0113251D01*
X0126500Y0112653D02*
X0149000Y0112653D01*
X0149000Y0112054D02*
X0126500Y0112054D01*
X0126500Y0111456D02*
X0149000Y0111456D01*
X0149000Y0110857D02*
X0148915Y0110857D01*
X0150203Y0107865D02*
X0159895Y0107865D01*
X0159296Y0107266D02*
X0149300Y0107266D01*
X0148841Y0106668D02*
X0158698Y0106668D01*
X0158099Y0106069D02*
X0126500Y0106069D01*
X0126500Y0105471D02*
X0157501Y0105471D01*
X0156902Y0104872D02*
X0126500Y0104872D01*
X0126500Y0104274D02*
X0156304Y0104274D01*
X0155705Y0103675D02*
X0126500Y0103675D01*
X0126500Y0103077D02*
X0155107Y0103077D01*
X0154508Y0102478D02*
X0126500Y0102478D01*
X0126500Y0101880D02*
X0153910Y0101880D01*
X0153311Y0101281D02*
X0126500Y0101281D01*
X0126500Y0100683D02*
X0152713Y0100683D01*
X0152114Y0100084D02*
X0126500Y0100084D01*
X0126500Y0099486D02*
X0151516Y0099486D01*
X0150917Y0098887D02*
X0126284Y0098887D01*
X0125300Y0099600D02*
X0093300Y0099600D01*
X0093300Y0110500D01*
X0125300Y0110500D01*
X0125300Y0099600D01*
X0125300Y0100084D02*
X0093300Y0100084D01*
X0093300Y0100683D02*
X0125300Y0100683D01*
X0125300Y0101281D02*
X0093300Y0101281D01*
X0093300Y0101880D02*
X0125300Y0101880D01*
X0125300Y0102478D02*
X0093300Y0102478D01*
X0093300Y0103077D02*
X0125300Y0103077D01*
X0125300Y0103675D02*
X0093300Y0103675D01*
X0093300Y0104274D02*
X0125300Y0104274D01*
X0125300Y0104872D02*
X0093300Y0104872D01*
X0093300Y0105471D02*
X0125300Y0105471D01*
X0125300Y0106069D02*
X0093300Y0106069D01*
X0093300Y0106668D02*
X0125300Y0106668D01*
X0125300Y0107266D02*
X0093300Y0107266D01*
X0093300Y0107865D02*
X0125300Y0107865D01*
X0125300Y0108463D02*
X0093300Y0108463D01*
X0093300Y0109062D02*
X0125300Y0109062D01*
X0125300Y0109660D02*
X0093300Y0109660D01*
X0093300Y0110259D02*
X0125300Y0110259D01*
X0126500Y0110259D02*
X0139500Y0110259D01*
X0139500Y0109660D02*
X0126500Y0109660D01*
X0126500Y0109062D02*
X0139500Y0109062D01*
X0139500Y0108463D02*
X0126500Y0108463D01*
X0126500Y0107865D02*
X0139500Y0107865D01*
X0139500Y0107266D02*
X0126500Y0107266D01*
X0126500Y0106668D02*
X0139959Y0106668D01*
X0139885Y0110857D02*
X0126500Y0110857D01*
X0125300Y0111900D02*
X0093300Y0111900D01*
X0093300Y0123000D01*
X0125300Y0123000D01*
X0125300Y0111900D01*
X0125300Y0112054D02*
X0093300Y0112054D01*
X0093300Y0112653D02*
X0125300Y0112653D01*
X0125300Y0113251D02*
X0093300Y0113251D01*
X0093300Y0113850D02*
X0125300Y0113850D01*
X0125300Y0114448D02*
X0093300Y0114448D01*
X0093300Y0115047D02*
X0125300Y0115047D01*
X0125300Y0115645D02*
X0093300Y0115645D01*
X0093300Y0116244D02*
X0125300Y0116244D01*
X0125300Y0116842D02*
X0093300Y0116842D01*
X0093300Y0117441D02*
X0125300Y0117441D01*
X0125300Y0118039D02*
X0093300Y0118039D01*
X0093300Y0118638D02*
X0125300Y0118638D01*
X0125300Y0119237D02*
X0093300Y0119237D01*
X0093300Y0119835D02*
X0125300Y0119835D01*
X0125300Y0120434D02*
X0093300Y0120434D01*
X0093300Y0121032D02*
X0125300Y0121032D01*
X0125300Y0121631D02*
X0093300Y0121631D01*
X0093300Y0122229D02*
X0125300Y0122229D01*
X0125300Y0122828D02*
X0093300Y0122828D01*
X0092100Y0122828D02*
X0090500Y0122828D01*
X0090500Y0122229D02*
X0092100Y0122229D01*
X0092100Y0121631D02*
X0090500Y0121631D01*
X0090500Y0121032D02*
X0092100Y0121032D01*
X0092100Y0120434D02*
X0090500Y0120434D01*
X0090500Y0119835D02*
X0092100Y0119835D01*
X0092100Y0119237D02*
X0090500Y0119237D01*
X0090500Y0118638D02*
X0092100Y0118638D01*
X0092100Y0118039D02*
X0090500Y0118039D01*
X0090500Y0117441D02*
X0092100Y0117441D01*
X0092100Y0116842D02*
X0090500Y0116842D01*
X0090500Y0116244D02*
X0092100Y0116244D01*
X0092100Y0115645D02*
X0090500Y0115645D01*
X0090500Y0115047D02*
X0092100Y0115047D01*
X0092100Y0114448D02*
X0090500Y0114448D01*
X0090500Y0113850D02*
X0092100Y0113850D01*
X0092100Y0113251D02*
X0090500Y0113251D01*
X0090500Y0112653D02*
X0092100Y0112653D01*
X0092100Y0112054D02*
X0090500Y0112054D01*
X0090500Y0111456D02*
X0092100Y0111456D01*
X0092100Y0110857D02*
X0090500Y0110857D01*
X0090500Y0110259D02*
X0092100Y0110259D01*
X0092100Y0109660D02*
X0090500Y0109660D01*
X0090500Y0109062D02*
X0092100Y0109062D01*
X0092100Y0108463D02*
X0090500Y0108463D01*
X0090500Y0107865D02*
X0092100Y0107865D01*
X0092100Y0107266D02*
X0090500Y0107266D01*
X0090500Y0106668D02*
X0092100Y0106668D01*
X0092100Y0106069D02*
X0090500Y0106069D01*
X0090500Y0105471D02*
X0092100Y0105471D01*
X0092100Y0104872D02*
X0090500Y0104872D01*
X0090500Y0104274D02*
X0092100Y0104274D01*
X0092100Y0103675D02*
X0090500Y0103675D01*
X0090500Y0103077D02*
X0092100Y0103077D01*
X0092100Y0102478D02*
X0090500Y0102478D01*
X0090500Y0101880D02*
X0092100Y0101880D01*
X0092100Y0101281D02*
X0090500Y0101281D01*
X0090500Y0100683D02*
X0092100Y0100683D01*
X0092100Y0100084D02*
X0090500Y0100084D01*
X0090500Y0099486D02*
X0092100Y0099486D01*
X0092316Y0098887D02*
X0090500Y0098887D01*
X0090500Y0098289D02*
X0150319Y0098289D01*
X0149720Y0097690D02*
X0090500Y0097690D01*
X0090500Y0097092D02*
X0149122Y0097092D01*
X0148523Y0096493D02*
X0090500Y0096493D01*
X0090500Y0095895D02*
X0147925Y0095895D01*
X0147326Y0095296D02*
X0090500Y0095296D01*
X0090500Y0094698D02*
X0146728Y0094698D01*
X0146129Y0094099D02*
X0090500Y0094099D01*
X0090500Y0093501D02*
X0145531Y0093501D01*
X0144932Y0092902D02*
X0090500Y0092902D01*
X0090500Y0092303D02*
X0144334Y0092303D01*
X0143735Y0091705D02*
X0090500Y0091705D01*
X0090500Y0091106D02*
X0143137Y0091106D01*
X0142538Y0090508D02*
X0090500Y0090508D01*
X0090500Y0089909D02*
X0141940Y0089909D01*
X0141341Y0089311D02*
X0090500Y0089311D01*
X0090500Y0088712D02*
X0140743Y0088712D01*
X0140144Y0088114D02*
X0090500Y0088114D01*
X0090212Y0087515D02*
X0139546Y0087515D01*
X0138947Y0086917D02*
X0069515Y0086917D01*
X0068796Y0086318D02*
X0138349Y0086318D01*
X0137750Y0085720D02*
X0068078Y0085720D01*
X0067640Y0086917D02*
X0033300Y0086917D01*
X0033300Y0087515D02*
X0068358Y0087515D01*
X0069077Y0088114D02*
X0033300Y0088114D01*
X0033300Y0088712D02*
X0069300Y0088712D01*
X0069300Y0089311D02*
X0033300Y0089311D01*
X0033300Y0089909D02*
X0069300Y0089909D01*
X0069300Y0090508D02*
X0033300Y0090508D01*
X0033300Y0091106D02*
X0069300Y0091106D01*
X0069300Y0091705D02*
X0033300Y0091705D01*
X0033300Y0092303D02*
X0069300Y0092303D01*
X0069300Y0092902D02*
X0033300Y0092902D01*
X0033300Y0093501D02*
X0069300Y0093501D01*
X0069300Y0094099D02*
X0033300Y0094099D01*
X0033698Y0094698D02*
X0069300Y0094698D01*
X0069300Y0095296D02*
X0034296Y0095296D01*
X0033300Y0086318D02*
X0066922Y0086318D01*
X0066204Y0085720D02*
X0033300Y0085720D01*
X0033300Y0085121D02*
X0065486Y0085121D01*
X0064767Y0084523D02*
X0033300Y0084523D01*
X0033300Y0083924D02*
X0064049Y0083924D01*
X0063331Y0083326D02*
X0033300Y0083326D01*
X0033300Y0082727D02*
X0063300Y0082727D01*
X0063300Y0082129D02*
X0033300Y0082129D01*
X0033300Y0081530D02*
X0063300Y0081530D01*
X0063300Y0080932D02*
X0033300Y0080932D01*
X0033300Y0080333D02*
X0063300Y0080333D01*
X0063300Y0079735D02*
X0033300Y0079735D01*
X0033300Y0079136D02*
X0063300Y0079136D01*
X0063300Y0078538D02*
X0033300Y0078538D01*
X0033300Y0077939D02*
X0063300Y0077939D01*
X0063300Y0077341D02*
X0033300Y0077341D01*
X0033300Y0076742D02*
X0063300Y0076742D01*
X0063300Y0076144D02*
X0033300Y0076144D01*
X0033300Y0075545D02*
X0063300Y0075545D01*
X0063300Y0074947D02*
X0033300Y0074947D01*
X0033300Y0074348D02*
X0063300Y0074348D01*
X0063300Y0073750D02*
X0033850Y0073750D01*
X0034449Y0073151D02*
X0063300Y0073151D01*
X0063300Y0072553D02*
X0035047Y0072553D01*
X0056767Y0055196D02*
X0007899Y0055196D01*
X0007899Y0055794D02*
X0135500Y0055794D01*
X0135500Y0056393D02*
X0007899Y0056393D01*
X0007899Y0056991D02*
X0135500Y0056991D01*
X0138100Y0056991D02*
X0174103Y0056991D01*
X0174694Y0056400D02*
X0173400Y0057694D01*
X0172700Y0059385D01*
X0172700Y0061215D01*
X0173400Y0062906D01*
X0174694Y0064200D01*
X0176385Y0064900D01*
X0178215Y0064900D01*
X0179906Y0064200D01*
X0181200Y0062906D01*
X0181900Y0061215D01*
X0181900Y0059385D01*
X0181200Y0057694D01*
X0179906Y0056400D01*
X0178215Y0055700D01*
X0176385Y0055700D01*
X0174694Y0056400D01*
X0174712Y0056393D02*
X0138100Y0056393D01*
X0138100Y0055794D02*
X0176157Y0055794D01*
X0178443Y0055794D02*
X0186157Y0055794D01*
X0186385Y0055700D02*
X0188215Y0055700D01*
X0189906Y0056400D01*
X0191000Y0057495D01*
X0191000Y0056838D01*
X0189762Y0055600D01*
X0146762Y0055600D01*
X0142643Y0051482D01*
X0142523Y0051482D01*
X0142523Y0052917D01*
X0141996Y0053444D01*
X0139085Y0053444D01*
X0138670Y0053029D01*
X0138255Y0053444D01*
X0138100Y0053444D01*
X0138100Y0057156D01*
X0138255Y0057156D01*
X0138670Y0057571D01*
X0139085Y0057156D01*
X0141996Y0057156D01*
X0142523Y0057683D01*
X0142523Y0063153D01*
X0141996Y0063680D01*
X0141840Y0063680D01*
X0141840Y0064000D01*
X0142838Y0064000D01*
X0144446Y0065608D01*
X0144446Y0065931D01*
X0145685Y0065931D01*
X0146212Y0066459D01*
X0146212Y0067500D01*
X0146262Y0067500D01*
X0148262Y0065500D01*
X0173036Y0065500D01*
X0184262Y0065500D01*
X0185308Y0064454D01*
X0184694Y0064200D01*
X0183400Y0062906D01*
X0182700Y0061215D01*
X0182700Y0059385D01*
X0183400Y0057694D01*
X0184694Y0056400D01*
X0186385Y0055700D01*
X0184712Y0056393D02*
X0179888Y0056393D01*
X0180497Y0056991D02*
X0184103Y0056991D01*
X0183505Y0057590D02*
X0181095Y0057590D01*
X0181404Y0058188D02*
X0183196Y0058188D01*
X0182948Y0058787D02*
X0181652Y0058787D01*
X0181900Y0059385D02*
X0182700Y0059385D01*
X0182700Y0059984D02*
X0181900Y0059984D01*
X0181900Y0060582D02*
X0182700Y0060582D01*
X0182700Y0061181D02*
X0181900Y0061181D01*
X0181666Y0061779D02*
X0182934Y0061779D01*
X0183182Y0062378D02*
X0181418Y0062378D01*
X0181129Y0062976D02*
X0183471Y0062976D01*
X0184070Y0063575D02*
X0180530Y0063575D01*
X0179932Y0064173D02*
X0184668Y0064173D01*
X0184990Y0064772D02*
X0178524Y0064772D01*
X0176076Y0064772D02*
X0143610Y0064772D01*
X0143012Y0064173D02*
X0174668Y0064173D01*
X0174070Y0063575D02*
X0142101Y0063575D01*
X0142523Y0062976D02*
X0173471Y0062976D01*
X0173182Y0062378D02*
X0142523Y0062378D01*
X0142523Y0061779D02*
X0172934Y0061779D01*
X0172700Y0061181D02*
X0142523Y0061181D01*
X0142523Y0060582D02*
X0172700Y0060582D01*
X0172700Y0059984D02*
X0142523Y0059984D01*
X0142523Y0059385D02*
X0172700Y0059385D01*
X0172948Y0058787D02*
X0142523Y0058787D01*
X0142523Y0058188D02*
X0173196Y0058188D01*
X0173505Y0057590D02*
X0142430Y0057590D01*
X0142039Y0053400D02*
X0144562Y0053400D01*
X0143963Y0052802D02*
X0142523Y0052802D01*
X0142523Y0052203D02*
X0143365Y0052203D01*
X0142766Y0051605D02*
X0142523Y0051605D01*
X0144648Y0049809D02*
X0212500Y0049809D01*
X0212500Y0049211D02*
X0144049Y0049211D01*
X0142523Y0048612D02*
X0212500Y0048612D01*
X0212500Y0048014D02*
X0142523Y0048014D01*
X0142491Y0047415D02*
X0212500Y0047415D01*
X0212500Y0046817D02*
X0141622Y0046817D01*
X0142100Y0046218D02*
X0212500Y0046218D01*
X0212500Y0045620D02*
X0142100Y0045620D01*
X0143332Y0045021D02*
X0212500Y0045021D01*
X0212500Y0044423D02*
X0143712Y0044423D01*
X0143712Y0043824D02*
X0212500Y0043824D01*
X0212500Y0043226D02*
X0143712Y0043226D01*
X0143712Y0042627D02*
X0212500Y0042627D01*
X0212500Y0042029D02*
X0143712Y0042029D01*
X0143712Y0041430D02*
X0212500Y0041430D01*
X0212500Y0040832D02*
X0143712Y0040832D01*
X0143712Y0040233D02*
X0212500Y0040233D01*
X0212500Y0039634D02*
X0143388Y0039634D01*
X0141946Y0039036D02*
X0212500Y0039036D01*
X0212500Y0038437D02*
X0141946Y0038437D01*
X0141946Y0037839D02*
X0212500Y0037839D01*
X0212500Y0037240D02*
X0141946Y0037240D01*
X0141946Y0036642D02*
X0212500Y0036642D01*
X0212500Y0036043D02*
X0141946Y0036043D01*
X0141946Y0035445D02*
X0212500Y0035445D01*
X0212500Y0034846D02*
X0141946Y0034846D01*
X0141946Y0034248D02*
X0212500Y0034248D01*
X0212500Y0033649D02*
X0141946Y0033649D01*
X0141946Y0033051D02*
X0212500Y0033051D01*
X0212809Y0032452D02*
X0141946Y0032452D01*
X0141946Y0031854D02*
X0213408Y0031854D01*
X0214006Y0031255D02*
X0142183Y0031255D01*
X0142782Y0030657D02*
X0214605Y0030657D01*
X0215203Y0030058D02*
X0143380Y0030058D01*
X0143979Y0029460D02*
X0215802Y0029460D01*
X0216400Y0028861D02*
X0144577Y0028861D01*
X0145176Y0028263D02*
X0216999Y0028263D01*
X0214555Y0027664D02*
X0208045Y0027664D01*
X0209181Y0027066D02*
X0213419Y0027066D01*
X0212820Y0026467D02*
X0209780Y0026467D01*
X0210323Y0025869D02*
X0212277Y0025869D01*
X0212029Y0025270D02*
X0210571Y0025270D01*
X0210819Y0024672D02*
X0211781Y0024672D01*
X0211600Y0024073D02*
X0211000Y0024073D01*
X0211000Y0023475D02*
X0211600Y0023475D01*
X0211600Y0022876D02*
X0211274Y0022876D01*
X0210590Y0019884D02*
X0209530Y0019884D01*
X0208889Y0019285D02*
X0211188Y0019285D01*
X0211787Y0018687D02*
X0207444Y0018687D01*
X0205156Y0018687D02*
X0187444Y0018687D01*
X0186198Y0018088D02*
X0212385Y0018088D01*
X0212984Y0017490D02*
X0185599Y0017490D01*
X0185001Y0016891D02*
X0213582Y0016891D01*
X0214181Y0016293D02*
X0184402Y0016293D01*
X0183804Y0015694D02*
X0214779Y0015694D01*
X0203711Y0019285D02*
X0188889Y0019285D01*
X0189530Y0019884D02*
X0203070Y0019884D01*
X0202471Y0020482D02*
X0190129Y0020482D01*
X0190468Y0021081D02*
X0202132Y0021081D01*
X0201884Y0021679D02*
X0190716Y0021679D01*
X0190964Y0022278D02*
X0201636Y0022278D01*
X0201600Y0022876D02*
X0191000Y0022876D01*
X0191000Y0023475D02*
X0201600Y0023475D01*
X0201600Y0024073D02*
X0191000Y0024073D01*
X0190819Y0024672D02*
X0201781Y0024672D01*
X0202029Y0025270D02*
X0190571Y0025270D01*
X0190323Y0025869D02*
X0202277Y0025869D01*
X0202820Y0026467D02*
X0189780Y0026467D01*
X0189181Y0027066D02*
X0203419Y0027066D01*
X0204555Y0027664D02*
X0188045Y0027664D01*
X0184555Y0027664D02*
X0158045Y0027664D01*
X0159181Y0027066D02*
X0183419Y0027066D01*
X0182820Y0026467D02*
X0159780Y0026467D01*
X0160323Y0025869D02*
X0182277Y0025869D01*
X0182029Y0025270D02*
X0160571Y0025270D01*
X0160819Y0024672D02*
X0181781Y0024672D01*
X0181600Y0024073D02*
X0161000Y0024073D01*
X0161000Y0023475D02*
X0181600Y0023475D01*
X0181600Y0022876D02*
X0161000Y0022876D01*
X0160964Y0022278D02*
X0181636Y0022278D01*
X0181884Y0021679D02*
X0160716Y0021679D01*
X0160468Y0021081D02*
X0182132Y0021081D01*
X0182471Y0020482D02*
X0160129Y0020482D01*
X0159530Y0019884D02*
X0182054Y0019884D01*
X0181455Y0019285D02*
X0158889Y0019285D01*
X0153711Y0019285D02*
X0148889Y0019285D01*
X0149530Y0019884D02*
X0153070Y0019884D01*
X0152471Y0020482D02*
X0150129Y0020482D01*
X0150468Y0021081D02*
X0152132Y0021081D01*
X0151884Y0021679D02*
X0150716Y0021679D01*
X0150964Y0022278D02*
X0151636Y0022278D01*
X0151600Y0022876D02*
X0151000Y0022876D01*
X0151000Y0023475D02*
X0151600Y0023475D01*
X0151600Y0024073D02*
X0151000Y0024073D01*
X0150819Y0024672D02*
X0151781Y0024672D01*
X0152029Y0025270D02*
X0150571Y0025270D01*
X0150323Y0025869D02*
X0152277Y0025869D01*
X0152820Y0026467D02*
X0149780Y0026467D01*
X0149181Y0027066D02*
X0153419Y0027066D01*
X0154555Y0027664D02*
X0148045Y0027664D01*
X0142820Y0026467D02*
X0139780Y0026467D01*
X0140323Y0025869D02*
X0142277Y0025869D01*
X0142029Y0025270D02*
X0140571Y0025270D01*
X0140819Y0024672D02*
X0141781Y0024672D01*
X0141600Y0024073D02*
X0141000Y0024073D01*
X0141000Y0023475D02*
X0141600Y0023475D01*
X0141600Y0022876D02*
X0141000Y0022876D01*
X0140964Y0022278D02*
X0141636Y0022278D01*
X0141884Y0021679D02*
X0140716Y0021679D01*
X0140468Y0021081D02*
X0142132Y0021081D01*
X0142471Y0020482D02*
X0140129Y0020482D01*
X0139530Y0019884D02*
X0143070Y0019884D01*
X0143711Y0019285D02*
X0138889Y0019285D01*
X0133711Y0019285D02*
X0128889Y0019285D01*
X0129530Y0019884D02*
X0133070Y0019884D01*
X0132471Y0020482D02*
X0130129Y0020482D01*
X0130468Y0021081D02*
X0132132Y0021081D01*
X0131884Y0021679D02*
X0130716Y0021679D01*
X0130964Y0022278D02*
X0131636Y0022278D01*
X0131600Y0022876D02*
X0131000Y0022876D01*
X0131000Y0023475D02*
X0131600Y0023475D01*
X0131600Y0024073D02*
X0131000Y0024073D01*
X0130819Y0024672D02*
X0131781Y0024672D01*
X0132029Y0025270D02*
X0130571Y0025270D01*
X0130323Y0025869D02*
X0132277Y0025869D01*
X0132820Y0026467D02*
X0129780Y0026467D01*
X0129181Y0027066D02*
X0133419Y0027066D01*
X0134555Y0027664D02*
X0128045Y0027664D01*
X0124555Y0027664D02*
X0118045Y0027664D01*
X0119181Y0027066D02*
X0123419Y0027066D01*
X0122820Y0026467D02*
X0119780Y0026467D01*
X0120323Y0025869D02*
X0122277Y0025869D01*
X0122029Y0025270D02*
X0120571Y0025270D01*
X0120819Y0024672D02*
X0121781Y0024672D01*
X0121600Y0024073D02*
X0121000Y0024073D01*
X0121000Y0023475D02*
X0121600Y0023475D01*
X0121600Y0022876D02*
X0121000Y0022876D01*
X0120964Y0022278D02*
X0121636Y0022278D01*
X0121884Y0021679D02*
X0120716Y0021679D01*
X0120468Y0021081D02*
X0122132Y0021081D01*
X0122471Y0020482D02*
X0120129Y0020482D01*
X0119530Y0019884D02*
X0123070Y0019884D01*
X0123711Y0019285D02*
X0118889Y0019285D01*
X0113711Y0019285D02*
X0088593Y0019285D01*
X0087994Y0019884D02*
X0113070Y0019884D01*
X0112471Y0020482D02*
X0087396Y0020482D01*
X0086797Y0021081D02*
X0112132Y0021081D01*
X0111884Y0021679D02*
X0086199Y0021679D01*
X0085600Y0022278D02*
X0111636Y0022278D01*
X0111600Y0022876D02*
X0085002Y0022876D01*
X0084403Y0023475D02*
X0111600Y0023475D01*
X0111600Y0024073D02*
X0083805Y0024073D01*
X0083206Y0024672D02*
X0111781Y0024672D01*
X0112029Y0025270D02*
X0082608Y0025270D01*
X0082009Y0025869D02*
X0112277Y0025869D01*
X0112820Y0026467D02*
X0081411Y0026467D01*
X0080812Y0027066D02*
X0113419Y0027066D01*
X0114555Y0027664D02*
X0080214Y0027664D01*
X0079615Y0028263D02*
X0141499Y0028263D01*
X0142097Y0027664D02*
X0138045Y0027664D01*
X0139181Y0027066D02*
X0142696Y0027066D01*
X0140900Y0028861D02*
X0079017Y0028861D01*
X0078418Y0029460D02*
X0140302Y0029460D01*
X0139703Y0030058D02*
X0077820Y0030058D01*
X0077221Y0030657D02*
X0139346Y0030657D01*
X0139346Y0031255D02*
X0076623Y0031255D01*
X0076024Y0031854D02*
X0139346Y0031854D01*
X0139346Y0032452D02*
X0075426Y0032452D01*
X0074827Y0033051D02*
X0139346Y0033051D01*
X0139346Y0033649D02*
X0074229Y0033649D01*
X0073630Y0034248D02*
X0139346Y0034248D01*
X0139346Y0034846D02*
X0073032Y0034846D01*
X0072433Y0035445D02*
X0139346Y0035445D01*
X0139346Y0036043D02*
X0071835Y0036043D01*
X0071236Y0036642D02*
X0139346Y0036642D01*
X0139346Y0037240D02*
X0070638Y0037240D01*
X0070039Y0037839D02*
X0139346Y0037839D01*
X0139346Y0038437D02*
X0069441Y0038437D01*
X0068842Y0039036D02*
X0139346Y0039036D01*
X0145246Y0050408D02*
X0212500Y0050408D01*
X0212500Y0051006D02*
X0145845Y0051006D01*
X0146443Y0051605D02*
X0212500Y0051605D01*
X0212500Y0052203D02*
X0147042Y0052203D01*
X0147640Y0052802D02*
X0212500Y0052802D01*
X0212500Y0053400D02*
X0191239Y0053400D01*
X0191837Y0053999D02*
X0212500Y0053999D01*
X0212500Y0054597D02*
X0192436Y0054597D01*
X0193034Y0055196D02*
X0212500Y0055196D01*
X0212500Y0055794D02*
X0198443Y0055794D01*
X0199888Y0056393D02*
X0212500Y0056393D01*
X0212500Y0056991D02*
X0200497Y0056991D01*
X0201095Y0057590D02*
X0212500Y0057590D01*
X0212500Y0058188D02*
X0201404Y0058188D01*
X0201652Y0058787D02*
X0212500Y0058787D01*
X0212500Y0059385D02*
X0201900Y0059385D01*
X0201900Y0059984D02*
X0212500Y0059984D01*
X0212500Y0060582D02*
X0201900Y0060582D01*
X0201900Y0061181D02*
X0212500Y0061181D01*
X0212500Y0061779D02*
X0201666Y0061779D01*
X0201418Y0062378D02*
X0212500Y0062378D01*
X0212500Y0062976D02*
X0201129Y0062976D01*
X0200530Y0063575D02*
X0212500Y0063575D01*
X0212500Y0064173D02*
X0199932Y0064173D01*
X0198524Y0064772D02*
X0212500Y0064772D01*
X0218100Y0064772D02*
X0224768Y0064772D01*
X0224581Y0064959D02*
X0225108Y0064431D01*
X0230185Y0064431D01*
X0230712Y0064959D01*
X0230712Y0069641D01*
X0230185Y0070168D01*
X0228946Y0070168D01*
X0228946Y0072431D01*
X0230185Y0072431D01*
X0230712Y0072959D01*
X0230712Y0077641D01*
X0230185Y0078168D01*
X0228946Y0078168D01*
X0228946Y0079492D01*
X0227600Y0080838D01*
X0227600Y0097262D01*
X0227931Y0097593D01*
X0227931Y0097246D01*
X0228459Y0096719D01*
X0235110Y0096719D01*
X0235637Y0097246D01*
X0235637Y0100748D01*
X0235110Y0101275D01*
X0228459Y0101275D01*
X0227931Y0100748D01*
X0227931Y0100297D01*
X0226958Y0100297D01*
X0225762Y0099100D01*
X0225000Y0098338D01*
X0225000Y0079762D01*
X0226346Y0078415D01*
X0226346Y0078168D01*
X0225108Y0078168D01*
X0224581Y0077641D01*
X0224581Y0072959D01*
X0225108Y0072431D01*
X0226346Y0072431D01*
X0226346Y0070168D01*
X0225108Y0070168D01*
X0224581Y0069641D01*
X0224581Y0064959D01*
X0224581Y0065370D02*
X0218100Y0065370D01*
X0218100Y0065969D02*
X0224581Y0065969D01*
X0224581Y0066568D02*
X0218100Y0066568D01*
X0218100Y0067166D02*
X0224581Y0067166D01*
X0224581Y0067765D02*
X0218100Y0067765D01*
X0218100Y0068363D02*
X0224581Y0068363D01*
X0224581Y0068962D02*
X0218100Y0068962D01*
X0218100Y0069560D02*
X0224581Y0069560D01*
X0225098Y0070159D02*
X0218100Y0070159D01*
X0218100Y0070757D02*
X0226346Y0070757D01*
X0226346Y0071356D02*
X0218100Y0071356D01*
X0218100Y0071954D02*
X0226346Y0071954D01*
X0224987Y0072553D02*
X0223613Y0072553D01*
X0224019Y0073151D02*
X0224581Y0073151D01*
X0224581Y0073750D02*
X0224019Y0073750D01*
X0224019Y0074348D02*
X0224581Y0074348D01*
X0224581Y0074947D02*
X0224019Y0074947D01*
X0224019Y0075545D02*
X0224581Y0075545D01*
X0224581Y0076144D02*
X0224019Y0076144D01*
X0224019Y0076742D02*
X0224581Y0076742D01*
X0224581Y0077341D02*
X0224019Y0077341D01*
X0223721Y0077939D02*
X0224879Y0077939D01*
X0225625Y0079136D02*
X0216600Y0079136D01*
X0216600Y0078538D02*
X0226224Y0078538D01*
X0225027Y0079735D02*
X0216600Y0079735D01*
X0216600Y0080333D02*
X0225000Y0080333D01*
X0225000Y0080932D02*
X0216600Y0080932D01*
X0216600Y0081530D02*
X0225000Y0081530D01*
X0225000Y0082129D02*
X0216600Y0082129D01*
X0216600Y0082727D02*
X0225000Y0082727D01*
X0225000Y0083326D02*
X0216600Y0083326D01*
X0216600Y0083924D02*
X0225000Y0083924D01*
X0225000Y0084523D02*
X0216600Y0084523D01*
X0216600Y0085121D02*
X0225000Y0085121D01*
X0225000Y0085720D02*
X0216600Y0085720D01*
X0216600Y0086318D02*
X0225000Y0086318D01*
X0225000Y0086917D02*
X0216600Y0086917D01*
X0216600Y0087515D02*
X0225000Y0087515D01*
X0225000Y0088114D02*
X0216600Y0088114D01*
X0216600Y0088712D02*
X0225000Y0088712D01*
X0225000Y0089311D02*
X0216128Y0089311D01*
X0215529Y0089909D02*
X0225000Y0089909D01*
X0225000Y0090508D02*
X0214930Y0090508D01*
X0214332Y0091106D02*
X0225000Y0091106D01*
X0225000Y0091705D02*
X0213733Y0091705D01*
X0213135Y0092303D02*
X0225000Y0092303D01*
X0225000Y0092902D02*
X0212536Y0092902D01*
X0211938Y0093501D02*
X0225000Y0093501D01*
X0225000Y0094099D02*
X0211339Y0094099D01*
X0210741Y0094698D02*
X0225000Y0094698D01*
X0225000Y0095296D02*
X0210142Y0095296D01*
X0201860Y0098289D02*
X0225000Y0098289D01*
X0225000Y0097690D02*
X0201612Y0097690D01*
X0201364Y0097092D02*
X0225000Y0097092D01*
X0225000Y0096493D02*
X0200998Y0096493D01*
X0200400Y0095895D02*
X0225000Y0095895D01*
X0227600Y0095895D02*
X0227931Y0095895D01*
X0227931Y0096023D02*
X0227931Y0092522D01*
X0228459Y0091994D01*
X0235110Y0091994D01*
X0235637Y0092522D01*
X0235637Y0096023D01*
X0235110Y0096550D01*
X0228459Y0096550D01*
X0227931Y0096023D01*
X0227600Y0096493D02*
X0228401Y0096493D01*
X0228086Y0097092D02*
X0227600Y0097092D01*
X0227600Y0095296D02*
X0227931Y0095296D01*
X0227931Y0094698D02*
X0227600Y0094698D01*
X0227600Y0094099D02*
X0227931Y0094099D01*
X0227931Y0093501D02*
X0227600Y0093501D01*
X0227600Y0092902D02*
X0227931Y0092902D01*
X0228150Y0092303D02*
X0227600Y0092303D01*
X0227600Y0091705D02*
X0236002Y0091705D01*
X0236002Y0092303D02*
X0235419Y0092303D01*
X0235637Y0092902D02*
X0236228Y0092902D01*
X0236002Y0092677D02*
X0236002Y0086026D01*
X0236530Y0085498D01*
X0236980Y0085498D01*
X0236980Y0083319D01*
X0236262Y0082600D01*
X0235500Y0081838D01*
X0235500Y0076468D01*
X0233671Y0076468D01*
X0233144Y0075941D01*
X0233144Y0070471D01*
X0233671Y0069943D01*
X0239929Y0069943D01*
X0240456Y0070471D01*
X0240456Y0075941D01*
X0239929Y0076468D01*
X0238100Y0076468D01*
X0238100Y0080762D01*
X0239580Y0082242D01*
X0239580Y0085498D01*
X0240031Y0085498D01*
X0240558Y0086026D01*
X0240558Y0092677D01*
X0240031Y0093204D01*
X0236530Y0093204D01*
X0236002Y0092677D01*
X0235637Y0093501D02*
X0259778Y0093501D01*
X0259778Y0094099D02*
X0235637Y0094099D01*
X0235637Y0094698D02*
X0259778Y0094698D01*
X0259778Y0095296D02*
X0235637Y0095296D01*
X0235637Y0095895D02*
X0259778Y0095895D01*
X0259778Y0096493D02*
X0235167Y0096493D01*
X0235482Y0097092D02*
X0259778Y0097092D01*
X0259778Y0097690D02*
X0235637Y0097690D01*
X0235637Y0098289D02*
X0259778Y0098289D01*
X0259778Y0098887D02*
X0235637Y0098887D01*
X0235637Y0099486D02*
X0259778Y0099486D01*
X0259778Y0100084D02*
X0235637Y0100084D01*
X0235637Y0100683D02*
X0259778Y0100683D01*
X0259778Y0101281D02*
X0201458Y0101281D01*
X0201706Y0100683D02*
X0227931Y0100683D01*
X0228022Y0101880D02*
X0201210Y0101880D01*
X0200627Y0102478D02*
X0227931Y0102478D01*
X0227931Y0103077D02*
X0200029Y0103077D01*
X0198758Y0103675D02*
X0227931Y0103675D01*
X0226746Y0100084D02*
X0201900Y0100084D01*
X0201900Y0099486D02*
X0226147Y0099486D01*
X0225549Y0098887D02*
X0201900Y0098887D01*
X0194571Y0103077D02*
X0190029Y0103077D01*
X0190627Y0102478D02*
X0193973Y0102478D01*
X0193390Y0101880D02*
X0191210Y0101880D01*
X0191458Y0101281D02*
X0193142Y0101281D01*
X0192894Y0100683D02*
X0191706Y0100683D01*
X0191900Y0100084D02*
X0192700Y0100084D01*
X0192700Y0099486D02*
X0191900Y0099486D01*
X0191900Y0098887D02*
X0192700Y0098887D01*
X0192740Y0098289D02*
X0191860Y0098289D01*
X0191612Y0097690D02*
X0192988Y0097690D01*
X0193236Y0097092D02*
X0191364Y0097092D01*
X0191945Y0096493D02*
X0193602Y0096493D01*
X0194200Y0095895D02*
X0192544Y0095895D01*
X0198039Y0106069D02*
X0259778Y0106069D01*
X0259778Y0105471D02*
X0235637Y0105471D01*
X0235637Y0104872D02*
X0259778Y0104872D01*
X0259778Y0104274D02*
X0235637Y0104274D01*
X0235637Y0103675D02*
X0259778Y0103675D01*
X0259778Y0103077D02*
X0235637Y0103077D01*
X0235637Y0102478D02*
X0259778Y0102478D01*
X0259778Y0101880D02*
X0235546Y0101880D01*
X0235610Y0106668D02*
X0259778Y0106668D01*
X0259778Y0107266D02*
X0235637Y0107266D01*
X0235637Y0107865D02*
X0259778Y0107865D01*
X0259778Y0108463D02*
X0235637Y0108463D01*
X0235637Y0109062D02*
X0259778Y0109062D01*
X0259778Y0109660D02*
X0235637Y0109660D01*
X0235575Y0110259D02*
X0259778Y0110259D01*
X0259778Y0110857D02*
X0226081Y0110857D01*
X0226680Y0110259D02*
X0227994Y0110259D01*
X0227931Y0111456D02*
X0225483Y0111456D01*
X0224884Y0112054D02*
X0226207Y0112054D01*
X0225609Y0112653D02*
X0224286Y0112653D01*
X0224100Y0113251D02*
X0225010Y0113251D01*
X0224412Y0113850D02*
X0224100Y0113850D01*
X0226293Y0115645D02*
X0228430Y0115645D01*
X0228459Y0115617D02*
X0235110Y0115617D01*
X0235637Y0116144D01*
X0235637Y0119645D01*
X0235110Y0120172D01*
X0228459Y0120172D01*
X0227931Y0119645D01*
X0227931Y0116144D01*
X0228459Y0115617D01*
X0228058Y0115047D02*
X0226892Y0115047D01*
X0227931Y0116244D02*
X0225695Y0116244D01*
X0225600Y0116842D02*
X0227931Y0116842D01*
X0227931Y0117441D02*
X0225600Y0117441D01*
X0225600Y0118039D02*
X0227931Y0118039D01*
X0227931Y0118638D02*
X0225600Y0118638D01*
X0225600Y0119237D02*
X0227931Y0119237D01*
X0228121Y0119835D02*
X0225600Y0119835D01*
X0225600Y0120434D02*
X0236002Y0120434D01*
X0236002Y0121032D02*
X0225600Y0121032D01*
X0225600Y0121631D02*
X0236002Y0121631D01*
X0236002Y0122229D02*
X0225600Y0122229D01*
X0225600Y0122828D02*
X0236002Y0122828D01*
X0236002Y0123426D02*
X0225600Y0123426D01*
X0225600Y0124025D02*
X0236002Y0124025D01*
X0236002Y0124623D02*
X0225600Y0124623D01*
X0225600Y0125222D02*
X0236002Y0125222D01*
X0236002Y0125820D02*
X0225600Y0125820D01*
X0225600Y0126419D02*
X0236280Y0126419D01*
X0236530Y0126668D02*
X0236002Y0126141D01*
X0236002Y0119490D01*
X0236530Y0118963D01*
X0240031Y0118963D01*
X0240558Y0119490D01*
X0240558Y0126141D01*
X0240031Y0126668D01*
X0236530Y0126668D01*
X0240281Y0126419D02*
X0241004Y0126419D01*
X0241254Y0126668D02*
X0240727Y0126141D01*
X0240727Y0119490D01*
X0241254Y0118963D01*
X0244755Y0118963D01*
X0245283Y0119490D01*
X0245283Y0126141D01*
X0244755Y0126668D01*
X0241254Y0126668D01*
X0240727Y0125820D02*
X0240558Y0125820D01*
X0240558Y0125222D02*
X0240727Y0125222D01*
X0240727Y0124623D02*
X0240558Y0124623D01*
X0240558Y0124025D02*
X0240727Y0124025D01*
X0240727Y0123426D02*
X0240558Y0123426D01*
X0240558Y0122828D02*
X0240727Y0122828D01*
X0240727Y0122229D02*
X0240558Y0122229D01*
X0240558Y0121631D02*
X0240727Y0121631D01*
X0240727Y0121032D02*
X0240558Y0121032D01*
X0240558Y0120434D02*
X0240727Y0120434D01*
X0240727Y0119835D02*
X0240558Y0119835D01*
X0240305Y0119237D02*
X0240980Y0119237D01*
X0245029Y0119237D02*
X0245705Y0119237D01*
X0245451Y0119490D02*
X0245978Y0118963D01*
X0249480Y0118963D01*
X0250007Y0119490D01*
X0250007Y0126141D01*
X0249480Y0126668D01*
X0245978Y0126668D01*
X0245451Y0126141D01*
X0245451Y0119490D01*
X0245451Y0119835D02*
X0245283Y0119835D01*
X0245283Y0120434D02*
X0245451Y0120434D01*
X0245451Y0121032D02*
X0245283Y0121032D01*
X0245283Y0121631D02*
X0245451Y0121631D01*
X0245451Y0122229D02*
X0245283Y0122229D01*
X0245283Y0122828D02*
X0245451Y0122828D01*
X0245451Y0123426D02*
X0245283Y0123426D01*
X0245283Y0124025D02*
X0245451Y0124025D01*
X0245451Y0124623D02*
X0245283Y0124623D01*
X0245283Y0125222D02*
X0245451Y0125222D01*
X0245451Y0125820D02*
X0245283Y0125820D01*
X0245005Y0126419D02*
X0245729Y0126419D01*
X0249730Y0126419D02*
X0255177Y0126419D01*
X0255427Y0126668D02*
X0254900Y0126141D01*
X0254900Y0119490D01*
X0255427Y0118963D01*
X0258929Y0118963D01*
X0259456Y0119490D01*
X0259456Y0126141D01*
X0258929Y0126668D01*
X0255427Y0126668D01*
X0254900Y0125820D02*
X0250007Y0125820D01*
X0250007Y0125222D02*
X0254900Y0125222D01*
X0254900Y0124623D02*
X0250007Y0124623D01*
X0250007Y0124025D02*
X0254900Y0124025D01*
X0254900Y0123426D02*
X0250007Y0123426D01*
X0250007Y0122828D02*
X0254900Y0122828D01*
X0254900Y0122229D02*
X0250007Y0122229D01*
X0250007Y0121631D02*
X0254900Y0121631D01*
X0254900Y0121032D02*
X0250007Y0121032D01*
X0250007Y0120434D02*
X0254900Y0120434D01*
X0254900Y0119835D02*
X0250007Y0119835D01*
X0249753Y0119237D02*
X0255154Y0119237D01*
X0259202Y0119237D02*
X0259778Y0119237D01*
X0259778Y0119835D02*
X0259456Y0119835D01*
X0259456Y0120434D02*
X0259778Y0120434D01*
X0259778Y0121032D02*
X0259456Y0121032D01*
X0259456Y0121631D02*
X0259778Y0121631D01*
X0259778Y0122229D02*
X0259456Y0122229D01*
X0259456Y0122828D02*
X0259778Y0122828D01*
X0259600Y0123426D02*
X0259456Y0123426D01*
X0259456Y0124025D02*
X0259600Y0124025D01*
X0259600Y0124623D02*
X0259456Y0124623D01*
X0259456Y0125222D02*
X0259600Y0125222D01*
X0259600Y0125820D02*
X0259456Y0125820D01*
X0259600Y0126419D02*
X0259179Y0126419D01*
X0259600Y0127017D02*
X0225600Y0127017D01*
X0225600Y0127616D02*
X0259600Y0127616D01*
X0259600Y0128214D02*
X0225600Y0128214D01*
X0225600Y0128813D02*
X0259600Y0128813D01*
X0259600Y0129411D02*
X0225600Y0129411D01*
X0225600Y0130010D02*
X0259600Y0130010D01*
X0259600Y0130608D02*
X0225600Y0130608D01*
X0225600Y0131207D02*
X0259600Y0131207D01*
X0259600Y0131805D02*
X0225600Y0131805D01*
X0225600Y0132404D02*
X0259600Y0132404D01*
X0259600Y0133002D02*
X0225600Y0133002D01*
X0225600Y0133601D02*
X0259600Y0133601D01*
X0259600Y0134199D02*
X0239952Y0134199D01*
X0240168Y0134798D02*
X0259600Y0134798D01*
X0259600Y0135396D02*
X0240168Y0135396D01*
X0240168Y0135995D02*
X0259600Y0135995D01*
X0259600Y0136593D02*
X0240168Y0136593D01*
X0240168Y0137192D02*
X0259600Y0137192D01*
X0259600Y0137790D02*
X0240168Y0137790D01*
X0240168Y0138389D02*
X0259600Y0138389D01*
X0259600Y0138987D02*
X0240168Y0138987D01*
X0240074Y0139586D02*
X0259600Y0139586D01*
X0259600Y0140184D02*
X0224100Y0140184D01*
X0224100Y0139586D02*
X0226526Y0139586D01*
X0226431Y0138987D02*
X0224100Y0138987D01*
X0224100Y0138389D02*
X0226431Y0138389D01*
X0225452Y0137790D02*
X0224100Y0137790D01*
X0224100Y0137192D02*
X0224853Y0137192D01*
X0224255Y0136593D02*
X0224100Y0136593D01*
X0221500Y0136593D02*
X0203600Y0136593D01*
X0203600Y0135995D02*
X0221500Y0135995D01*
X0221500Y0137192D02*
X0203600Y0137192D01*
X0203600Y0137790D02*
X0221500Y0137790D01*
X0221500Y0138389D02*
X0203600Y0138389D01*
X0203600Y0138987D02*
X0221500Y0138987D01*
X0221500Y0139586D02*
X0203600Y0139586D01*
X0203600Y0140184D02*
X0221500Y0140184D01*
X0221500Y0140783D02*
X0203600Y0140783D01*
X0203600Y0141381D02*
X0221500Y0141381D01*
X0221500Y0141980D02*
X0203600Y0141980D01*
X0203600Y0142578D02*
X0221500Y0142578D01*
X0221500Y0143177D02*
X0203600Y0143177D01*
X0203600Y0143775D02*
X0221500Y0143775D01*
X0221500Y0144374D02*
X0203600Y0144374D01*
X0203600Y0144972D02*
X0221500Y0144972D01*
X0221500Y0145571D02*
X0203600Y0145571D01*
X0203600Y0146170D02*
X0221500Y0146170D01*
X0221500Y0146768D02*
X0203600Y0146768D01*
X0203600Y0147367D02*
X0221491Y0147367D01*
X0221627Y0147965D02*
X0203600Y0147965D01*
X0203600Y0148564D02*
X0222171Y0148564D01*
X0222683Y0149162D02*
X0203600Y0149162D01*
X0203600Y0149761D02*
X0223196Y0149761D01*
X0223709Y0150359D02*
X0203600Y0150359D01*
X0203600Y0150958D02*
X0224222Y0150958D01*
X0224718Y0151556D02*
X0203600Y0151556D01*
X0203600Y0152155D02*
X0238336Y0152155D01*
X0238935Y0152753D02*
X0203600Y0152753D01*
X0203600Y0153352D02*
X0239533Y0153352D01*
X0240132Y0153950D02*
X0203600Y0153950D01*
X0203600Y0154549D02*
X0240730Y0154549D01*
X0241329Y0155147D02*
X0203600Y0155147D01*
X0203600Y0155746D02*
X0241927Y0155746D01*
X0242526Y0156344D02*
X0203600Y0156344D01*
X0203600Y0156943D02*
X0243124Y0156943D01*
X0243600Y0157541D02*
X0203600Y0157541D01*
X0203600Y0158140D02*
X0243600Y0158140D01*
X0243600Y0158738D02*
X0203600Y0158738D01*
X0203600Y0159337D02*
X0243600Y0159337D01*
X0243600Y0159935D02*
X0203600Y0159935D01*
X0203600Y0160534D02*
X0243600Y0160534D01*
X0243600Y0161132D02*
X0203600Y0161132D01*
X0203600Y0161731D02*
X0243600Y0161731D01*
X0243600Y0162329D02*
X0203600Y0162329D01*
X0203600Y0162928D02*
X0243600Y0162928D01*
X0243600Y0163526D02*
X0203600Y0163526D01*
X0203600Y0164125D02*
X0243600Y0164125D01*
X0243600Y0164723D02*
X0203600Y0164723D01*
X0203600Y0165322D02*
X0243600Y0165322D01*
X0243600Y0165920D02*
X0203600Y0165920D01*
X0203600Y0166519D02*
X0243600Y0166519D01*
X0243600Y0167117D02*
X0203600Y0167117D01*
X0203600Y0167716D02*
X0243600Y0167716D01*
X0243600Y0168314D02*
X0203600Y0168314D01*
X0203600Y0168913D02*
X0243600Y0168913D01*
X0243600Y0169511D02*
X0203600Y0169511D01*
X0203600Y0170110D02*
X0243600Y0170110D01*
X0243600Y0170708D02*
X0203600Y0170708D01*
X0203600Y0171307D02*
X0243600Y0171307D01*
X0243600Y0171905D02*
X0203600Y0171905D01*
X0203600Y0172504D02*
X0243600Y0172504D01*
X0243600Y0173103D02*
X0203600Y0173103D01*
X0203600Y0173701D02*
X0243600Y0173701D01*
X0243600Y0174300D02*
X0203600Y0174300D01*
X0203600Y0174898D02*
X0243600Y0174898D01*
X0243600Y0175497D02*
X0203600Y0175497D01*
X0203600Y0176095D02*
X0243600Y0176095D01*
X0243600Y0176694D02*
X0203600Y0176694D01*
X0203600Y0177292D02*
X0243600Y0177292D01*
X0243600Y0177891D02*
X0203600Y0177891D01*
X0203600Y0178489D02*
X0243600Y0178489D01*
X0243600Y0179088D02*
X0203600Y0179088D01*
X0203600Y0179686D02*
X0243600Y0179686D01*
X0243600Y0180285D02*
X0203600Y0180285D01*
X0203600Y0180883D02*
X0243600Y0180883D01*
X0243600Y0181482D02*
X0203600Y0181482D01*
X0203358Y0182080D02*
X0243600Y0182080D01*
X0243600Y0182679D02*
X0202760Y0182679D01*
X0202161Y0183277D02*
X0243600Y0183277D01*
X0243600Y0183876D02*
X0201563Y0183876D01*
X0200964Y0184474D02*
X0243600Y0184474D01*
X0243600Y0185073D02*
X0200366Y0185073D01*
X0199767Y0185671D02*
X0243600Y0185671D01*
X0243600Y0186270D02*
X0199169Y0186270D01*
X0198570Y0186868D02*
X0243600Y0186868D01*
X0243600Y0187467D02*
X0197972Y0187467D01*
X0197600Y0188065D02*
X0243600Y0188065D01*
X0243600Y0188664D02*
X0197600Y0188664D01*
X0197600Y0189262D02*
X0243600Y0189262D01*
X0243600Y0189861D02*
X0197600Y0189861D01*
X0197600Y0190459D02*
X0243600Y0190459D01*
X0243600Y0191058D02*
X0197600Y0191058D01*
X0197600Y0191656D02*
X0243600Y0191656D01*
X0243600Y0192255D02*
X0197600Y0192255D01*
X0197600Y0192853D02*
X0243600Y0192853D01*
X0243600Y0193452D02*
X0197600Y0193452D01*
X0197600Y0194050D02*
X0243600Y0194050D01*
X0243600Y0194649D02*
X0197600Y0194649D01*
X0197600Y0195247D02*
X0243600Y0195247D01*
X0243600Y0195846D02*
X0197600Y0195846D01*
X0197600Y0196444D02*
X0243600Y0196444D01*
X0243600Y0197043D02*
X0197600Y0197043D01*
X0197600Y0197641D02*
X0243600Y0197641D01*
X0243600Y0198240D02*
X0197600Y0198240D01*
X0197600Y0198839D02*
X0243600Y0198839D01*
X0243600Y0199437D02*
X0197600Y0199437D01*
X0197600Y0200036D02*
X0243600Y0200036D01*
X0243600Y0200634D02*
X0197600Y0200634D01*
X0197600Y0201233D02*
X0243600Y0201233D01*
X0243600Y0201831D02*
X0197600Y0201831D01*
X0197600Y0202430D02*
X0243600Y0202430D01*
X0243600Y0203028D02*
X0197600Y0203028D01*
X0197600Y0203627D02*
X0243600Y0203627D01*
X0243600Y0204225D02*
X0197600Y0204225D01*
X0197600Y0204824D02*
X0243600Y0204824D01*
X0243600Y0205422D02*
X0197600Y0205422D01*
X0197600Y0206021D02*
X0243600Y0206021D01*
X0243600Y0206619D02*
X0197600Y0206619D01*
X0197600Y0207218D02*
X0243044Y0207218D01*
X0242445Y0207816D02*
X0197600Y0207816D01*
X0197600Y0208415D02*
X0241847Y0208415D01*
X0241248Y0209013D02*
X0238232Y0209013D01*
X0239259Y0209612D02*
X0240650Y0209612D01*
X0240051Y0210210D02*
X0239857Y0210210D01*
X0234368Y0209013D02*
X0228232Y0209013D01*
X0228962Y0209316D02*
X0227235Y0208600D01*
X0225365Y0208600D01*
X0223638Y0209316D01*
X0222316Y0210638D01*
X0221600Y0212365D01*
X0221600Y0214235D01*
X0222316Y0215962D01*
X0223638Y0217284D01*
X0225365Y0218000D01*
X0227235Y0218000D01*
X0228962Y0217284D01*
X0230284Y0215962D01*
X0231000Y0214235D01*
X0231000Y0212365D01*
X0230284Y0210638D01*
X0228962Y0209316D01*
X0229259Y0209612D02*
X0233341Y0209612D01*
X0232743Y0210210D02*
X0229857Y0210210D01*
X0230355Y0210809D02*
X0232245Y0210809D01*
X0231997Y0211407D02*
X0230603Y0211407D01*
X0230851Y0212006D02*
X0231749Y0212006D01*
X0231600Y0212604D02*
X0231000Y0212604D01*
X0231000Y0213203D02*
X0231600Y0213203D01*
X0231600Y0213801D02*
X0231000Y0213801D01*
X0230932Y0214400D02*
X0231668Y0214400D01*
X0231916Y0214998D02*
X0230684Y0214998D01*
X0230436Y0215597D02*
X0232164Y0215597D01*
X0232549Y0216195D02*
X0230051Y0216195D01*
X0229453Y0216794D02*
X0233147Y0216794D01*
X0233898Y0217392D02*
X0228702Y0217392D01*
X0227257Y0217991D02*
X0235343Y0217991D01*
X0237257Y0217991D02*
X0240000Y0217991D01*
X0240000Y0217392D02*
X0238702Y0217392D01*
X0239453Y0216794D02*
X0240000Y0216794D01*
X0240251Y0218589D02*
X0217600Y0218589D01*
X0217600Y0217991D02*
X0225343Y0217991D01*
X0223898Y0217392D02*
X0218702Y0217392D01*
X0219453Y0216794D02*
X0223147Y0216794D01*
X0222549Y0216195D02*
X0220051Y0216195D01*
X0220436Y0215597D02*
X0222164Y0215597D01*
X0221916Y0214998D02*
X0220684Y0214998D01*
X0220932Y0214400D02*
X0221668Y0214400D01*
X0221600Y0213801D02*
X0221000Y0213801D01*
X0221000Y0213203D02*
X0221600Y0213203D01*
X0221600Y0212604D02*
X0221000Y0212604D01*
X0220851Y0212006D02*
X0221749Y0212006D01*
X0221997Y0211407D02*
X0220603Y0211407D01*
X0220355Y0210809D02*
X0222245Y0210809D01*
X0222743Y0210210D02*
X0219857Y0210210D01*
X0219259Y0209612D02*
X0223341Y0209612D01*
X0224368Y0209013D02*
X0218232Y0209013D01*
X0214368Y0209013D02*
X0208232Y0209013D01*
X0209259Y0209612D02*
X0213341Y0209612D01*
X0212743Y0210210D02*
X0209857Y0210210D01*
X0210355Y0210809D02*
X0212245Y0210809D01*
X0211997Y0211407D02*
X0210603Y0211407D01*
X0210851Y0212006D02*
X0211749Y0212006D01*
X0211600Y0212604D02*
X0211000Y0212604D01*
X0211000Y0213203D02*
X0211600Y0213203D01*
X0211600Y0213801D02*
X0211000Y0213801D01*
X0210932Y0214400D02*
X0211668Y0214400D01*
X0211916Y0214998D02*
X0210684Y0214998D01*
X0210436Y0215597D02*
X0212164Y0215597D01*
X0212549Y0216195D02*
X0210051Y0216195D01*
X0209453Y0216794D02*
X0213147Y0216794D01*
X0213898Y0217392D02*
X0208702Y0217392D01*
X0207257Y0217991D02*
X0214751Y0217991D01*
X0216632Y0219786D02*
X0241448Y0219786D01*
X0240849Y0219188D02*
X0217231Y0219188D01*
X0216034Y0220385D02*
X0242046Y0220385D01*
X0242645Y0220983D02*
X0215435Y0220983D01*
X0203147Y0216794D02*
X0199453Y0216794D01*
X0200051Y0216195D02*
X0202549Y0216195D01*
X0202164Y0215597D02*
X0200436Y0215597D01*
X0200684Y0214998D02*
X0201916Y0214998D01*
X0201668Y0214400D02*
X0200932Y0214400D01*
X0201000Y0213801D02*
X0201600Y0213801D01*
X0201600Y0213203D02*
X0201000Y0213203D01*
X0201000Y0212604D02*
X0201600Y0212604D01*
X0201749Y0212006D02*
X0200851Y0212006D01*
X0200603Y0211407D02*
X0201997Y0211407D01*
X0202245Y0210809D02*
X0200355Y0210809D01*
X0199857Y0210210D02*
X0202743Y0210210D01*
X0203341Y0209612D02*
X0199259Y0209612D01*
X0198232Y0209013D02*
X0204368Y0209013D01*
X0191102Y0217991D02*
X0187257Y0217991D01*
X0188702Y0217392D02*
X0190504Y0217392D01*
X0190000Y0216794D02*
X0189453Y0216794D01*
X0185343Y0217991D02*
X0171257Y0217991D01*
X0172702Y0217392D02*
X0183898Y0217392D01*
X0183147Y0216794D02*
X0173453Y0216794D01*
X0174051Y0216195D02*
X0182549Y0216195D01*
X0182164Y0215597D02*
X0174436Y0215597D01*
X0174684Y0214998D02*
X0181916Y0214998D01*
X0181668Y0214400D02*
X0174932Y0214400D01*
X0175000Y0213801D02*
X0181600Y0213801D01*
X0181600Y0213203D02*
X0175000Y0213203D01*
X0175000Y0212604D02*
X0181600Y0212604D01*
X0181749Y0212006D02*
X0174851Y0212006D01*
X0174603Y0211407D02*
X0181997Y0211407D01*
X0182245Y0210809D02*
X0174355Y0210809D01*
X0173857Y0210210D02*
X0182743Y0210210D01*
X0183341Y0209612D02*
X0173259Y0209612D01*
X0172232Y0209013D02*
X0184368Y0209013D01*
X0185000Y0208415D02*
X0172524Y0208415D01*
X0173122Y0207816D02*
X0185000Y0207816D01*
X0185000Y0207218D02*
X0173721Y0207218D01*
X0174319Y0206619D02*
X0185000Y0206619D01*
X0185000Y0206021D02*
X0174918Y0206021D01*
X0175516Y0205422D02*
X0185000Y0205422D01*
X0185000Y0204824D02*
X0176115Y0204824D01*
X0176713Y0204225D02*
X0185000Y0204225D01*
X0185000Y0203627D02*
X0177312Y0203627D01*
X0177910Y0203028D02*
X0185000Y0203028D01*
X0185000Y0202430D02*
X0178509Y0202430D01*
X0178600Y0201831D02*
X0185000Y0201831D01*
X0185000Y0201233D02*
X0178600Y0201233D01*
X0178600Y0200634D02*
X0185000Y0200634D01*
X0185000Y0200036D02*
X0178600Y0200036D01*
X0178600Y0199437D02*
X0185000Y0199437D01*
X0185000Y0198839D02*
X0178600Y0198839D01*
X0178600Y0198240D02*
X0185000Y0198240D01*
X0185000Y0197641D02*
X0178600Y0197641D01*
X0178600Y0197043D02*
X0185000Y0197043D01*
X0185000Y0196444D02*
X0178600Y0196444D01*
X0178600Y0195846D02*
X0185000Y0195846D01*
X0185000Y0195247D02*
X0178600Y0195247D01*
X0178600Y0194649D02*
X0185000Y0194649D01*
X0185000Y0194050D02*
X0178600Y0194050D01*
X0178600Y0193452D02*
X0185000Y0193452D01*
X0185000Y0192853D02*
X0178600Y0192853D01*
X0178600Y0192255D02*
X0185000Y0192255D01*
X0185000Y0191656D02*
X0178600Y0191656D01*
X0178600Y0191058D02*
X0185000Y0191058D01*
X0185000Y0190459D02*
X0178600Y0190459D01*
X0178600Y0189861D02*
X0185000Y0189861D01*
X0185000Y0189262D02*
X0178600Y0189262D01*
X0178600Y0188664D02*
X0185000Y0188664D01*
X0185000Y0188065D02*
X0178600Y0188065D01*
X0178600Y0187467D02*
X0185000Y0187467D01*
X0185000Y0186868D02*
X0178600Y0186868D01*
X0178600Y0186270D02*
X0185000Y0186270D01*
X0185000Y0185671D02*
X0178600Y0185671D01*
X0178600Y0185073D02*
X0185000Y0185073D01*
X0185000Y0184474D02*
X0178600Y0184474D01*
X0178600Y0183876D02*
X0185000Y0183876D01*
X0185000Y0183277D02*
X0178600Y0183277D01*
X0178600Y0182679D02*
X0185000Y0182679D01*
X0185000Y0182080D02*
X0178600Y0182080D01*
X0178600Y0181482D02*
X0185000Y0181482D01*
X0184378Y0180883D02*
X0178600Y0180883D01*
X0178600Y0180285D02*
X0183779Y0180285D01*
X0183309Y0179686D02*
X0178600Y0179686D01*
X0178600Y0179088D02*
X0183061Y0179088D01*
X0182814Y0178489D02*
X0178600Y0178489D01*
X0178600Y0177891D02*
X0182700Y0177891D01*
X0182700Y0177292D02*
X0178600Y0177292D01*
X0178600Y0176694D02*
X0182700Y0176694D01*
X0182820Y0176095D02*
X0178600Y0176095D01*
X0178600Y0175497D02*
X0183068Y0175497D01*
X0183316Y0174898D02*
X0178600Y0174898D01*
X0178600Y0174300D02*
X0183795Y0174300D01*
X0184394Y0173701D02*
X0178600Y0173701D01*
X0178600Y0173103D02*
X0185413Y0173103D01*
X0189187Y0173103D02*
X0191000Y0173103D01*
X0191000Y0173701D02*
X0190206Y0173701D01*
X0190805Y0174300D02*
X0191000Y0174300D01*
X0191000Y0172504D02*
X0178600Y0172504D01*
X0178600Y0171905D02*
X0191000Y0171905D01*
X0191000Y0171307D02*
X0178600Y0171307D01*
X0178600Y0170708D02*
X0191000Y0170708D01*
X0191000Y0170110D02*
X0178600Y0170110D01*
X0178600Y0169511D02*
X0191000Y0169511D01*
X0191000Y0168913D02*
X0178600Y0168913D01*
X0179124Y0168314D02*
X0184971Y0168314D01*
X0184211Y0167716D02*
X0179723Y0167716D01*
X0180321Y0167117D02*
X0183612Y0167117D01*
X0183240Y0166519D02*
X0180920Y0166519D01*
X0181518Y0165920D02*
X0182992Y0165920D01*
X0189629Y0168314D02*
X0191000Y0168314D01*
X0191000Y0167716D02*
X0190389Y0167716D01*
X0190988Y0167117D02*
X0191000Y0167117D01*
X0224100Y0146768D02*
X0236000Y0146768D01*
X0236000Y0147367D02*
X0224569Y0147367D01*
X0225082Y0147965D02*
X0236127Y0147965D01*
X0236725Y0148564D02*
X0225594Y0148564D01*
X0226107Y0149162D02*
X0237324Y0149162D01*
X0239205Y0147367D02*
X0259600Y0147367D01*
X0259600Y0146768D02*
X0238606Y0146768D01*
X0240168Y0146170D02*
X0259600Y0146170D01*
X0259600Y0145571D02*
X0240168Y0145571D01*
X0240168Y0144972D02*
X0259600Y0144972D01*
X0259600Y0144374D02*
X0240168Y0144374D01*
X0240168Y0143775D02*
X0259600Y0143775D01*
X0259600Y0143177D02*
X0240168Y0143177D01*
X0240168Y0142578D02*
X0259600Y0142578D01*
X0259600Y0141980D02*
X0240168Y0141980D01*
X0240168Y0141381D02*
X0259600Y0141381D01*
X0259600Y0140783D02*
X0239843Y0140783D01*
X0234757Y0140783D02*
X0224100Y0140783D01*
X0224100Y0141381D02*
X0234431Y0141381D01*
X0234431Y0141980D02*
X0224100Y0141980D01*
X0224100Y0142578D02*
X0234431Y0142578D01*
X0234431Y0143177D02*
X0224100Y0143177D01*
X0224100Y0143775D02*
X0234431Y0143775D01*
X0234431Y0144374D02*
X0224100Y0144374D01*
X0224100Y0144972D02*
X0234431Y0144972D01*
X0234431Y0145571D02*
X0224100Y0145571D01*
X0224100Y0146170D02*
X0234431Y0146170D01*
X0239804Y0147965D02*
X0259543Y0147965D01*
X0259007Y0148564D02*
X0240402Y0148564D01*
X0241001Y0149162D02*
X0258760Y0149162D01*
X0258512Y0149761D02*
X0241599Y0149761D01*
X0242198Y0150359D02*
X0258264Y0150359D01*
X0258016Y0150958D02*
X0242796Y0150958D01*
X0243395Y0151556D02*
X0257768Y0151556D01*
X0257750Y0152155D02*
X0243993Y0152155D01*
X0244592Y0152753D02*
X0257750Y0152753D01*
X0257750Y0153352D02*
X0245190Y0153352D01*
X0245789Y0153950D02*
X0257750Y0153950D01*
X0257750Y0154549D02*
X0246387Y0154549D01*
X0246986Y0155147D02*
X0257811Y0155147D01*
X0258059Y0155746D02*
X0247584Y0155746D01*
X0247600Y0156344D02*
X0258307Y0156344D01*
X0258554Y0156943D02*
X0247600Y0156943D01*
X0247600Y0157541D02*
X0258802Y0157541D01*
X0259050Y0158140D02*
X0247600Y0158140D01*
X0247600Y0158738D02*
X0259647Y0158738D01*
X0260245Y0159337D02*
X0247600Y0159337D01*
X0247600Y0159935D02*
X0260844Y0159935D01*
X0261442Y0160534D02*
X0247600Y0160534D01*
X0247600Y0161132D02*
X0262867Y0161132D01*
X0264312Y0161731D02*
X0247600Y0161731D01*
X0247600Y0162329D02*
X0273725Y0162329D01*
X0274324Y0161731D02*
X0268288Y0161731D01*
X0269733Y0161132D02*
X0274500Y0161132D01*
X0274500Y0160534D02*
X0271158Y0160534D01*
X0271756Y0159935D02*
X0274500Y0159935D01*
X0274500Y0159337D02*
X0272355Y0159337D01*
X0272953Y0158738D02*
X0274500Y0158738D01*
X0274500Y0158140D02*
X0273550Y0158140D01*
X0273798Y0157541D02*
X0274500Y0157541D01*
X0274500Y0156943D02*
X0274046Y0156943D01*
X0274293Y0156344D02*
X0274500Y0156344D01*
X0273127Y0162928D02*
X0247600Y0162928D01*
X0247600Y0163526D02*
X0272528Y0163526D01*
X0271930Y0164125D02*
X0247600Y0164125D01*
X0247600Y0164723D02*
X0271331Y0164723D01*
X0270733Y0165322D02*
X0247600Y0165322D01*
X0247600Y0165920D02*
X0270134Y0165920D01*
X0269536Y0166519D02*
X0247600Y0166519D01*
X0247600Y0167117D02*
X0268937Y0167117D01*
X0268338Y0167716D02*
X0247600Y0167716D01*
X0247600Y0168314D02*
X0267740Y0168314D01*
X0267141Y0168913D02*
X0247600Y0168913D01*
X0247600Y0169511D02*
X0266543Y0169511D01*
X0265944Y0170110D02*
X0247600Y0170110D01*
X0247600Y0170708D02*
X0265346Y0170708D01*
X0264747Y0171307D02*
X0247600Y0171307D01*
X0247600Y0171905D02*
X0264500Y0171905D01*
X0264500Y0172504D02*
X0247600Y0172504D01*
X0247600Y0173103D02*
X0264500Y0173103D01*
X0264500Y0173701D02*
X0247600Y0173701D01*
X0247600Y0174300D02*
X0264500Y0174300D01*
X0264500Y0174898D02*
X0247600Y0174898D01*
X0247600Y0175497D02*
X0264500Y0175497D01*
X0264500Y0176095D02*
X0247600Y0176095D01*
X0247600Y0176694D02*
X0264500Y0176694D01*
X0264500Y0177292D02*
X0247600Y0177292D01*
X0247600Y0177891D02*
X0264500Y0177891D01*
X0264500Y0178489D02*
X0247600Y0178489D01*
X0247600Y0179088D02*
X0264500Y0179088D01*
X0264500Y0179686D02*
X0247600Y0179686D01*
X0247600Y0180285D02*
X0264500Y0180285D01*
X0264500Y0180883D02*
X0247600Y0180883D01*
X0247600Y0181482D02*
X0264500Y0181482D01*
X0264500Y0182080D02*
X0247600Y0182080D01*
X0247600Y0182679D02*
X0264500Y0182679D01*
X0264500Y0183277D02*
X0247600Y0183277D01*
X0247600Y0183876D02*
X0264500Y0183876D01*
X0264500Y0184474D02*
X0247600Y0184474D01*
X0247600Y0185073D02*
X0264500Y0185073D01*
X0264500Y0185671D02*
X0247600Y0185671D01*
X0247600Y0186270D02*
X0264500Y0186270D01*
X0264500Y0186868D02*
X0247600Y0186868D01*
X0247600Y0187467D02*
X0264500Y0187467D01*
X0264500Y0188065D02*
X0247600Y0188065D01*
X0247600Y0188664D02*
X0264500Y0188664D01*
X0264500Y0189262D02*
X0247600Y0189262D01*
X0247600Y0189861D02*
X0264500Y0189861D01*
X0264500Y0190459D02*
X0247600Y0190459D01*
X0247600Y0191058D02*
X0264500Y0191058D01*
X0264500Y0191656D02*
X0247600Y0191656D01*
X0247600Y0192255D02*
X0264500Y0192255D01*
X0264500Y0192853D02*
X0247600Y0192853D01*
X0247600Y0193452D02*
X0264500Y0193452D01*
X0264500Y0194050D02*
X0247600Y0194050D01*
X0247600Y0194649D02*
X0264500Y0194649D01*
X0264500Y0195247D02*
X0247600Y0195247D01*
X0247600Y0195846D02*
X0264500Y0195846D01*
X0264500Y0196444D02*
X0247600Y0196444D01*
X0247600Y0197043D02*
X0264500Y0197043D01*
X0264500Y0197641D02*
X0247600Y0197641D01*
X0247600Y0198240D02*
X0264500Y0198240D01*
X0264500Y0198839D02*
X0247600Y0198839D01*
X0247600Y0199437D02*
X0264500Y0199437D01*
X0264500Y0200036D02*
X0247600Y0200036D01*
X0247600Y0200634D02*
X0264500Y0200634D01*
X0264500Y0201233D02*
X0247600Y0201233D01*
X0247600Y0201831D02*
X0264500Y0201831D01*
X0264500Y0202430D02*
X0247600Y0202430D01*
X0247600Y0203028D02*
X0264500Y0203028D01*
X0264500Y0203627D02*
X0247600Y0203627D01*
X0247600Y0204225D02*
X0264500Y0204225D01*
X0264500Y0204824D02*
X0247600Y0204824D01*
X0247600Y0205422D02*
X0264500Y0205422D01*
X0264500Y0206021D02*
X0247600Y0206021D01*
X0247600Y0206619D02*
X0264500Y0206619D01*
X0264500Y0207218D02*
X0247600Y0207218D01*
X0247600Y0207816D02*
X0264500Y0207816D01*
X0264500Y0208415D02*
X0247600Y0208415D01*
X0248232Y0209013D02*
X0254368Y0209013D01*
X0253341Y0209612D02*
X0249259Y0209612D01*
X0249857Y0210210D02*
X0252743Y0210210D01*
X0252245Y0210809D02*
X0250355Y0210809D01*
X0250603Y0211407D02*
X0251997Y0211407D01*
X0251749Y0212006D02*
X0250851Y0212006D01*
X0251000Y0212604D02*
X0251600Y0212604D01*
X0251600Y0213203D02*
X0251000Y0213203D01*
X0251000Y0213801D02*
X0251600Y0213801D01*
X0251668Y0214400D02*
X0250932Y0214400D01*
X0250684Y0214998D02*
X0251916Y0214998D01*
X0252164Y0215597D02*
X0250436Y0215597D01*
X0250051Y0216195D02*
X0252549Y0216195D01*
X0253147Y0216794D02*
X0249453Y0216794D01*
X0248702Y0217392D02*
X0253898Y0217392D01*
X0254271Y0217991D02*
X0247257Y0217991D01*
X0245343Y0217991D02*
X0243329Y0217991D01*
X0243898Y0217392D02*
X0242731Y0217392D01*
X0242600Y0216794D02*
X0243147Y0216794D01*
X0254955Y0220983D02*
X0260071Y0220983D01*
X0260669Y0220385D02*
X0255554Y0220385D01*
X0256152Y0219786D02*
X0261268Y0219786D01*
X0261867Y0219188D02*
X0256751Y0219188D01*
X0257349Y0218589D02*
X0262465Y0218589D01*
X0263064Y0217991D02*
X0257600Y0217991D01*
X0258702Y0217392D02*
X0263662Y0217392D01*
X0264261Y0216794D02*
X0259453Y0216794D01*
X0260051Y0216195D02*
X0264500Y0216195D01*
X0264500Y0215597D02*
X0260436Y0215597D01*
X0260684Y0214998D02*
X0264500Y0214998D01*
X0264500Y0214400D02*
X0260932Y0214400D01*
X0261000Y0213801D02*
X0264500Y0213801D01*
X0264500Y0213203D02*
X0261000Y0213203D01*
X0261000Y0212604D02*
X0264500Y0212604D01*
X0264500Y0212006D02*
X0260851Y0212006D01*
X0260603Y0211407D02*
X0264500Y0211407D01*
X0264500Y0210809D02*
X0260355Y0210809D01*
X0259857Y0210210D02*
X0264500Y0210210D01*
X0264500Y0209612D02*
X0259259Y0209612D01*
X0258232Y0209013D02*
X0264500Y0209013D01*
X0234526Y0139586D02*
X0232074Y0139586D01*
X0232168Y0138987D02*
X0234431Y0138987D01*
X0234431Y0138389D02*
X0232168Y0138389D01*
X0232168Y0135396D02*
X0234431Y0135396D01*
X0234431Y0134798D02*
X0232168Y0134798D01*
X0231952Y0134199D02*
X0234648Y0134199D01*
X0226648Y0134199D02*
X0225600Y0134199D01*
X0226136Y0134798D02*
X0226431Y0134798D01*
X0235447Y0119835D02*
X0236002Y0119835D01*
X0236256Y0119237D02*
X0235637Y0119237D01*
X0235637Y0118638D02*
X0259778Y0118638D01*
X0259778Y0118039D02*
X0235637Y0118039D01*
X0235637Y0117441D02*
X0259778Y0117441D01*
X0259778Y0116842D02*
X0235637Y0116842D01*
X0235637Y0116244D02*
X0259778Y0116244D01*
X0259778Y0115645D02*
X0235139Y0115645D01*
X0235511Y0115047D02*
X0259778Y0115047D01*
X0259778Y0114448D02*
X0235637Y0114448D01*
X0235637Y0113850D02*
X0259778Y0113850D01*
X0259778Y0113251D02*
X0235637Y0113251D01*
X0235637Y0112653D02*
X0259778Y0112653D01*
X0259778Y0112054D02*
X0235637Y0112054D01*
X0235637Y0111456D02*
X0259778Y0111456D01*
X0258929Y0093204D02*
X0255427Y0093204D01*
X0254900Y0092677D01*
X0254900Y0086026D01*
X0255427Y0085498D01*
X0258929Y0085498D01*
X0259456Y0086026D01*
X0259456Y0092677D01*
X0258929Y0093204D01*
X0259231Y0092902D02*
X0259778Y0092902D01*
X0259778Y0092303D02*
X0259456Y0092303D01*
X0259456Y0091705D02*
X0259778Y0091705D01*
X0259778Y0091106D02*
X0259456Y0091106D01*
X0259456Y0090508D02*
X0259778Y0090508D01*
X0259778Y0089909D02*
X0259456Y0089909D01*
X0259456Y0089311D02*
X0259778Y0089311D01*
X0259722Y0088712D02*
X0259456Y0088712D01*
X0259456Y0088114D02*
X0259600Y0088114D01*
X0259600Y0087515D02*
X0259456Y0087515D01*
X0259456Y0086917D02*
X0259600Y0086917D01*
X0259600Y0086318D02*
X0259456Y0086318D01*
X0259600Y0085720D02*
X0259150Y0085720D01*
X0259600Y0085121D02*
X0249429Y0085121D01*
X0249429Y0085498D02*
X0249480Y0085498D01*
X0250007Y0086026D01*
X0250007Y0092677D01*
X0249480Y0093204D01*
X0245978Y0093204D01*
X0245451Y0092677D01*
X0245451Y0086026D01*
X0245978Y0085498D01*
X0246029Y0085498D01*
X0246029Y0078168D01*
X0245415Y0078168D01*
X0244888Y0077641D01*
X0244888Y0077000D01*
X0244570Y0077000D01*
X0244170Y0077400D01*
X0242430Y0077400D01*
X0241200Y0076170D01*
X0241200Y0074430D01*
X0242430Y0073200D01*
X0244170Y0073200D01*
X0244570Y0073600D01*
X0244888Y0073600D01*
X0244888Y0072959D01*
X0245415Y0072431D01*
X0246254Y0072431D01*
X0246254Y0070712D01*
X0245459Y0070712D01*
X0244931Y0070185D01*
X0244931Y0065108D01*
X0245459Y0064581D01*
X0250141Y0064581D01*
X0250668Y0065108D01*
X0250668Y0070185D01*
X0250141Y0070712D01*
X0249654Y0070712D01*
X0249654Y0072431D01*
X0250492Y0072431D01*
X0251019Y0072959D01*
X0251019Y0077641D01*
X0250492Y0078168D01*
X0249429Y0078168D01*
X0249429Y0085498D01*
X0249701Y0085720D02*
X0250481Y0085720D01*
X0250703Y0085498D02*
X0250176Y0086026D01*
X0250176Y0092677D01*
X0250703Y0093204D01*
X0254204Y0093204D01*
X0254731Y0092677D01*
X0254731Y0086026D01*
X0254204Y0085498D01*
X0250703Y0085498D01*
X0250176Y0086318D02*
X0250007Y0086318D01*
X0250007Y0086917D02*
X0250176Y0086917D01*
X0250176Y0087515D02*
X0250007Y0087515D01*
X0250007Y0088114D02*
X0250176Y0088114D01*
X0250176Y0088712D02*
X0250007Y0088712D01*
X0250007Y0089311D02*
X0250176Y0089311D01*
X0250176Y0089909D02*
X0250007Y0089909D01*
X0250007Y0090508D02*
X0250176Y0090508D01*
X0250176Y0091106D02*
X0250007Y0091106D01*
X0250007Y0091705D02*
X0250176Y0091705D01*
X0250176Y0092303D02*
X0250007Y0092303D01*
X0249782Y0092902D02*
X0250401Y0092902D01*
X0245676Y0092902D02*
X0240333Y0092902D01*
X0240558Y0092303D02*
X0245451Y0092303D01*
X0245451Y0091705D02*
X0240558Y0091705D01*
X0240558Y0091106D02*
X0245451Y0091106D01*
X0245451Y0090508D02*
X0240558Y0090508D01*
X0240558Y0089909D02*
X0245451Y0089909D01*
X0245451Y0089311D02*
X0240558Y0089311D01*
X0240558Y0088712D02*
X0245451Y0088712D01*
X0245451Y0088114D02*
X0240558Y0088114D01*
X0240558Y0087515D02*
X0245451Y0087515D01*
X0245451Y0086917D02*
X0240558Y0086917D01*
X0240558Y0086318D02*
X0245451Y0086318D01*
X0245757Y0085720D02*
X0240252Y0085720D01*
X0239580Y0085121D02*
X0246029Y0085121D01*
X0246029Y0084523D02*
X0239580Y0084523D01*
X0239580Y0083924D02*
X0246029Y0083924D01*
X0246029Y0083326D02*
X0239580Y0083326D01*
X0239580Y0082727D02*
X0246029Y0082727D01*
X0246029Y0082129D02*
X0239467Y0082129D01*
X0238869Y0081530D02*
X0246029Y0081530D01*
X0246029Y0080932D02*
X0238270Y0080932D01*
X0238100Y0080333D02*
X0246029Y0080333D01*
X0246029Y0079735D02*
X0238100Y0079735D01*
X0238100Y0079136D02*
X0246029Y0079136D01*
X0246029Y0078538D02*
X0238100Y0078538D01*
X0238100Y0077939D02*
X0245186Y0077939D01*
X0244888Y0077341D02*
X0244229Y0077341D01*
X0242371Y0077341D02*
X0238100Y0077341D01*
X0238100Y0076742D02*
X0241772Y0076742D01*
X0241200Y0076144D02*
X0240253Y0076144D01*
X0240456Y0075545D02*
X0241200Y0075545D01*
X0241200Y0074947D02*
X0240456Y0074947D01*
X0240456Y0074348D02*
X0241282Y0074348D01*
X0241880Y0073750D02*
X0240456Y0073750D01*
X0240456Y0073151D02*
X0244888Y0073151D01*
X0245294Y0072553D02*
X0240456Y0072553D01*
X0240456Y0071954D02*
X0246254Y0071954D01*
X0246254Y0071356D02*
X0240456Y0071356D01*
X0240456Y0070757D02*
X0246254Y0070757D01*
X0244931Y0070159D02*
X0240144Y0070159D01*
X0244931Y0069560D02*
X0230712Y0069560D01*
X0230712Y0068962D02*
X0244931Y0068962D01*
X0244931Y0068363D02*
X0230712Y0068363D01*
X0230712Y0067765D02*
X0244931Y0067765D01*
X0244931Y0067166D02*
X0230712Y0067166D01*
X0230712Y0066568D02*
X0244931Y0066568D01*
X0244931Y0065969D02*
X0230712Y0065969D01*
X0230712Y0065370D02*
X0244931Y0065370D01*
X0245268Y0064772D02*
X0230525Y0064772D01*
X0233144Y0064129D02*
X0233144Y0058659D01*
X0233671Y0058132D01*
X0239929Y0058132D01*
X0240456Y0058659D01*
X0240456Y0059254D01*
X0244931Y0059254D01*
X0244931Y0058415D01*
X0245459Y0057888D01*
X0250141Y0057888D01*
X0250668Y0058415D01*
X0250668Y0063492D01*
X0250141Y0064019D01*
X0245459Y0064019D01*
X0244931Y0063492D01*
X0244931Y0062654D01*
X0240456Y0062654D01*
X0240456Y0064129D01*
X0239929Y0064657D01*
X0233671Y0064657D01*
X0233144Y0064129D01*
X0233188Y0064173D02*
X0218100Y0064173D01*
X0218100Y0063575D02*
X0233144Y0063575D01*
X0233144Y0062976D02*
X0218100Y0062976D01*
X0218100Y0062378D02*
X0233144Y0062378D01*
X0233144Y0061779D02*
X0218100Y0061779D01*
X0218100Y0061181D02*
X0233144Y0061181D01*
X0233144Y0060582D02*
X0218100Y0060582D01*
X0218100Y0059984D02*
X0233144Y0059984D01*
X0233144Y0059385D02*
X0224684Y0059385D01*
X0225283Y0058787D02*
X0233144Y0058787D01*
X0233615Y0058188D02*
X0225400Y0058188D01*
X0225400Y0057590D02*
X0259600Y0057590D01*
X0259600Y0058188D02*
X0250441Y0058188D01*
X0250668Y0058787D02*
X0259600Y0058787D01*
X0259600Y0059385D02*
X0250668Y0059385D01*
X0250668Y0059984D02*
X0259600Y0059984D01*
X0259600Y0060582D02*
X0250668Y0060582D01*
X0250668Y0061181D02*
X0259600Y0061181D01*
X0259600Y0061779D02*
X0250668Y0061779D01*
X0250668Y0062378D02*
X0259600Y0062378D01*
X0259600Y0062976D02*
X0250668Y0062976D01*
X0250585Y0063575D02*
X0259600Y0063575D01*
X0259600Y0064173D02*
X0240412Y0064173D01*
X0240456Y0063575D02*
X0245015Y0063575D01*
X0244931Y0062976D02*
X0240456Y0062976D01*
X0240456Y0058787D02*
X0244931Y0058787D01*
X0245159Y0058188D02*
X0239985Y0058188D01*
X0250332Y0064772D02*
X0259600Y0064772D01*
X0259600Y0065370D02*
X0250668Y0065370D01*
X0250668Y0065969D02*
X0259600Y0065969D01*
X0259600Y0066568D02*
X0250668Y0066568D01*
X0250668Y0067166D02*
X0259600Y0067166D01*
X0259600Y0067765D02*
X0250668Y0067765D01*
X0250668Y0068363D02*
X0259600Y0068363D01*
X0259600Y0068962D02*
X0250668Y0068962D01*
X0250668Y0069560D02*
X0259600Y0069560D01*
X0259600Y0070159D02*
X0250668Y0070159D01*
X0249654Y0070757D02*
X0259600Y0070757D01*
X0259600Y0071356D02*
X0249654Y0071356D01*
X0249654Y0071954D02*
X0259600Y0071954D01*
X0259600Y0072553D02*
X0250613Y0072553D01*
X0251019Y0073151D02*
X0259600Y0073151D01*
X0259600Y0073750D02*
X0251019Y0073750D01*
X0251019Y0074348D02*
X0259600Y0074348D01*
X0259600Y0074947D02*
X0251019Y0074947D01*
X0251019Y0075545D02*
X0259600Y0075545D01*
X0259600Y0076144D02*
X0251019Y0076144D01*
X0251019Y0076742D02*
X0259600Y0076742D01*
X0259600Y0077341D02*
X0251019Y0077341D01*
X0250721Y0077939D02*
X0259600Y0077939D01*
X0259600Y0078538D02*
X0249429Y0078538D01*
X0249429Y0079136D02*
X0259600Y0079136D01*
X0259600Y0079735D02*
X0249429Y0079735D01*
X0249429Y0080333D02*
X0259600Y0080333D01*
X0259600Y0080932D02*
X0249429Y0080932D01*
X0249429Y0081530D02*
X0259600Y0081530D01*
X0259600Y0082129D02*
X0249429Y0082129D01*
X0249429Y0082727D02*
X0259600Y0082727D01*
X0259600Y0083326D02*
X0249429Y0083326D01*
X0249429Y0083924D02*
X0259600Y0083924D01*
X0259600Y0084523D02*
X0249429Y0084523D01*
X0254426Y0085720D02*
X0255206Y0085720D01*
X0254900Y0086318D02*
X0254731Y0086318D01*
X0254731Y0086917D02*
X0254900Y0086917D01*
X0254900Y0087515D02*
X0254731Y0087515D01*
X0254731Y0088114D02*
X0254900Y0088114D01*
X0254900Y0088712D02*
X0254731Y0088712D01*
X0254731Y0089311D02*
X0254900Y0089311D01*
X0254900Y0089909D02*
X0254731Y0089909D01*
X0254731Y0090508D02*
X0254900Y0090508D01*
X0254900Y0091106D02*
X0254731Y0091106D01*
X0254731Y0091705D02*
X0254900Y0091705D01*
X0254900Y0092303D02*
X0254731Y0092303D01*
X0254506Y0092902D02*
X0255125Y0092902D01*
X0236002Y0091106D02*
X0227600Y0091106D01*
X0227600Y0090508D02*
X0236002Y0090508D01*
X0236002Y0089909D02*
X0227600Y0089909D01*
X0227600Y0089311D02*
X0236002Y0089311D01*
X0236002Y0088712D02*
X0227600Y0088712D01*
X0227600Y0088114D02*
X0236002Y0088114D01*
X0236002Y0087515D02*
X0227600Y0087515D01*
X0227600Y0086917D02*
X0236002Y0086917D01*
X0236002Y0086318D02*
X0227600Y0086318D01*
X0227600Y0085720D02*
X0236308Y0085720D01*
X0236980Y0085121D02*
X0227600Y0085121D01*
X0227600Y0084523D02*
X0236980Y0084523D01*
X0236980Y0083924D02*
X0227600Y0083924D01*
X0227600Y0083326D02*
X0236980Y0083326D01*
X0236389Y0082727D02*
X0227600Y0082727D01*
X0227600Y0082129D02*
X0235790Y0082129D01*
X0235500Y0081530D02*
X0227600Y0081530D01*
X0227600Y0080932D02*
X0235500Y0080932D01*
X0235500Y0080333D02*
X0228105Y0080333D01*
X0228704Y0079735D02*
X0235500Y0079735D01*
X0235500Y0079136D02*
X0228946Y0079136D01*
X0228946Y0078538D02*
X0235500Y0078538D01*
X0235500Y0077939D02*
X0230414Y0077939D01*
X0230712Y0077341D02*
X0235500Y0077341D01*
X0235500Y0076742D02*
X0230712Y0076742D01*
X0230712Y0076144D02*
X0233347Y0076144D01*
X0233144Y0075545D02*
X0230712Y0075545D01*
X0230712Y0074947D02*
X0233144Y0074947D01*
X0233144Y0074348D02*
X0230712Y0074348D01*
X0230712Y0073750D02*
X0233144Y0073750D01*
X0233144Y0073151D02*
X0230712Y0073151D01*
X0230306Y0072553D02*
X0233144Y0072553D01*
X0233144Y0071954D02*
X0228946Y0071954D01*
X0228946Y0071356D02*
X0233144Y0071356D01*
X0233144Y0070757D02*
X0228946Y0070757D01*
X0230195Y0070159D02*
X0233456Y0070159D01*
X0218294Y0072553D02*
X0218100Y0072553D01*
X0216707Y0075545D02*
X0216600Y0075545D01*
X0216600Y0076144D02*
X0217305Y0076144D01*
X0217888Y0076742D02*
X0216600Y0076742D01*
X0216600Y0077341D02*
X0217888Y0077341D01*
X0218186Y0077939D02*
X0216600Y0077939D01*
X0195035Y0077341D02*
X0189565Y0077341D01*
X0190363Y0076742D02*
X0194237Y0076742D01*
X0193638Y0076144D02*
X0190962Y0076144D01*
X0191349Y0075545D02*
X0193251Y0075545D01*
X0193003Y0074947D02*
X0191597Y0074947D01*
X0191845Y0074348D02*
X0192755Y0074348D01*
X0192700Y0073750D02*
X0191900Y0073750D01*
X0191900Y0073151D02*
X0192700Y0073151D01*
X0192700Y0072553D02*
X0191900Y0072553D01*
X0191722Y0071954D02*
X0192878Y0071954D01*
X0193126Y0071356D02*
X0191474Y0071356D01*
X0191681Y0070757D02*
X0193374Y0070757D01*
X0193936Y0070159D02*
X0192280Y0070159D01*
X0192878Y0069560D02*
X0194535Y0069560D01*
X0189800Y0068962D02*
X0188846Y0068962D01*
X0185754Y0068962D02*
X0178846Y0068962D01*
X0180065Y0069560D02*
X0184535Y0069560D01*
X0183936Y0070159D02*
X0180664Y0070159D01*
X0181226Y0070757D02*
X0183374Y0070757D01*
X0183126Y0071356D02*
X0181474Y0071356D01*
X0181722Y0071954D02*
X0182878Y0071954D01*
X0182700Y0072553D02*
X0181900Y0072553D01*
X0181900Y0073151D02*
X0182700Y0073151D01*
X0182700Y0073750D02*
X0181900Y0073750D01*
X0181845Y0074348D02*
X0182755Y0074348D01*
X0183003Y0074947D02*
X0181597Y0074947D01*
X0181349Y0075545D02*
X0183251Y0075545D01*
X0183638Y0076144D02*
X0180962Y0076144D01*
X0180363Y0076742D02*
X0184237Y0076742D01*
X0185035Y0077341D02*
X0179565Y0077341D01*
X0184391Y0065370D02*
X0144209Y0065370D01*
X0145722Y0065969D02*
X0147793Y0065969D01*
X0147194Y0066568D02*
X0146212Y0066568D01*
X0146212Y0067166D02*
X0146595Y0067166D01*
X0138979Y0063575D02*
X0138361Y0063575D01*
X0138100Y0055196D02*
X0146357Y0055196D01*
X0145759Y0054597D02*
X0138100Y0054597D01*
X0138100Y0053999D02*
X0145160Y0053999D01*
X0139041Y0053400D02*
X0138299Y0053400D01*
X0188443Y0055794D02*
X0189956Y0055794D01*
X0189888Y0056393D02*
X0190554Y0056393D01*
X0190497Y0056991D02*
X0191000Y0056991D01*
X0193600Y0056991D02*
X0194103Y0056991D01*
X0193600Y0056393D02*
X0194712Y0056393D01*
X0193600Y0055794D02*
X0196157Y0055794D01*
X0218100Y0055794D02*
X0221800Y0055794D01*
X0221800Y0055196D02*
X0218100Y0055196D01*
X0218100Y0054597D02*
X0221800Y0054597D01*
X0221800Y0053999D02*
X0218100Y0053999D01*
X0218100Y0053400D02*
X0221800Y0053400D01*
X0221800Y0052802D02*
X0218100Y0052802D01*
X0218100Y0052203D02*
X0221800Y0052203D01*
X0221800Y0051605D02*
X0218100Y0051605D01*
X0218100Y0051006D02*
X0221800Y0051006D01*
X0221800Y0050408D02*
X0218100Y0050408D01*
X0218100Y0049809D02*
X0221800Y0049809D01*
X0221800Y0049211D02*
X0218100Y0049211D01*
X0218100Y0048612D02*
X0221800Y0048612D01*
X0221800Y0048014D02*
X0218100Y0048014D01*
X0218100Y0047415D02*
X0221800Y0047415D01*
X0221800Y0046817D02*
X0218100Y0046817D01*
X0218100Y0046218D02*
X0221800Y0046218D01*
X0221800Y0045620D02*
X0218100Y0045620D01*
X0218100Y0045021D02*
X0221800Y0045021D01*
X0221800Y0044423D02*
X0218100Y0044423D01*
X0218100Y0043824D02*
X0221800Y0043824D01*
X0221800Y0043226D02*
X0218100Y0043226D01*
X0218100Y0042627D02*
X0221800Y0042627D01*
X0221800Y0042029D02*
X0218100Y0042029D01*
X0218100Y0041430D02*
X0221800Y0041430D01*
X0221800Y0040832D02*
X0218100Y0040832D01*
X0218100Y0040233D02*
X0221800Y0040233D01*
X0221800Y0039634D02*
X0218100Y0039634D01*
X0218100Y0039036D02*
X0221800Y0039036D01*
X0221800Y0038437D02*
X0218100Y0038437D01*
X0218100Y0037839D02*
X0221800Y0037839D01*
X0221800Y0037240D02*
X0218100Y0037240D01*
X0218100Y0036642D02*
X0221800Y0036642D01*
X0221800Y0036043D02*
X0218100Y0036043D01*
X0218100Y0035445D02*
X0221800Y0035445D01*
X0221800Y0034846D02*
X0218572Y0034846D01*
X0219170Y0034248D02*
X0221800Y0034248D01*
X0221800Y0033649D02*
X0219769Y0033649D01*
X0220368Y0033051D02*
X0221928Y0033051D01*
X0222526Y0032452D02*
X0220966Y0032452D01*
X0221565Y0031854D02*
X0223125Y0031854D01*
X0223723Y0031255D02*
X0222163Y0031255D01*
X0222762Y0030657D02*
X0224322Y0030657D01*
X0224920Y0030058D02*
X0223360Y0030058D01*
X0227367Y0031854D02*
X0272308Y0031854D01*
X0271710Y0031255D02*
X0250466Y0031255D01*
X0251064Y0030657D02*
X0271111Y0030657D01*
X0270513Y0030058D02*
X0251663Y0030058D01*
X0252262Y0029460D02*
X0269914Y0029460D01*
X0269316Y0028861D02*
X0252860Y0028861D01*
X0253459Y0028263D02*
X0268717Y0028263D01*
X0268119Y0027664D02*
X0258045Y0027664D01*
X0259181Y0027066D02*
X0267520Y0027066D01*
X0266922Y0026467D02*
X0259780Y0026467D01*
X0260323Y0025869D02*
X0266323Y0025869D01*
X0265725Y0025270D02*
X0260571Y0025270D01*
X0260819Y0024672D02*
X0265126Y0024672D01*
X0264528Y0024073D02*
X0261000Y0024073D01*
X0261000Y0023475D02*
X0264500Y0023475D01*
X0264500Y0022876D02*
X0261000Y0022876D01*
X0260964Y0022278D02*
X0264500Y0022278D01*
X0264500Y0021679D02*
X0260716Y0021679D01*
X0260468Y0021081D02*
X0264500Y0021081D01*
X0264500Y0020482D02*
X0260129Y0020482D01*
X0259530Y0019884D02*
X0264500Y0019884D01*
X0264500Y0019285D02*
X0258889Y0019285D01*
X0257444Y0018687D02*
X0264500Y0018687D01*
X0264500Y0018088D02*
X0240215Y0018088D01*
X0240813Y0018687D02*
X0245156Y0018687D01*
X0243711Y0019285D02*
X0241412Y0019285D01*
X0242010Y0019884D02*
X0243070Y0019884D01*
X0247444Y0018687D02*
X0255156Y0018687D01*
X0253711Y0019285D02*
X0248889Y0019285D01*
X0249530Y0019884D02*
X0253070Y0019884D01*
X0252471Y0020482D02*
X0250129Y0020482D01*
X0250468Y0021081D02*
X0252132Y0021081D01*
X0251884Y0021679D02*
X0250716Y0021679D01*
X0250964Y0022278D02*
X0251636Y0022278D01*
X0251600Y0022876D02*
X0251000Y0022876D01*
X0251000Y0023475D02*
X0251600Y0023475D01*
X0251600Y0024073D02*
X0251000Y0024073D01*
X0250819Y0024672D02*
X0251781Y0024672D01*
X0252029Y0025270D02*
X0250571Y0025270D01*
X0250323Y0025869D02*
X0251610Y0025869D01*
X0251011Y0026467D02*
X0249780Y0026467D01*
X0249181Y0027066D02*
X0250413Y0027066D01*
X0249814Y0027664D02*
X0248045Y0027664D01*
X0249216Y0028263D02*
X0240676Y0028263D01*
X0241274Y0027664D02*
X0244555Y0027664D01*
X0243419Y0027066D02*
X0241873Y0027066D01*
X0242471Y0026467D02*
X0242820Y0026467D01*
X0254057Y0027664D02*
X0254555Y0027664D01*
X0261477Y0036043D02*
X0224800Y0036043D01*
X0224800Y0035445D02*
X0262922Y0035445D01*
X0264367Y0034846D02*
X0224800Y0034846D01*
X0224973Y0034248D02*
X0274500Y0034248D01*
X0274500Y0034846D02*
X0268233Y0034846D01*
X0269678Y0035445D02*
X0274500Y0035445D01*
X0274500Y0036043D02*
X0271123Y0036043D01*
X0271733Y0036642D02*
X0274500Y0036642D01*
X0274500Y0037240D02*
X0272332Y0037240D01*
X0272930Y0037839D02*
X0274500Y0037839D01*
X0274500Y0038437D02*
X0273529Y0038437D01*
X0273788Y0039036D02*
X0274500Y0039036D01*
X0274500Y0039634D02*
X0274036Y0039634D01*
X0274284Y0040233D02*
X0274500Y0040233D01*
X0274104Y0033649D02*
X0225572Y0033649D01*
X0226170Y0033051D02*
X0273505Y0033051D01*
X0272907Y0032452D02*
X0226769Y0032452D01*
X0224800Y0036642D02*
X0260867Y0036642D01*
X0260268Y0037240D02*
X0224800Y0037240D01*
X0224800Y0037839D02*
X0259670Y0037839D01*
X0259071Y0038437D02*
X0224800Y0038437D01*
X0224800Y0039036D02*
X0258812Y0039036D01*
X0258564Y0039634D02*
X0224800Y0039634D01*
X0224800Y0040233D02*
X0258316Y0040233D01*
X0258068Y0040832D02*
X0224800Y0040832D01*
X0224800Y0041430D02*
X0257820Y0041430D01*
X0257750Y0042029D02*
X0224800Y0042029D01*
X0224800Y0042627D02*
X0257750Y0042627D01*
X0257750Y0043226D02*
X0224800Y0043226D01*
X0224800Y0043824D02*
X0257750Y0043824D01*
X0257750Y0044423D02*
X0224800Y0044423D01*
X0224800Y0045021D02*
X0257758Y0045021D01*
X0258006Y0045620D02*
X0224800Y0045620D01*
X0224800Y0046218D02*
X0258254Y0046218D01*
X0258502Y0046817D02*
X0224800Y0046817D01*
X0224800Y0047415D02*
X0258750Y0047415D01*
X0258998Y0048014D02*
X0224800Y0048014D01*
X0224800Y0048612D02*
X0259521Y0048612D01*
X0259600Y0049211D02*
X0224800Y0049211D01*
X0224800Y0049809D02*
X0259600Y0049809D01*
X0259600Y0050408D02*
X0224800Y0050408D01*
X0224800Y0051006D02*
X0259600Y0051006D01*
X0259600Y0051605D02*
X0224800Y0051605D01*
X0224800Y0052203D02*
X0259600Y0052203D01*
X0259600Y0052802D02*
X0224800Y0052802D01*
X0224800Y0053400D02*
X0259600Y0053400D01*
X0259600Y0053999D02*
X0224800Y0053999D01*
X0224800Y0054597D02*
X0259600Y0054597D01*
X0259600Y0055196D02*
X0224800Y0055196D01*
X0224800Y0055794D02*
X0259600Y0055794D01*
X0259600Y0056393D02*
X0224863Y0056393D01*
X0225400Y0056991D02*
X0259600Y0056991D01*
X0221916Y0059385D02*
X0218100Y0059385D01*
X0218100Y0058787D02*
X0221317Y0058787D01*
X0221200Y0058188D02*
X0218100Y0058188D01*
X0218100Y0057590D02*
X0221200Y0057590D01*
X0221200Y0056991D02*
X0218100Y0056991D01*
X0218100Y0056393D02*
X0221737Y0056393D01*
X0239616Y0017490D02*
X0264500Y0017490D01*
X0264500Y0016891D02*
X0239018Y0016891D01*
X0238419Y0016293D02*
X0264500Y0016293D01*
X0264500Y0015694D02*
X0237821Y0015694D01*
X0190004Y0116842D02*
X0188354Y0116842D01*
X0199017Y0121032D02*
X0200694Y0121032D01*
X0201000Y0121631D02*
X0200136Y0121631D01*
X0200734Y0122229D02*
X0201000Y0122229D01*
X0200095Y0120434D02*
X0151600Y0120434D01*
X0140346Y0131207D02*
X0110800Y0131207D01*
X0110800Y0131805D02*
X0132825Y0131805D01*
X0132226Y0132404D02*
X0110800Y0132404D01*
X0110800Y0133002D02*
X0131700Y0133002D01*
X0131700Y0133601D02*
X0110800Y0133601D01*
X0110800Y0134199D02*
X0128062Y0134199D01*
X0127464Y0134798D02*
X0110800Y0134798D01*
X0110800Y0135396D02*
X0126865Y0135396D01*
X0126267Y0135995D02*
X0110800Y0135995D01*
X0110800Y0136593D02*
X0125668Y0136593D01*
X0125500Y0137192D02*
X0110800Y0137192D01*
X0110800Y0137790D02*
X0125500Y0137790D01*
X0125500Y0138389D02*
X0110800Y0138389D01*
X0110800Y0138987D02*
X0125500Y0138987D01*
X0125500Y0139586D02*
X0110800Y0139586D01*
X0110800Y0140184D02*
X0125500Y0140184D01*
X0125500Y0140783D02*
X0110800Y0140783D01*
X0110800Y0141381D02*
X0125500Y0141381D01*
X0125500Y0141980D02*
X0110750Y0141980D01*
X0110750Y0142578D02*
X0125183Y0142578D01*
X0117745Y0143177D02*
X0110750Y0143177D01*
X0110750Y0143775D02*
X0117439Y0143775D01*
X0117439Y0144374D02*
X0110750Y0144374D01*
X0110750Y0144972D02*
X0117439Y0144972D01*
X0117439Y0145571D02*
X0110750Y0145571D01*
X0110750Y0146170D02*
X0117439Y0146170D01*
X0117439Y0146768D02*
X0110750Y0146768D01*
X0110750Y0147367D02*
X0117492Y0147367D01*
X0117439Y0147965D02*
X0110750Y0147965D01*
X0110750Y0148564D02*
X0117439Y0148564D01*
X0117452Y0149162D02*
X0110750Y0149162D01*
X0110750Y0149761D02*
X0117439Y0149761D01*
X0117439Y0150359D02*
X0110750Y0150359D01*
X0110750Y0150958D02*
X0117439Y0150958D01*
X0117439Y0151556D02*
X0111000Y0151556D01*
X0111000Y0152155D02*
X0117439Y0152155D01*
X0118789Y0153950D02*
X0131612Y0153950D01*
X0132210Y0154549D02*
X0119387Y0154549D01*
X0119986Y0155147D02*
X0132809Y0155147D01*
X0133407Y0155746D02*
X0127806Y0155746D01*
X0128019Y0156344D02*
X0134006Y0156344D01*
X0134604Y0156943D02*
X0128019Y0156943D01*
X0128019Y0157541D02*
X0135203Y0157541D01*
X0135801Y0158140D02*
X0128019Y0158140D01*
X0128019Y0158738D02*
X0136400Y0158738D01*
X0136998Y0159337D02*
X0128019Y0159337D01*
X0128019Y0159935D02*
X0137597Y0159935D01*
X0138195Y0160534D02*
X0128019Y0160534D01*
X0127528Y0161132D02*
X0138400Y0161132D01*
X0135000Y0167716D02*
X0132350Y0167716D01*
X0132350Y0168314D02*
X0135000Y0168314D01*
X0135000Y0168913D02*
X0132350Y0168913D01*
X0132350Y0169511D02*
X0135000Y0169511D01*
X0135000Y0170110D02*
X0132350Y0170110D01*
X0132350Y0170708D02*
X0135000Y0170708D01*
X0135469Y0171307D02*
X0132350Y0171307D01*
X0132350Y0171905D02*
X0135700Y0171905D01*
X0135700Y0172504D02*
X0132350Y0172504D01*
X0132350Y0173103D02*
X0136133Y0173103D01*
X0136731Y0173701D02*
X0132350Y0173701D01*
X0131967Y0174300D02*
X0138400Y0174300D01*
X0138400Y0174898D02*
X0120500Y0174898D01*
X0120500Y0174300D02*
X0124633Y0174300D01*
X0120500Y0175497D02*
X0138400Y0175497D01*
X0138400Y0176095D02*
X0120500Y0176095D01*
X0120500Y0176694D02*
X0138400Y0176694D01*
X0138400Y0177292D02*
X0120500Y0177292D01*
X0120500Y0177891D02*
X0138400Y0177891D01*
X0138400Y0178489D02*
X0120500Y0178489D01*
X0120500Y0179088D02*
X0138400Y0179088D01*
X0138400Y0179686D02*
X0120500Y0179686D01*
X0120500Y0180285D02*
X0138400Y0180285D01*
X0138400Y0180883D02*
X0120500Y0180883D01*
X0120500Y0181482D02*
X0138400Y0181482D01*
X0138400Y0182080D02*
X0120500Y0182080D01*
X0120500Y0182679D02*
X0138400Y0182679D01*
X0138400Y0183277D02*
X0120500Y0183277D01*
X0120500Y0183876D02*
X0138400Y0183876D01*
X0138400Y0184474D02*
X0120500Y0184474D01*
X0120500Y0185073D02*
X0138400Y0185073D01*
X0138400Y0185671D02*
X0120500Y0185671D01*
X0120500Y0186270D02*
X0138400Y0186270D01*
X0138400Y0186868D02*
X0120500Y0186868D01*
X0120500Y0187467D02*
X0135163Y0187467D01*
X0134565Y0188065D02*
X0120500Y0188065D01*
X0120500Y0188664D02*
X0121683Y0188664D01*
X0121388Y0189262D02*
X0120500Y0189262D01*
X0120500Y0192853D02*
X0121388Y0192853D01*
X0121388Y0193452D02*
X0120500Y0193452D01*
X0120500Y0194050D02*
X0121797Y0194050D01*
X0120500Y0194649D02*
X0125830Y0194649D01*
X0125231Y0195247D02*
X0120050Y0195247D01*
X0118195Y0196444D02*
X0007899Y0196444D01*
X0007899Y0195846D02*
X0124633Y0195846D01*
X0123402Y0196444D02*
X0123298Y0196444D01*
X0127519Y0193452D02*
X0128081Y0193452D01*
X0128081Y0192853D02*
X0127519Y0192853D01*
X0127519Y0192255D02*
X0128081Y0192255D01*
X0128081Y0191656D02*
X0127519Y0191656D01*
X0127519Y0191058D02*
X0128081Y0191058D01*
X0128081Y0190459D02*
X0127519Y0190459D01*
X0127519Y0189861D02*
X0128081Y0189861D01*
X0128081Y0189262D02*
X0127519Y0189262D01*
X0127224Y0188664D02*
X0128376Y0188664D01*
X0133917Y0188664D02*
X0134200Y0188664D01*
X0136065Y0191656D02*
X0138400Y0191656D01*
X0138400Y0191058D02*
X0137512Y0191058D01*
X0138110Y0190459D02*
X0138400Y0190459D01*
X0138400Y0189861D02*
X0138400Y0189861D01*
X0138400Y0189262D02*
X0138400Y0189262D01*
X0138400Y0188664D02*
X0138400Y0188664D01*
X0138400Y0188065D02*
X0138035Y0188065D01*
X0138400Y0187467D02*
X0137437Y0187467D01*
X0138400Y0192255D02*
X0135466Y0192255D01*
X0134212Y0192853D02*
X0138400Y0192853D01*
X0138400Y0193452D02*
X0134212Y0193452D01*
X0133803Y0194050D02*
X0138400Y0194050D01*
X0138400Y0194649D02*
X0132800Y0194649D01*
X0132474Y0195247D02*
X0138400Y0195247D01*
X0138400Y0195846D02*
X0131875Y0195846D01*
X0131277Y0196444D02*
X0138400Y0196444D01*
X0138400Y0197043D02*
X0129019Y0197043D01*
X0129019Y0197641D02*
X0138400Y0197641D01*
X0138400Y0198240D02*
X0129019Y0198240D01*
X0129019Y0198839D02*
X0138400Y0198839D01*
X0138324Y0199437D02*
X0129019Y0199437D01*
X0129019Y0200036D02*
X0137726Y0200036D01*
X0137127Y0200634D02*
X0129019Y0200634D01*
X0129019Y0201233D02*
X0136529Y0201233D01*
X0135930Y0201831D02*
X0128829Y0201831D01*
X0135332Y0202430D02*
X0007899Y0202430D01*
X0007899Y0203028D02*
X0093733Y0203028D01*
X0093135Y0203627D02*
X0007899Y0203627D01*
X0007899Y0201831D02*
X0117871Y0201831D01*
X0117681Y0201233D02*
X0007899Y0201233D01*
X0007899Y0200634D02*
X0117681Y0200634D01*
X0117681Y0200036D02*
X0007899Y0200036D01*
X0007899Y0199437D02*
X0117681Y0199437D01*
X0117681Y0198839D02*
X0007899Y0198839D01*
X0007899Y0198240D02*
X0117681Y0198240D01*
X0117681Y0197641D02*
X0007899Y0197641D01*
X0007899Y0197043D02*
X0117681Y0197043D01*
X0120544Y0207218D02*
X0097721Y0207218D01*
X0097122Y0207816D02*
X0119945Y0207816D01*
X0119347Y0208415D02*
X0096600Y0208415D01*
X0096600Y0209013D02*
X0098368Y0209013D01*
X0097341Y0209612D02*
X0096600Y0209612D01*
X0096600Y0210210D02*
X0096743Y0210210D01*
X0102232Y0209013D02*
X0118368Y0209013D01*
X0117341Y0209612D02*
X0103259Y0209612D01*
X0103857Y0210210D02*
X0116743Y0210210D01*
X0116245Y0210809D02*
X0104355Y0210809D01*
X0104603Y0211407D02*
X0115997Y0211407D01*
X0115749Y0212006D02*
X0104851Y0212006D01*
X0105000Y0212604D02*
X0115600Y0212604D01*
X0115600Y0213203D02*
X0105000Y0213203D01*
X0105000Y0213801D02*
X0115600Y0213801D01*
X0115668Y0214400D02*
X0104932Y0214400D01*
X0104684Y0214998D02*
X0115916Y0214998D01*
X0116164Y0215597D02*
X0104436Y0215597D01*
X0104051Y0216195D02*
X0116549Y0216195D01*
X0117147Y0216794D02*
X0103453Y0216794D01*
X0102702Y0217392D02*
X0117898Y0217392D01*
X0119343Y0217991D02*
X0101257Y0217991D01*
X0099343Y0217991D02*
X0095448Y0217991D01*
X0096046Y0217392D02*
X0097898Y0217392D01*
X0097147Y0216794D02*
X0096600Y0216794D01*
X0087147Y0216794D02*
X0083453Y0216794D01*
X0084051Y0216195D02*
X0086549Y0216195D01*
X0086164Y0215597D02*
X0084436Y0215597D01*
X0084684Y0214998D02*
X0085916Y0214998D01*
X0085668Y0214400D02*
X0084932Y0214400D01*
X0085000Y0213801D02*
X0085600Y0213801D01*
X0085600Y0213203D02*
X0085000Y0213203D01*
X0085000Y0212604D02*
X0085600Y0212604D01*
X0085749Y0212006D02*
X0084851Y0212006D01*
X0084603Y0211407D02*
X0085997Y0211407D01*
X0086245Y0210809D02*
X0084355Y0210809D01*
X0083857Y0210210D02*
X0086743Y0210210D01*
X0087341Y0209612D02*
X0083259Y0209612D01*
X0082232Y0209013D02*
X0088368Y0209013D01*
X0071307Y0220385D02*
X0147066Y0220385D01*
X0147665Y0220983D02*
X0070093Y0220983D01*
X0056550Y0195247D02*
X0007899Y0195247D01*
X0007899Y0194649D02*
X0056100Y0194649D01*
X0056100Y0194050D02*
X0007899Y0194050D01*
X0007899Y0193452D02*
X0056100Y0193452D01*
X0056100Y0192853D02*
X0007899Y0192853D01*
X0007899Y0192255D02*
X0056100Y0192255D01*
X0056100Y0191656D02*
X0007899Y0191656D01*
X0007899Y0191058D02*
X0056100Y0191058D01*
X0056100Y0190459D02*
X0007899Y0190459D01*
X0007899Y0189861D02*
X0056100Y0189861D01*
X0056100Y0189262D02*
X0007899Y0189262D01*
X0007899Y0188664D02*
X0056100Y0188664D01*
X0056100Y0188065D02*
X0007899Y0188065D01*
X0007899Y0187467D02*
X0056100Y0187467D01*
X0056100Y0186868D02*
X0007899Y0186868D01*
X0007899Y0186270D02*
X0056100Y0186270D01*
X0056100Y0185671D02*
X0007899Y0185671D01*
X0007899Y0185073D02*
X0056100Y0185073D01*
X0056100Y0184474D02*
X0007899Y0184474D01*
X0007899Y0183876D02*
X0056100Y0183876D01*
X0056100Y0183277D02*
X0007899Y0183277D01*
X0007899Y0182679D02*
X0056100Y0182679D01*
X0057300Y0182679D02*
X0081300Y0182679D01*
X0081300Y0183277D02*
X0057300Y0183277D01*
X0057300Y0183876D02*
X0081300Y0183876D01*
X0081300Y0184474D02*
X0057300Y0184474D01*
X0057300Y0185073D02*
X0081300Y0185073D01*
X0081300Y0185671D02*
X0057300Y0185671D01*
X0057300Y0186270D02*
X0081300Y0186270D01*
X0081300Y0186868D02*
X0057300Y0186868D01*
X0057300Y0187467D02*
X0081300Y0187467D01*
X0081300Y0188065D02*
X0057300Y0188065D01*
X0057300Y0188664D02*
X0081300Y0188664D01*
X0081300Y0189262D02*
X0057300Y0189262D01*
X0057300Y0189861D02*
X0081300Y0189861D01*
X0081300Y0190459D02*
X0057300Y0190459D01*
X0057300Y0191058D02*
X0081300Y0191058D01*
X0081300Y0191656D02*
X0057300Y0191656D01*
X0057300Y0192255D02*
X0081300Y0192255D01*
X0081300Y0192853D02*
X0057300Y0192853D01*
X0057300Y0193452D02*
X0081300Y0193452D01*
X0081300Y0194050D02*
X0057300Y0194050D01*
X0057300Y0182080D02*
X0081300Y0182080D01*
X0081300Y0181482D02*
X0057300Y0181482D01*
X0099000Y0140783D02*
X0109600Y0140783D01*
X0109600Y0140184D02*
X0099000Y0140184D01*
X0099000Y0139586D02*
X0109600Y0139586D01*
X0109600Y0138987D02*
X0099000Y0138987D01*
X0099000Y0138389D02*
X0109600Y0138389D01*
X0110800Y0130608D02*
X0139048Y0130608D01*
X0138581Y0130010D02*
X0110800Y0130010D01*
X0110800Y0129411D02*
X0138581Y0129411D01*
X0138581Y0128813D02*
X0110800Y0128813D01*
X0110800Y0128214D02*
X0138581Y0128214D01*
X0138581Y0127616D02*
X0110800Y0127616D01*
X0110800Y0127017D02*
X0138581Y0127017D01*
X0138581Y0126419D02*
X0110800Y0126419D01*
X0110800Y0125820D02*
X0138581Y0125820D01*
X0138818Y0125222D02*
X0110800Y0125222D01*
X0089300Y0124025D02*
X0060300Y0124025D01*
X0060300Y0123426D02*
X0089300Y0123426D01*
X0089300Y0122828D02*
X0060300Y0122828D01*
X0060300Y0122229D02*
X0089300Y0122229D01*
X0089300Y0121631D02*
X0060300Y0121631D01*
X0060300Y0121032D02*
X0089300Y0121032D01*
X0089300Y0120434D02*
X0060300Y0120434D01*
X0060300Y0119835D02*
X0089300Y0119835D01*
X0089300Y0119237D02*
X0060300Y0119237D01*
X0060300Y0118638D02*
X0089300Y0118638D01*
X0089300Y0118039D02*
X0060300Y0118039D01*
X0060300Y0117441D02*
X0089300Y0117441D01*
X0089300Y0116842D02*
X0060300Y0116842D01*
X0060300Y0116244D02*
X0089300Y0116244D01*
X0089300Y0115645D02*
X0060300Y0115645D01*
X0060300Y0115047D02*
X0089300Y0115047D01*
X0089300Y0114448D02*
X0060300Y0114448D01*
X0060300Y0113850D02*
X0089300Y0113850D01*
X0089300Y0113251D02*
X0060300Y0113251D01*
X0060300Y0112653D02*
X0089300Y0112653D01*
X0089300Y0112054D02*
X0060300Y0112054D01*
X0060300Y0111456D02*
X0089300Y0111456D01*
X0089300Y0110857D02*
X0060300Y0110857D01*
X0060300Y0110259D02*
X0089300Y0110259D01*
X0089300Y0109660D02*
X0060300Y0109660D01*
X0060300Y0109062D02*
X0089300Y0109062D01*
X0089300Y0108463D02*
X0060300Y0108463D01*
X0060300Y0107865D02*
X0089300Y0107865D01*
X0089300Y0107266D02*
X0060300Y0107266D01*
X0060300Y0106668D02*
X0089300Y0106668D01*
X0089300Y0106069D02*
X0060300Y0106069D01*
X0060300Y0105471D02*
X0089300Y0105471D01*
X0089300Y0104872D02*
X0060300Y0104872D01*
X0060300Y0104274D02*
X0089300Y0104274D01*
X0089300Y0103675D02*
X0060300Y0103675D01*
X0060300Y0103077D02*
X0089300Y0103077D01*
X0089300Y0102478D02*
X0060300Y0102478D01*
X0060300Y0101880D02*
X0089300Y0101880D01*
X0089300Y0101281D02*
X0060300Y0101281D01*
X0060300Y0100683D02*
X0089300Y0100683D01*
X0089300Y0100084D02*
X0060300Y0100084D01*
X0060300Y0099486D02*
X0089300Y0099486D01*
X0089300Y0098887D02*
X0060300Y0098887D01*
X0060300Y0098289D02*
X0089300Y0098289D01*
X0089300Y0097690D02*
X0060300Y0097690D01*
X0060300Y0097092D02*
X0089300Y0097092D01*
X0089300Y0096493D02*
X0060300Y0096493D01*
X0060300Y0095895D02*
X0089300Y0095895D01*
X0089300Y0095296D02*
X0060300Y0095296D01*
X0060300Y0094698D02*
X0089300Y0094698D01*
X0089300Y0094099D02*
X0060300Y0094099D01*
X0060300Y0093501D02*
X0089300Y0093501D01*
X0089300Y0092902D02*
X0060300Y0092902D01*
X0060300Y0092303D02*
X0089300Y0092303D01*
X0089300Y0091705D02*
X0060300Y0091705D01*
X0060300Y0091106D02*
X0089300Y0091106D01*
X0089300Y0090508D02*
X0060300Y0090508D01*
X0060300Y0089909D02*
X0089300Y0089909D01*
X0089300Y0089311D02*
X0060300Y0089311D01*
X0060300Y0088712D02*
X0089300Y0088712D01*
X0070298Y0079136D02*
X0064500Y0079136D01*
X0064500Y0078538D02*
X0070000Y0078538D01*
X0070000Y0077939D02*
X0064500Y0077939D01*
X0064500Y0077341D02*
X0070000Y0077341D01*
X0070000Y0076742D02*
X0064500Y0076742D01*
X0064500Y0076144D02*
X0070000Y0076144D01*
X0070000Y0075545D02*
X0064500Y0075545D01*
X0064500Y0074947D02*
X0070000Y0074947D01*
X0070000Y0074348D02*
X0064500Y0074348D01*
X0064500Y0073750D02*
X0070000Y0073750D01*
X0070000Y0073151D02*
X0064500Y0073151D01*
X0064500Y0072553D02*
X0070000Y0072553D01*
X0070000Y0071954D02*
X0064500Y0071954D01*
X0064053Y0071356D02*
X0070000Y0071356D01*
X0070000Y0070757D02*
X0063310Y0070757D01*
X0063310Y0070159D02*
X0070000Y0070159D01*
X0070000Y0069560D02*
X0063310Y0069560D01*
X0063310Y0068962D02*
X0070000Y0068962D01*
X0070000Y0068363D02*
X0063310Y0068363D01*
X0063310Y0067765D02*
X0070000Y0067765D01*
X0070000Y0067166D02*
X0063310Y0067166D01*
X0065330Y0066568D02*
X0070000Y0066568D01*
X0070000Y0065969D02*
X0065653Y0065969D01*
X0065653Y0065370D02*
X0070000Y0065370D01*
X0070000Y0064772D02*
X0065653Y0064772D01*
X0065653Y0064173D02*
X0070000Y0064173D01*
X0070000Y0063575D02*
X0065653Y0063575D01*
X0065653Y0062976D02*
X0070000Y0062976D01*
X0070000Y0062378D02*
X0065653Y0062378D01*
X0065653Y0061779D02*
X0070000Y0061779D01*
X0070000Y0061181D02*
X0065653Y0061181D01*
X0056767Y0054597D02*
X0007899Y0054597D01*
X0007899Y0053999D02*
X0056767Y0053999D01*
X0056767Y0053400D02*
X0007899Y0053400D01*
X0007899Y0052802D02*
X0056767Y0052802D01*
X0056767Y0052203D02*
X0007899Y0052203D01*
X0007899Y0051605D02*
X0056767Y0051605D01*
X0056767Y0051006D02*
X0007899Y0051006D01*
X0007899Y0050408D02*
X0056767Y0050408D01*
X0056767Y0049809D02*
X0007899Y0049809D01*
X0007899Y0049211D02*
X0056767Y0049211D01*
X0056767Y0048612D02*
X0007899Y0048612D01*
X0007899Y0048014D02*
X0056929Y0048014D01*
X0059110Y0047415D02*
X0007899Y0047415D01*
X0007899Y0046817D02*
X0059110Y0046817D01*
X0059110Y0046218D02*
X0007899Y0046218D01*
X0007899Y0045620D02*
X0059110Y0045620D01*
X0059110Y0045021D02*
X0007899Y0045021D01*
X0007899Y0044423D02*
X0059110Y0044423D01*
X0059110Y0043824D02*
X0007899Y0043824D01*
X0007899Y0043226D02*
X0059110Y0043226D01*
X0059311Y0042627D02*
X0007899Y0042627D01*
X0007899Y0042029D02*
X0059910Y0042029D01*
X0060508Y0041430D02*
X0007899Y0041430D01*
X0007899Y0040832D02*
X0061107Y0040832D01*
X0061705Y0040233D02*
X0007899Y0040233D01*
X0007899Y0039634D02*
X0062304Y0039634D01*
X0062902Y0039036D02*
X0007899Y0039036D01*
X0007899Y0038437D02*
X0063501Y0038437D01*
X0064099Y0037839D02*
X0007899Y0037839D01*
X0007899Y0037240D02*
X0064698Y0037240D01*
X0065296Y0036642D02*
X0007899Y0036642D01*
X0007899Y0036043D02*
X0065895Y0036043D01*
X0066493Y0035445D02*
X0007899Y0035445D01*
X0007899Y0034846D02*
X0067092Y0034846D01*
X0067690Y0034248D02*
X0007899Y0034248D01*
X0007899Y0033649D02*
X0068289Y0033649D01*
X0068887Y0033051D02*
X0007899Y0033051D01*
X0007899Y0032452D02*
X0069486Y0032452D01*
X0070084Y0031854D02*
X0007899Y0031854D01*
X0007899Y0031255D02*
X0058164Y0031255D01*
X0056719Y0030657D02*
X0007899Y0030657D01*
X0007899Y0030058D02*
X0055967Y0030058D01*
X0055368Y0029460D02*
X0007899Y0029460D01*
X0007899Y0028861D02*
X0054770Y0028861D01*
X0054171Y0028263D02*
X0007899Y0028263D01*
X0007899Y0027664D02*
X0053853Y0027664D01*
X0053605Y0027066D02*
X0007899Y0027066D01*
X0007899Y0026467D02*
X0053357Y0026467D01*
X0053110Y0025869D02*
X0007899Y0025869D01*
X0007899Y0025270D02*
X0052862Y0025270D01*
X0052750Y0024672D02*
X0007899Y0024672D01*
X0007899Y0024073D02*
X0052750Y0024073D01*
X0052750Y0023475D02*
X0007899Y0023475D01*
X0007899Y0022876D02*
X0052750Y0022876D01*
X0052750Y0022278D02*
X0007899Y0022278D01*
X0007899Y0021679D02*
X0052750Y0021679D01*
X0052965Y0021081D02*
X0007899Y0021081D01*
X0007899Y0020482D02*
X0053213Y0020482D01*
X0053461Y0019884D02*
X0007899Y0019884D01*
X0007899Y0019285D02*
X0053709Y0019285D01*
X0053956Y0018687D02*
X0007899Y0018687D01*
X0007899Y0018088D02*
X0054420Y0018088D01*
X0055019Y0017490D02*
X0007899Y0017490D01*
X0007899Y0016891D02*
X0055617Y0016891D01*
X0056216Y0016293D02*
X0007899Y0016293D01*
X0007899Y0015694D02*
X0057320Y0015694D01*
X0065280Y0015694D02*
X0086244Y0015694D01*
X0085646Y0016293D02*
X0066384Y0016293D01*
X0066983Y0016891D02*
X0085047Y0016891D01*
X0084449Y0017490D02*
X0067581Y0017490D01*
X0068180Y0018088D02*
X0083850Y0018088D01*
X0083252Y0018687D02*
X0068644Y0018687D01*
X0068891Y0019285D02*
X0082653Y0019285D01*
X0082055Y0019884D02*
X0069139Y0019884D01*
X0069387Y0020482D02*
X0081456Y0020482D01*
X0080858Y0021081D02*
X0069635Y0021081D01*
X0069850Y0021679D02*
X0080259Y0021679D01*
X0079661Y0022278D02*
X0069850Y0022278D01*
X0069850Y0022876D02*
X0079062Y0022876D01*
X0078464Y0023475D02*
X0069850Y0023475D01*
X0069850Y0024073D02*
X0077865Y0024073D01*
X0077267Y0024672D02*
X0069850Y0024672D01*
X0069738Y0025270D02*
X0076668Y0025270D01*
X0076070Y0025869D02*
X0069490Y0025869D01*
X0069243Y0026467D02*
X0075471Y0026467D01*
X0074873Y0027066D02*
X0068995Y0027066D01*
X0068747Y0027664D02*
X0074274Y0027664D01*
X0073676Y0028263D02*
X0068429Y0028263D01*
X0067830Y0028861D02*
X0073077Y0028861D01*
X0072479Y0029460D02*
X0067232Y0029460D01*
X0066633Y0030058D02*
X0071880Y0030058D01*
X0071282Y0030657D02*
X0065881Y0030657D01*
X0064436Y0031255D02*
X0070683Y0031255D01*
X0189395Y0129411D02*
X0189573Y0129411D01*
X0193600Y0134199D02*
X0195180Y0134199D01*
X0194297Y0134798D02*
X0193600Y0134798D01*
X0193600Y0135396D02*
X0193698Y0135396D01*
X0191000Y0135396D02*
X0190902Y0135396D01*
X0191000Y0134798D02*
X0190303Y0134798D01*
X0199395Y0129411D02*
X0201000Y0129411D01*
X0201000Y0128813D02*
X0200293Y0128813D01*
X0200891Y0128214D02*
X0201000Y0128214D01*
X0141900Y0134199D02*
X0135900Y0134199D01*
X0135900Y0133601D02*
X0141762Y0133601D01*
X0141164Y0133002D02*
X0135900Y0133002D01*
X0135374Y0132404D02*
X0140565Y0132404D01*
X0140346Y0131805D02*
X0134775Y0131805D01*
X0137268Y0134798D02*
X0141900Y0134798D01*
X0141900Y0135396D02*
X0137866Y0135396D01*
X0138400Y0135995D02*
X0141900Y0135995D01*
X0141900Y0136593D02*
X0138400Y0136593D01*
X0138530Y0137192D02*
X0141900Y0137192D01*
X0141900Y0137790D02*
X0138946Y0137790D01*
X0138946Y0138389D02*
X0141900Y0138389D01*
X0141900Y0138987D02*
X0138946Y0138987D01*
X0140339Y0139586D02*
X0141900Y0139586D01*
X0141900Y0140184D02*
X0140712Y0140184D01*
X0140712Y0140783D02*
X0141900Y0140783D01*
X0141900Y0141381D02*
X0140712Y0141381D01*
X0140712Y0141980D02*
X0141900Y0141980D01*
X0141900Y0142578D02*
X0140712Y0142578D01*
X0140712Y0143177D02*
X0141900Y0143177D01*
X0141900Y0143775D02*
X0140712Y0143775D01*
X0140712Y0144374D02*
X0141900Y0144374D01*
X0141900Y0144972D02*
X0140381Y0144972D01*
X0131013Y0153352D02*
X0126718Y0153352D01*
X0127317Y0152753D02*
X0128000Y0152753D01*
X0127888Y0152155D02*
X0127400Y0152155D01*
X0122101Y0155746D02*
X0120584Y0155746D01*
X0121183Y0156344D02*
X0121888Y0156344D01*
X0121888Y0156943D02*
X0121781Y0156943D01*
X0123024Y0208415D02*
X0139220Y0208415D01*
X0139220Y0207816D02*
X0137582Y0207816D01*
X0138181Y0207218D02*
X0139220Y0207218D01*
X0139220Y0206619D02*
X0138779Y0206619D01*
X0138368Y0209013D02*
X0132232Y0209013D01*
X0132962Y0209316D02*
X0134284Y0210638D01*
X0135000Y0212365D01*
X0135000Y0214235D01*
X0134284Y0215962D01*
X0132962Y0217284D01*
X0131235Y0218000D01*
X0129365Y0218000D01*
X0127638Y0217284D01*
X0126316Y0215962D01*
X0125600Y0214235D01*
X0125600Y0212365D01*
X0126316Y0210638D01*
X0127638Y0209316D01*
X0129365Y0208600D01*
X0131235Y0208600D01*
X0132962Y0209316D01*
X0133259Y0209612D02*
X0137341Y0209612D01*
X0136743Y0210210D02*
X0133857Y0210210D01*
X0134355Y0210809D02*
X0136245Y0210809D01*
X0135997Y0211407D02*
X0134603Y0211407D01*
X0134851Y0212006D02*
X0135749Y0212006D01*
X0135600Y0212604D02*
X0135000Y0212604D01*
X0135000Y0213203D02*
X0135600Y0213203D01*
X0135600Y0213801D02*
X0135000Y0213801D01*
X0134932Y0214400D02*
X0135668Y0214400D01*
X0135916Y0214998D02*
X0134684Y0214998D01*
X0134436Y0215597D02*
X0136164Y0215597D01*
X0136549Y0216195D02*
X0134051Y0216195D01*
X0133453Y0216794D02*
X0137147Y0216794D01*
X0137898Y0217392D02*
X0132702Y0217392D01*
X0131257Y0217991D02*
X0139343Y0217991D01*
X0129343Y0217991D02*
X0121257Y0217991D01*
X0122702Y0217392D02*
X0127898Y0217392D01*
X0127147Y0216794D02*
X0123453Y0216794D01*
X0124051Y0216195D02*
X0126549Y0216195D01*
X0126164Y0215597D02*
X0124436Y0215597D01*
X0124684Y0214998D02*
X0125916Y0214998D01*
X0125668Y0214400D02*
X0124932Y0214400D01*
X0125000Y0213801D02*
X0125600Y0213801D01*
X0125600Y0213203D02*
X0125000Y0213203D01*
X0125000Y0212604D02*
X0125600Y0212604D01*
X0125749Y0212006D02*
X0124851Y0212006D01*
X0124603Y0211407D02*
X0125997Y0211407D01*
X0126245Y0210809D02*
X0124355Y0210809D01*
X0123857Y0210210D02*
X0126743Y0210210D01*
X0127341Y0209612D02*
X0123259Y0209612D01*
X0122425Y0209013D02*
X0128368Y0209013D01*
X0162232Y0209013D02*
X0168368Y0209013D01*
X0169000Y0208415D02*
X0162524Y0208415D01*
X0163122Y0207816D02*
X0169445Y0207816D01*
X0170044Y0207218D02*
X0163721Y0207218D01*
X0164319Y0206619D02*
X0170642Y0206619D01*
X0167341Y0209612D02*
X0163259Y0209612D01*
X0163857Y0210210D02*
X0166743Y0210210D01*
X0166245Y0210809D02*
X0164355Y0210809D01*
X0164603Y0211407D02*
X0165997Y0211407D01*
X0165749Y0212006D02*
X0164851Y0212006D01*
X0165000Y0212604D02*
X0165600Y0212604D01*
X0165600Y0213203D02*
X0165000Y0213203D01*
X0165000Y0213801D02*
X0165600Y0213801D01*
X0165668Y0214400D02*
X0164932Y0214400D01*
X0164684Y0214998D02*
X0165916Y0214998D01*
X0166164Y0215597D02*
X0164436Y0215597D01*
X0164051Y0216195D02*
X0166549Y0216195D01*
X0167147Y0216794D02*
X0163453Y0216794D01*
X0162702Y0217392D02*
X0167898Y0217392D01*
X0169343Y0217991D02*
X0161257Y0217991D01*
D36*
X0181500Y0199600D03*
X0181500Y0196600D03*
X0181500Y0193600D03*
X0181500Y0190600D03*
X0181500Y0187600D03*
X0137800Y0171800D03*
X0138800Y0168800D03*
X0136000Y0164100D03*
X0133000Y0164100D03*
X0130000Y0164100D03*
X0127000Y0164100D03*
X0124000Y0164100D03*
X0114300Y0158300D03*
X0125300Y0151800D03*
X0123500Y0141600D03*
X0123500Y0138600D03*
X0123500Y0135600D03*
X0122000Y0133100D03*
X0120000Y0135600D03*
X0118500Y0133100D03*
X0116500Y0135600D03*
X0115000Y0133100D03*
X0113000Y0135600D03*
X0113300Y0120800D03*
X0109300Y0120800D03*
X0109300Y0117300D03*
X0109300Y0113800D03*
X0113300Y0113800D03*
X0113300Y0117300D03*
X0105300Y0115300D03*
X0101300Y0115300D03*
X0097300Y0115300D03*
X0097300Y0107300D03*
X0101300Y0107300D03*
X0105300Y0107300D03*
X0109300Y0108800D03*
X0109300Y0105300D03*
X0113300Y0105300D03*
X0113300Y0108800D03*
X0113300Y0101800D03*
X0109300Y0101800D03*
X0124800Y0093300D03*
X0124800Y0089300D03*
X0124800Y0085300D03*
X0124800Y0081300D03*
X0124800Y0077300D03*
X0145800Y0056800D03*
X0127800Y0049300D03*
X0093800Y0048300D03*
X0093800Y0044300D03*
X0089800Y0044300D03*
X0089800Y0048300D03*
X0085800Y0048300D03*
X0085800Y0044300D03*
X0081800Y0044300D03*
X0081800Y0048300D03*
X0077800Y0048300D03*
X0077800Y0044300D03*
X0073800Y0044300D03*
X0073800Y0048300D03*
X0069800Y0048300D03*
X0069800Y0044300D03*
X0133800Y0133800D03*
X0136300Y0136800D03*
X0147800Y0133800D03*
X0139300Y0156300D03*
X0136000Y0176100D03*
X0136000Y0179100D03*
X0136000Y0182100D03*
X0136000Y0185100D03*
X0136300Y0189300D03*
X0137000Y0194100D03*
X0137000Y0197100D03*
X0089000Y0159600D03*
X0090500Y0157100D03*
X0087000Y0157100D03*
X0085500Y0159600D03*
X0083500Y0157100D03*
X0082000Y0159600D03*
X0080000Y0157100D03*
X0078500Y0159600D03*
X0076500Y0157100D03*
X0070000Y0150600D03*
X0067000Y0149100D03*
X0067000Y0146100D03*
X0070000Y0144600D03*
X0070000Y0141600D03*
X0067000Y0143100D03*
X0070000Y0147600D03*
X0216800Y0131800D03*
X0216800Y0128800D03*
X0216800Y0125800D03*
X0216800Y0122800D03*
X0219800Y0122800D03*
X0219800Y0125800D03*
X0219800Y0128800D03*
X0219800Y0131800D03*
X0227300Y0131800D03*
X0227300Y0128800D03*
X0230800Y0128800D03*
X0230800Y0131800D03*
X0234300Y0131800D03*
X0234300Y0128800D03*
X0237800Y0128800D03*
X0237800Y0131800D03*
X0241300Y0131800D03*
X0241300Y0128800D03*
X0244800Y0128800D03*
X0244800Y0131800D03*
X0248300Y0131800D03*
X0248300Y0128800D03*
X0251800Y0128800D03*
X0251800Y0131800D03*
X0255300Y0131800D03*
X0255300Y0128800D03*
X0233500Y0148100D03*
X0230500Y0148100D03*
X0227500Y0148100D03*
X0219800Y0119800D03*
X0219800Y0116800D03*
X0219800Y0113800D03*
X0216800Y0113800D03*
X0216800Y0116800D03*
X0216800Y0119800D03*
X0216800Y0110800D03*
X0219800Y0110800D03*
X0219300Y0107800D03*
X0219300Y0104800D03*
X0222300Y0104800D03*
X0222300Y0107800D03*
X0222300Y0101800D03*
X0222300Y0098800D03*
X0222300Y0095800D03*
X0222300Y0092800D03*
X0219300Y0092800D03*
X0219300Y0095800D03*
X0219300Y0098800D03*
X0219300Y0101800D03*
X0219300Y0089800D03*
X0219300Y0086800D03*
X0219300Y0083800D03*
X0219300Y0080800D03*
X0222800Y0080800D03*
X0222800Y0083800D03*
X0222800Y0086800D03*
X0222800Y0089800D03*
X0229300Y0084300D03*
X0229300Y0081300D03*
X0232800Y0081300D03*
X0232800Y0084300D03*
X0241300Y0084300D03*
X0241300Y0081300D03*
X0244800Y0081300D03*
X0244800Y0084300D03*
X0252300Y0084300D03*
X0252300Y0081300D03*
X0255800Y0081300D03*
X0255800Y0084300D03*
X0243300Y0075300D03*
X0223300Y0057800D03*
D37*
X0096883Y0146316D02*
X0094316Y0146316D01*
X0091954Y0143954D01*
X0089300Y0143954D01*
X0085954Y0143954D01*
X0085300Y0143300D01*
X0081646Y0143300D01*
X0081646Y0151300D02*
X0085300Y0151300D01*
X0085954Y0150646D01*
X0089300Y0150646D01*
X0091954Y0150646D01*
X0094316Y0148284D01*
X0096883Y0148284D01*
D38*
X0108900Y0170500D02*
X0109188Y0170788D01*
X0128300Y0170788D01*
D39*
X0108900Y0183900D02*
X0116300Y0191300D01*
X0124454Y0191300D01*
X0127300Y0195300D02*
X0130300Y0195300D01*
X0131300Y0194300D01*
X0131300Y0191454D01*
X0131146Y0191300D01*
X0134300Y0191300D01*
X0136300Y0189300D01*
X0127300Y0195300D02*
X0125954Y0196646D01*
X0125954Y0199300D01*
X0120746Y0199300D01*
X0223300Y0057800D02*
X0223300Y0033800D01*
X0227210Y0029890D01*
X0249710Y0029890D01*
X0256300Y0023300D01*
X0133060Y0050182D02*
X0128682Y0050182D01*
X0127800Y0049300D01*
D40*
X0236801Y0061413D02*
X0237260Y0060954D01*
X0247800Y0060954D01*
X0247800Y0067646D02*
X0247954Y0067800D01*
X0247954Y0075300D01*
X0243300Y0075300D01*
X0247729Y0074524D02*
X0247729Y0089351D01*
X0247954Y0075300D02*
X0247729Y0074524D01*
M02*
