G75*
%MOIN*%
%OFA0B0*%
%FSLAX25Y25*%
%IPPOS*%
%LPD*%
%AMOC8*
5,1,8,0,0,1.08239X$1,22.5*
%
%ADD10R,0.03937X0.04331*%
%ADD11R,0.04331X0.03937*%
%ADD12R,0.06299X0.05512*%
%ADD13R,0.07874X0.04724*%
%ADD14R,0.00984X0.02756*%
%ADD15R,0.02756X0.00984*%
%ADD16R,0.06693X0.10630*%
%ADD17R,0.02165X0.04724*%
%ADD18R,0.24409X0.21260*%
%ADD19R,0.06299X0.03937*%
%ADD20R,0.08000X0.02600*%
%ADD21R,0.02756X0.05906*%
%ADD22R,0.05906X0.02756*%
%ADD23R,0.05512X0.04724*%
%ADD24R,0.07087X0.06299*%
D10*
X0072300Y0084954D03*
X0072300Y0091646D03*
X0089300Y0143954D03*
X0089300Y0150646D03*
X0229300Y0143646D03*
X0229300Y0136954D03*
X0237300Y0136954D03*
X0237300Y0143646D03*
X0247800Y0067646D03*
X0247800Y0060954D03*
D11*
X0247954Y0075300D03*
X0254646Y0075300D03*
X0227646Y0075300D03*
X0220954Y0075300D03*
X0220954Y0067300D03*
X0227646Y0067300D03*
X0153646Y0127800D03*
X0146954Y0127800D03*
X0141646Y0127800D03*
X0134954Y0127800D03*
X0137646Y0142300D03*
X0130954Y0142300D03*
X0130954Y0150300D03*
X0137646Y0150300D03*
X0131646Y0158300D03*
X0124954Y0158300D03*
X0124454Y0191300D03*
X0131146Y0191300D03*
X0132646Y0199300D03*
X0125954Y0199300D03*
X0120746Y0199300D03*
X0114054Y0199300D03*
X0081646Y0151300D03*
X0074954Y0151300D03*
X0074954Y0143300D03*
X0081646Y0143300D03*
X0136454Y0068800D03*
X0143146Y0068800D03*
X0140646Y0042300D03*
X0133954Y0042300D03*
D12*
X0128300Y0170788D03*
X0128300Y0181812D03*
D13*
X0087300Y0065599D03*
X0075800Y0065599D03*
X0075800Y0053001D03*
X0087300Y0053001D03*
D14*
X0099442Y0139820D03*
X0101410Y0139820D03*
X0103379Y0139820D03*
X0105347Y0139820D03*
X0107316Y0139820D03*
X0109284Y0139820D03*
X0111253Y0139820D03*
X0113221Y0139820D03*
X0115190Y0139820D03*
X0117158Y0139820D03*
X0117158Y0154780D03*
X0115190Y0154780D03*
X0113221Y0154780D03*
X0111253Y0154780D03*
X0109284Y0154780D03*
X0107316Y0154780D03*
X0105347Y0154780D03*
X0103379Y0154780D03*
X0101410Y0154780D03*
X0099442Y0154780D03*
D15*
X0096883Y0152221D03*
X0096883Y0150253D03*
X0096883Y0148284D03*
X0096883Y0146316D03*
X0096883Y0144347D03*
X0096883Y0142379D03*
X0119717Y0142379D03*
X0119717Y0144347D03*
X0119717Y0146316D03*
X0119717Y0148284D03*
X0119717Y0150253D03*
X0119717Y0152221D03*
D16*
X0114206Y0147300D03*
D17*
X0133060Y0060418D03*
X0136800Y0060418D03*
X0140540Y0060418D03*
X0140540Y0050182D03*
X0136800Y0050182D03*
X0133060Y0050182D03*
D18*
X0109143Y0083300D03*
X0074457Y0111300D03*
D19*
X0080402Y0092276D03*
X0080402Y0074324D03*
X0103198Y0102324D03*
X0103198Y0120276D03*
D20*
X0120200Y0118800D03*
X0120200Y0113800D03*
X0120200Y0108800D03*
X0120200Y0103800D03*
X0144400Y0103800D03*
X0144400Y0108800D03*
X0144400Y0113800D03*
X0144400Y0118800D03*
D21*
X0238280Y0122816D03*
X0243005Y0122816D03*
X0247729Y0122816D03*
X0252454Y0122816D03*
X0257178Y0122816D03*
X0257178Y0089351D03*
X0252454Y0089351D03*
X0247729Y0089351D03*
X0243005Y0089351D03*
X0238280Y0089351D03*
D22*
X0231784Y0094272D03*
X0231784Y0098997D03*
X0231784Y0103721D03*
X0231784Y0108446D03*
X0231784Y0113170D03*
X0231784Y0117894D03*
D23*
X0236800Y0073206D03*
X0236800Y0061394D03*
D24*
X0061210Y0051698D03*
X0061210Y0062722D03*
M02*
